# Blender v3.0.1 OBJ File: ''
# www.blender.org
mtllib pekka_brazo.mtl
o pekka_brazoIzquierdo.002
v -0.312657 0.287734 0.254119
v -0.312657 -0.212266 -0.345881
v -0.312657 -0.212267 0.254119
v -0.312657 0.287734 -0.345881
v -0.212656 -1.312267 0.154119
v -0.212656 -1.512267 -0.245882
v -0.212656 -1.512267 0.154119
v -0.212656 -0.912267 0.354119
v -0.212656 -1.312267 0.354119
v -0.212656 -0.912267 0.154119
v -0.212656 -0.212267 0.154119
v -0.212656 -0.212266 -0.245881
v -0.112657 -1.012267 0.454118
v -0.112657 -1.212267 0.354119
v -0.112657 -1.212267 0.454118
v -0.112657 -1.012267 0.354119
v 0.087343 -1.212267 0.454118
v 0.087343 -1.212267 0.354119
v 0.087343 -1.012267 0.454118
v 0.087343 -1.012267 0.354119
v 0.187343 -1.512267 0.154119
v 0.187343 -1.512267 -0.245882
v 0.187343 -1.312267 0.154119
v 0.187343 -1.312267 0.354119
v 0.187343 -0.912267 0.354119
v 0.187343 -0.912267 0.154119
v 0.187343 -0.212267 0.154119
v 0.187343 -0.212266 -0.245881
v 0.287344 -0.212267 0.254119
v 0.287344 -0.212266 -0.345881
v 0.287344 0.287734 0.254119
v 0.287344 0.287734 -0.345881
v 0.087343 -1.212267 0.454118
v -0.112657 -1.012267 0.454118
v -0.112657 -1.212267 0.454118
v 0.087343 -1.012267 0.454118
v -0.112657 -1.212267 0.354119
v -0.212656 -0.912267 0.354119
v -0.212656 -1.312267 0.354119
v -0.112657 -1.012267 0.354119
v 0.087343 -1.212267 0.354119
v 0.087343 -1.012267 0.354119
v 0.187343 -1.312267 0.354119
v 0.187343 -0.912267 0.354119
v 0.287344 -0.212267 0.254119
v -0.312657 0.287734 0.254119
v -0.312657 -0.212267 0.254119
v 0.287344 0.287734 0.254119
v 0.187343 -1.512267 0.154119
v -0.212656 -1.312267 0.154119
v -0.212656 -1.512267 0.154119
v 0.187343 -1.312267 0.154119
v 0.187343 -0.912267 0.154119
v -0.212656 -0.212267 0.154119
v -0.212656 -0.912267 0.154119
v 0.187343 -0.212267 0.154119
v -0.212656 -1.512267 -0.245882
v -0.212656 -0.212266 -0.245881
v 0.187343 -1.512267 -0.245882
v 0.187343 -0.212266 -0.245881
v -0.312657 -0.212266 -0.345881
v -0.312657 0.287734 -0.345881
v 0.287344 -0.212266 -0.345881
v 0.287344 0.287734 -0.345881
v -0.212656 -1.512267 -0.245882
v 0.187343 -1.512267 0.154119
v -0.212656 -1.512267 0.154119
v 0.187343 -1.512267 -0.245882
v -0.212656 -1.312267 0.154119
v 0.187343 -1.312267 0.354119
v -0.212656 -1.312267 0.354119
v 0.187343 -1.312267 0.154119
v -0.112657 -1.212267 0.354119
v 0.087343 -1.212267 0.454118
v -0.112657 -1.212267 0.454118
v 0.087343 -1.212267 0.354119
v -0.212656 -0.212267 0.154119
v 0.287344 -0.212267 0.254119
v -0.312657 -0.212267 0.254119
v 0.187343 -0.212267 0.154119
v -0.212656 -0.212266 -0.245881
v 0.187343 -0.212266 -0.245881
v -0.312657 -0.212266 -0.345881
v 0.287344 -0.212266 -0.345881
v -0.112657 -1.012267 0.454118
v 0.087343 -1.012267 0.454118
v -0.112657 -1.012267 0.354119
v 0.087343 -1.012267 0.354119
v -0.212656 -0.912267 0.354119
v 0.187343 -0.912267 0.354119
v -0.212656 -0.912267 0.154119
v 0.187343 -0.912267 0.154119
v -0.312657 0.287734 0.254119
v 0.287344 0.287734 0.254119
v -0.312657 0.287734 -0.345881
v 0.287344 0.287734 -0.345881
vt 0.814453 0.500000
vt 0.814453 0.500000
vt 0.814453 0.500000
vt 0.814453 0.500000
vt 0.814453 0.500000
vt 0.814453 0.500000
vt 0.814453 0.500000
vt 0.814453 0.500000
vt 0.814453 0.500000
vt 0.814453 0.500000
vt 0.814453 0.500000
vt 0.814453 0.500000
vt 0.705078 0.500000
vt 0.705078 0.500000
vt 0.705078 0.500000
vt 0.705078 0.500000
vt 0.705078 0.500000
vt 0.705078 0.500000
vt 0.705078 0.500000
vt 0.705078 0.500000
vt 0.814453 0.500000
vt 0.814453 0.500000
vt 0.814453 0.500000
vt 0.814453 0.500000
vt 0.814453 0.500000
vt 0.814453 0.500000
vt 0.814453 0.500000
vt 0.814453 0.500000
vt 0.814453 0.500000
vt 0.814453 0.500000
vt 0.814453 0.500000
vt 0.814453 0.500000
vt 0.705078 0.500000
vt 0.705078 0.500000
vt 0.705078 0.500000
vt 0.705078 0.500000
vt 0.814453 0.500000
vt 0.814453 0.500000
vt 0.814453 0.500000
vt 0.814453 0.500000
vt 0.814453 0.500000
vt 0.814453 0.500000
vt 0.814453 0.500000
vt 0.814453 0.500000
vt 0.814453 0.500000
vt 0.814453 0.500000
vt 0.814453 0.500000
vt 0.814453 0.500000
vt 0.814453 0.500000
vt 0.814453 0.500000
vt 0.814453 0.500000
vt 0.814453 0.500000
vt 0.814453 0.500000
vt 0.814453 0.500000
vt 0.814453 0.500000
vt 0.814453 0.500000
vt 0.814453 0.500000
vt 0.814453 0.500000
vt 0.814453 0.500000
vt 0.814453 0.500000
vt 0.814453 0.500000
vt 0.814453 0.500000
vt 0.814453 0.500000
vt 0.814453 0.500000
vt 0.814453 0.500000
vt 0.814453 0.500000
vt 0.814453 0.500000
vt 0.814453 0.500000
vt 0.814453 0.500000
vt 0.814453 0.500000
vt 0.814453 0.500000
vt 0.814453 0.500000
vt 0.705078 0.500000
vt 0.705078 0.500000
vt 0.705078 0.500000
vt 0.705078 0.500000
vt 0.814453 0.500000
vt 0.814453 0.500000
vt 0.814453 0.500000
vt 0.814453 0.500000
vt 0.814453 0.500000
vt 0.814453 0.500000
vt 0.814453 0.500000
vt 0.814453 0.500000
vt 0.705078 0.500000
vt 0.705078 0.500000
vt 0.705078 0.500000
vt 0.705078 0.500000
vt 0.814453 0.500000
vt 0.814453 0.500000
vt 0.814453 0.500000
vt 0.814453 0.500000
vt 0.814453 0.500000
vt 0.814453 0.500000
vt 0.814453 0.500000
vt 0.814453 0.500000
vn -1.0000 0.0000 0.0000
vn 1.0000 0.0000 0.0000
vn 0.0000 -0.0000 1.0000
vn 0.0000 0.0000 -1.0000
vn 0.0000 -1.0000 0.0000
vn 0.0000 1.0000 0.0000
usemtl palette.008
s 1
f 1/1/1 2/2/1 3/3/1
f 4/4/1 2/2/1 1/1/1
f 5/5/1 6/6/1 7/7/1
f 8/8/1 5/5/1 9/9/1
f 10/10/1 6/6/1 5/5/1
f 10/10/1 5/5/1 8/8/1
f 11/11/1 6/6/1 10/10/1
f 12/12/1 6/6/1 11/11/1
f 13/13/1 14/14/1 15/15/1
f 16/16/1 14/14/1 13/13/1
f 17/17/2 18/18/2 19/19/2
f 19/19/2 18/18/2 20/20/2
f 21/21/2 22/22/2 23/23/2
f 24/24/2 23/23/2 25/25/2
f 23/23/2 22/22/2 26/26/2
f 25/25/2 23/23/2 26/26/2
f 26/26/2 22/22/2 27/27/2
f 27/27/2 22/22/2 28/28/2
f 29/29/2 30/30/2 31/31/2
f 31/31/2 30/30/2 32/32/2
f 33/33/3 34/34/3 35/35/3
f 36/36/3 34/34/3 33/33/3
f 37/37/3 38/38/3 39/39/3
f 40/40/3 38/38/3 37/37/3
f 41/41/3 37/37/3 39/39/3
f 42/42/3 38/38/3 40/40/3
f 43/43/3 41/41/3 39/39/3
f 43/43/3 42/42/3 41/41/3
f 44/44/3 38/38/3 42/42/3
f 44/44/3 42/42/3 43/43/3
f 45/45/3 46/46/3 47/47/3
f 48/48/3 46/46/3 45/45/3
f 49/49/3 50/50/3 51/51/3
f 52/52/3 50/50/3 49/49/3
f 53/53/3 54/54/3 55/55/3
f 56/56/3 54/54/3 53/53/3
f 57/57/4 58/58/4 59/59/4
f 59/59/4 58/58/4 60/60/4
f 61/61/4 62/62/4 63/63/4
f 63/63/4 62/62/4 64/64/4
f 65/65/5 66/66/5 67/67/5
f 68/68/5 66/66/5 65/65/5
f 69/69/5 70/70/5 71/71/5
f 72/72/5 70/70/5 69/69/5
f 73/73/5 74/74/5 75/75/5
f 76/76/5 74/74/5 73/73/5
f 77/77/5 78/78/5 79/79/5
f 80/80/5 78/78/5 77/77/5
f 81/81/5 77/77/5 79/79/5
f 82/82/5 78/78/5 80/80/5
f 83/83/5 81/81/5 79/79/5
f 83/83/5 82/82/5 81/81/5
f 84/84/5 78/78/5 82/82/5
f 84/84/5 82/82/5 83/83/5
f 85/85/6 86/86/6 87/87/6
f 87/87/6 86/86/6 88/88/6
f 89/89/6 90/90/6 91/91/6
f 91/91/6 90/90/6 92/92/6
f 93/93/6 94/94/6 95/95/6
f 95/95/6 94/94/6 96/96/6
