# MagicaVoxel @ Ephtracy

# group
o 

# material
mtllib brazobarbaro.mtl
usemtl palette

# normals
vn -1 0 0
vn 1 0 0
vn 0 0 1
vn 0 0 -1
vn 0 -1 0
vn 0 1 0

# texcoords
vt 0.0332031 0.5
vt 0.0605469 0.5
vt 0.396484 0.5
vt 0.966797 0.5

# verts
v 0.9 2 -1.4
v 0.9 2 -1.5
v 0.9 2 -1.8
v 0.9 2.1 -1.4
v 0.9 2.1 -1.5
v 0.9 2.2 -1.4
v 0.9 2.2 -1.8
v 0.9 2.3 -1.4
v 0.9 2.3 -1.5
v 0.9 2.3 -1.7
v 0.9 2.3 -1.8
v 0.9 2.4 -1.4
v 0.9 2.4 -1.5
v 0.9 2.4 -1.7
v 0.9 2.4 -1.8
v 0.9 3.2 -1.4
v 0.9 3.2 -1.8
v 1.2 2 -1.4
v 1.2 2 -1.6
v 1.2 2 -1.8
v 1.2 2.1 -1.4
v 1.2 2.1 -1.6
v 1.2 2.2 -1.4
v 1.2 2.2 -1.8
v 1.2 2.3 -1.4
v 1.2 2.3 -1.5
v 1.2 2.4 -1.4
v 1.2 2.4 -1.5
v 1.2 2.4 -1.8
v 1.2 3.2 -1.4
v 1.2 3.2 -1.8
v 0.9 2 -1.4
v 0.9 2.1 -1.4
v 0.9 2.2 -1.4
v 0.9 2.3 -1.4
v 0.9 2.4 -1.4
v 0.9 3.2 -1.4
v 1 2.3 -1.4
v 1 2.4 -1.4
v 1.1 2.3 -1.4
v 1.1 2.4 -1.4
v 1.2 2 -1.4
v 1.2 2.1 -1.4
v 1.2 2.2 -1.4
v 1.2 2.3 -1.4
v 1.2 2.4 -1.4
v 1.2 3.2 -1.4
v 0.9 2 -1.8
v 0.9 2.2 -1.8
v 0.9 2.3 -1.8
v 0.9 2.4 -1.8
v 0.9 3.2 -1.8
v 1.1 2.3 -1.8
v 1.1 2.4 -1.8
v 1.2 2 -1.8
v 1.2 2.2 -1.8
v 1.2 2.4 -1.8
v 1.2 3.2 -1.8
v 0.9 2 -1.4
v 1.2 2 -1.4
v 0.9 2 -1.5
v 1.1 2 -1.5
v 1.1 2 -1.6
v 1.2 2 -1.6
v 0.9 2 -1.8
v 1.2 2 -1.8
v 0.9 3.2 -1.4
v 1.2 3.2 -1.4
v 0.9 3.2 -1.8
v 1.2 3.2 -1.8

# faces
f 4/2/1 2/2/1 1/2/1
f 5/1/1 3/1/1 2/1/1
f 5/2/1 2/2/1 4/2/1
f 6/1/1 5/1/1 4/1/1
f 7/1/1 3/1/1 5/1/1
f 7/1/1 5/1/1 6/1/1
f 8/3/1 7/3/1 6/3/1
f 9/3/1 7/3/1 8/3/1
f 10/3/1 7/3/1 9/3/1
f 11/3/1 7/3/1 10/3/1
f 12/4/1 9/4/1 8/4/1
f 13/3/1 10/3/1 9/3/1
f 13/4/1 9/4/1 12/4/1
f 14/4/1 11/4/1 10/4/1
f 14/3/1 10/3/1 13/3/1
f 15/4/1 11/4/1 14/4/1
f 16/1/1 13/1/1 12/1/1
f 16/1/1 14/1/1 13/1/1
f 16/1/1 15/1/1 14/1/1
f 17/1/1 15/1/1 16/1/1
f 18/2/2 19/2/2 21/2/2
f 19/1/2 20/1/2 22/1/2
f 21/2/2 19/2/2 22/2/2
f 21/1/2 22/1/2 23/1/2
f 22/1/2 20/1/2 24/1/2
f 23/1/2 22/1/2 24/1/2
f 23/3/2 24/3/2 25/3/2
f 25/3/2 24/3/2 26/3/2
f 25/4/2 26/4/2 27/4/2
f 26/3/2 24/3/2 28/3/2
f 27/4/2 26/4/2 28/4/2
f 28/3/2 24/3/2 29/3/2
f 27/1/2 28/1/2 30/1/2
f 28/1/2 29/1/2 30/1/2
f 30/1/2 29/1/2 31/1/2
f 38/3/3 35/3/3 34/3/3
f 38/4/3 36/4/3 35/4/3
f 39/1/3 37/1/3 36/1/3
f 39/4/3 36/4/3 38/4/3
f 40/3/3 38/3/3 34/3/3
f 40/3/3 39/3/3 38/3/3
f 41/1/3 37/1/3 39/1/3
f 41/3/3 39/3/3 40/3/3
f 42/2/3 33/2/3 32/2/3
f 43/1/3 34/1/3 33/1/3
f 43/2/3 33/2/3 42/2/3
f 44/3/3 40/3/3 34/3/3
f 44/1/3 34/1/3 43/1/3
f 45/4/3 41/4/3 40/4/3
f 45/3/3 40/3/3 44/3/3
f 46/1/3 37/1/3 41/1/3
f 46/4/3 41/4/3 45/4/3
f 47/1/3 37/1/3 46/1/3
f 49/3/4 50/3/4 53/3/4
f 50/4/4 51/4/4 53/4/4
f 51/1/4 52/1/4 54/1/4
f 53/4/4 51/4/4 54/4/4
f 48/1/4 49/1/4 55/1/4
f 49/3/4 53/3/4 56/3/4
f 55/1/4 49/1/4 56/1/4
f 53/3/4 54/3/4 56/3/4
f 54/1/4 52/1/4 57/1/4
f 56/3/4 54/3/4 57/3/4
f 57/1/4 52/1/4 58/1/4
f 61/2/5 60/2/5 59/2/5
f 62/2/5 60/2/5 61/2/5
f 63/1/5 62/1/5 61/1/5
f 63/2/5 60/2/5 62/2/5
f 64/2/5 60/2/5 63/2/5
f 65/1/5 63/1/5 61/1/5
f 65/1/5 64/1/5 63/1/5
f 66/1/5 64/1/5 65/1/5
f 67/1/6 68/1/6 69/1/6
f 69/1/6 68/1/6 70/1/6
