# Blender v3.0.1 OBJ File: ''
# www.blender.org
mtllib cabezabarbaro.mtl
o cabezabarbaro
v -0.550213 0.170989 0.393279
v -0.550213 -0.429011 -0.306722
v -0.550213 -0.429011 0.393279
v -0.550213 0.170989 -0.306721
v -0.550213 -0.429011 -0.406721
v -0.550213 0.470989 0.393279
v -0.550213 0.470989 -0.406721
v 0.549787 -0.429011 0.393279
v 0.549787 -0.429011 -0.306722
v 0.549787 0.170989 0.393279
v 0.549787 -0.429011 -0.406721
v 0.549787 0.170989 -0.306721
v 0.549787 0.470989 0.393279
v 0.549787 0.470989 -0.406721
v -0.450213 -0.429011 0.393279
v -0.550213 0.170989 0.393279
v -0.550213 -0.429011 0.393279
v -0.450213 -0.029011 0.393279
v -0.450213 0.170989 0.393279
v -0.550213 0.470989 0.393279
v -0.350213 -0.429011 0.393279
v -0.350213 -0.329011 0.393279
v -0.350213 -0.229011 0.393279
v -0.350213 -0.129011 0.393279
v -0.350213 -0.029011 0.393279
v -0.350213 0.170989 0.393279
v -0.150213 -0.029011 0.393279
v -0.150213 0.170989 0.393279
v 0.149787 -0.329011 0.393279
v 0.149787 -0.229011 0.393279
v 0.149787 -0.029011 0.393279
v 0.149787 0.170989 0.393279
v 0.349787 -0.429011 0.393279
v 0.349787 -0.329011 0.393279
v 0.349787 -0.229011 0.393279
v 0.349787 -0.129011 0.393279
v 0.349787 -0.029011 0.393279
v 0.349787 0.170989 0.393279
v 0.449787 -0.429011 0.393279
v 0.449787 -0.029011 0.393279
v 0.449787 0.170989 0.393279
v 0.549787 -0.429011 0.393279
v 0.549787 0.170989 0.393279
v 0.549787 0.470989 0.393279
v -0.550213 -0.429011 -0.406721
v -0.550213 0.470989 -0.406721
v 0.549787 -0.429011 -0.406721
v 0.549787 0.470989 -0.406721
v -0.450213 -0.429011 0.293279
v -0.450213 -0.429011 0.393279
v -0.550213 -0.429011 0.393279
v -0.350213 -0.429011 0.393279
v -0.350213 -0.429011 0.293279
v 0.349787 -0.429011 0.393279
v 0.349787 -0.429011 0.293279
v 0.449787 -0.429011 0.393279
v 0.449787 -0.429011 0.293279
v 0.549787 -0.429011 0.393279
v -0.550213 -0.429011 -0.306722
v 0.549787 -0.429011 -0.306722
v -0.550213 -0.429011 -0.406721
v 0.549787 -0.429011 -0.406721
v -0.550213 0.470989 0.393279
v 0.549787 0.470989 0.393279
v -0.550213 0.470989 -0.406721
v 0.549787 0.470989 -0.406721
vt 0.033203 0.500000
vt 0.033203 0.500000
vt 0.033203 0.500000
vt 0.041016 0.500000
vt 0.041016 0.500000
vt 0.041016 0.500000
vt 0.033203 0.500000
vt 0.041016 0.500000
vt 0.041016 0.500000
vt 0.041016 0.500000
vt 0.033203 0.500000
vt 0.033203 0.500000
vt 0.033203 0.500000
vt 0.041016 0.500000
vt 0.041016 0.500000
vt 0.041016 0.500000
vt 0.033203 0.500000
vt 0.041016 0.500000
vt 0.041016 0.500000
vt 0.041016 0.500000
vt 0.033203 0.500000
vt 0.033203 0.500000
vt 0.033203 0.500000
vt 0.033203 0.500000
vt 0.041016 0.500000
vt 0.041016 0.500000
vt 0.041016 0.500000
vt 0.033203 0.500000
vt 0.021484 0.500000
vt 0.021484 0.500000
vt 0.021484 0.500000
vt 0.021484 0.500000
vt 0.021484 0.500000
vt 0.021484 0.500000
vt 0.958984 0.500000
vt 0.958984 0.500000
vt 0.958984 0.500000
vt 0.021484 0.500000
vt 0.041016 0.500000
vt 0.958984 0.500000
vt 0.021484 0.500000
vt 0.728516 0.500000
vt 0.728516 0.500000
vt 0.728516 0.500000
vt 0.041016 0.500000
vt 0.728516 0.500000
vt 0.958984 0.500000
vt 0.958984 0.500000
vt 0.958984 0.500000
vt 0.060547 0.500000
vt 0.060547 0.500000
vt 0.060547 0.500000
vt 0.958984 0.500000
vt 0.958984 0.500000
vt 0.958984 0.500000
vt 0.060547 0.500000
vt 0.021484 0.500000
vt 0.060547 0.500000
vt 0.060547 0.500000
vt 0.060547 0.500000
vt 0.041016 0.500000
vt 0.060547 0.500000
vt 0.958984 0.500000
vt 0.994141 0.500000
vt 0.994141 0.500000
vt 0.994141 0.500000
vt 0.958984 0.500000
vt 0.958984 0.500000
vt 0.994141 0.500000
vt 0.021484 0.500000
vt 0.958984 0.500000
vt 0.728516 0.500000
vt 0.728516 0.500000
vt 0.728516 0.500000
vt 0.021484 0.500000
vt 0.041016 0.500000
vt 0.728516 0.500000
vt 0.021484 0.500000
vt 0.021484 0.500000
vt 0.021484 0.500000
vt 0.021484 0.500000
vt 0.958984 0.500000
vt 0.958984 0.500000
vt 0.958984 0.500000
vt 0.021484 0.500000
vt 0.041016 0.500000
vt 0.958984 0.500000
vt 0.033203 0.500000
vt 0.033203 0.500000
vt 0.033203 0.500000
vt 0.033203 0.500000
vt 0.041016 0.500000
vt 0.033203 0.500000
vt 0.041016 0.500000
vt 0.041016 0.500000
vt 0.041016 0.500000
vt 0.041016 0.500000
vt 0.041016 0.500000
vt 0.033203 0.500000
vt 0.033203 0.500000
vt 0.033203 0.500000
vt 0.021484 0.500000
vt 0.021484 0.500000
vt 0.021484 0.500000
vt 0.958984 0.500000
vt 0.958984 0.500000
vt 0.958984 0.500000
vt 0.021484 0.500000
vt 0.021484 0.500000
vt 0.021484 0.500000
vt 0.021484 0.500000
vt 0.958984 0.500000
vt 0.033203 0.500000
vt 0.033203 0.500000
vt 0.033203 0.500000
vt 0.021484 0.500000
vt 0.033203 0.500000
vt 0.033203 0.500000
vt 0.033203 0.500000
vt 0.033203 0.500000
vt 0.041016 0.500000
vt 0.041016 0.500000
vt 0.041016 0.500000
vt 0.041016 0.500000
vt 0.041016 0.500000
vt 0.041016 0.500000
vt 0.041016 0.500000
vt 0.041016 0.500000
vn -1.0000 -0.0000 0.0000
vn 1.0000 0.0000 0.0000
vn 0.0000 -0.0000 1.0000
vn 0.0000 0.0000 -1.0000
vn -0.0000 -1.0000 -0.0000
vn 0.0000 1.0000 0.0000
usemtl palette
s 1
f 1/1/1 2/2/1 3/3/1
f 4/4/1 5/5/1 2/6/1
f 4/7/1 2/2/1 1/1/1
f 6/8/1 4/4/1 1/9/1
f 7/10/1 5/5/1 4/4/1
f 7/10/1 4/4/1 6/8/1
f 8/11/2 9/12/2 10/13/2
f 9/14/2 11/15/2 12/16/2
f 10/13/2 9/12/2 12/17/2
f 10/18/2 12/16/2 13/19/2
f 12/16/2 11/15/2 14/20/2
f 13/19/2 12/16/2 14/20/2
f 15/21/3 16/22/3 17/23/3
f 18/24/3 16/22/3 15/21/3
f 19/25/3 20/26/3 16/27/3
f 19/28/3 16/22/3 18/24/3
f 21/29/3 18/30/3 15/31/3
f 22/32/3 18/30/3 21/29/3
f 23/33/3 18/30/3 22/32/3
f 24/34/3 18/30/3 23/33/3
f 25/35/3 19/36/3 18/37/3
f 25/38/3 18/30/3 24/34/3
f 26/39/3 20/26/3 19/25/3
f 26/40/3 19/36/3 25/35/3
f 27/41/3 25/38/3 24/34/3
f 27/42/3 26/43/3 25/44/3
f 28/45/3 20/26/3 26/39/3
f 28/46/3 26/43/3 27/42/3
f 29/47/3 22/48/3 21/49/3
f 29/50/3 23/51/3 22/52/3
f 30/53/3 24/54/3 23/55/3
f 30/56/3 23/51/3 29/50/3
f 31/57/3 27/41/3 24/34/3
f 31/58/3 28/59/3 27/60/3
f 32/61/3 20/26/3 28/45/3
f 32/62/3 28/59/3 31/58/3
f 33/63/3 29/47/3 21/49/3
f 34/64/3 30/65/3 29/66/3
f 34/67/3 29/47/3 33/63/3
f 35/68/3 24/54/3 30/53/3
f 35/69/3 30/65/3 34/64/3
f 36/70/3 31/57/3 24/34/3
f 36/71/3 24/54/3 35/68/3
f 37/72/3 32/73/3 31/74/3
f 37/75/3 31/57/3 36/70/3
f 38/76/3 20/26/3 32/61/3
f 38/77/3 32/73/3 37/72/3
f 39/78/3 34/79/3 33/80/3
f 39/78/3 37/75/3 36/70/3
f 39/78/3 35/81/3 34/79/3
f 39/78/3 36/70/3 35/81/3
f 40/82/3 38/83/3 37/84/3
f 40/85/3 37/75/3 39/78/3
f 41/86/3 20/26/3 38/76/3
f 41/87/3 38/83/3 40/82/3
f 42/88/3 40/89/3 39/90/3
f 42/88/3 41/91/3 40/89/3
f 43/92/3 20/26/3 41/86/3
f 43/93/3 41/91/3 42/88/3
f 44/94/3 20/26/3 43/92/3
f 45/95/4 46/96/4 47/97/4
f 47/97/4 46/96/4 48/98/4
f 49/99/5 50/100/5 51/101/5
f 49/102/5 52/103/5 50/104/5
f 53/105/5 54/106/5 52/107/5
f 53/108/5 52/103/5 49/102/5
f 55/109/5 56/110/5 54/111/5
f 55/112/5 54/106/5 53/105/5
f 57/113/5 58/114/5 56/115/5
f 57/116/5 56/110/5 55/109/5
f 59/117/5 55/118/5 53/119/5
f 59/117/5 53/119/5 49/99/5
f 59/117/5 57/113/5 55/118/5
f 59/117/5 49/99/5 51/101/5
f 60/120/5 58/114/5 57/113/5
f 60/120/5 57/113/5 59/117/5
f 61/121/5 60/122/5 59/123/5
f 62/124/5 60/122/5 61/121/5
f 63/125/6 64/126/6 65/127/6
f 65/127/6 64/126/6 66/128/6
