# MagicaVoxel @ Ephtracy

# group
o 

# material
mtllib cabezabarbaro.mtl
usemtl palette

# normals
vn -1 0 0
vn 1 0 0
vn 0 0 1
vn 0 0 -1
vn 0 -1 0
vn 0 1 0

# texcoords
vt 0.0214844 0.5
vt 0.0332031 0.5
vt 0.0410156 0.5
vt 0.0605469 0.5
vt 0.728516 0.5
vt 0.958984 0.5
vt 0.994141 0.5

# verts
v 1.3 2 -1.5
v 1.3 2 -2.2
v 1.3 2 -2.3
v 1.3 2.6 -1.5
v 1.3 2.6 -2.2
v 1.3 2.9 -1.5
v 1.3 2.9 -2.3
v 2.4 2 -1.5
v 2.4 2 -2.2
v 2.4 2 -2.3
v 2.4 2.6 -1.5
v 2.4 2.6 -2.2
v 2.4 2.9 -1.5
v 2.4 2.9 -2.3
v 1.3 2 -1.5
v 1.3 2.6 -1.5
v 1.3 2.9 -1.5
v 1.4 2 -1.5
v 1.4 2.4 -1.5
v 1.4 2.6 -1.5
v 1.5 2 -1.5
v 1.5 2.1 -1.5
v 1.5 2.2 -1.5
v 1.5 2.3 -1.5
v 1.5 2.4 -1.5
v 1.5 2.6 -1.5
v 1.7 2.4 -1.5
v 1.7 2.6 -1.5
v 2 2.1 -1.5
v 2 2.2 -1.5
v 2 2.4 -1.5
v 2 2.6 -1.5
v 2.2 2 -1.5
v 2.2 2.1 -1.5
v 2.2 2.2 -1.5
v 2.2 2.3 -1.5
v 2.2 2.4 -1.5
v 2.2 2.6 -1.5
v 2.3 2 -1.5
v 2.3 2.4 -1.5
v 2.3 2.6 -1.5
v 2.4 2 -1.5
v 2.4 2.6 -1.5
v 2.4 2.9 -1.5
v 1.3 2 -2.3
v 1.3 2.9 -2.3
v 2.4 2 -2.3
v 2.4 2.9 -2.3
v 1.3 2 -1.5
v 1.4 2 -1.5
v 1.5 2 -1.5
v 2.2 2 -1.5
v 2.3 2 -1.5
v 2.4 2 -1.5
v 1.4 2 -1.6
v 1.5 2 -1.6
v 2.2 2 -1.6
v 2.3 2 -1.6
v 1.3 2 -2.2
v 2.4 2 -2.2
v 1.3 2 -2.3
v 2.4 2 -2.3
v 1.3 2.9 -1.5
v 2.4 2.9 -1.5
v 1.3 2.9 -2.3
v 2.4 2.9 -2.3

# faces
f 4/2/1 2/2/1 1/2/1
f 5/3/1 3/3/1 2/3/1
f 5/2/1 2/2/1 4/2/1
f 6/3/1 5/3/1 4/3/1
f 7/3/1 3/3/1 5/3/1
f 7/3/1 5/3/1 6/3/1
f 8/2/2 9/2/2 11/2/2
f 9/3/2 10/3/2 12/3/2
f 11/2/2 9/2/2 12/2/2
f 11/3/2 12/3/2 13/3/2
f 12/3/2 10/3/2 14/3/2
f 13/3/2 12/3/2 14/3/2
f 18/2/3 16/2/3 15/2/3
f 19/2/3 16/2/3 18/2/3
f 20/3/3 17/3/3 16/3/3
f 20/2/3 16/2/3 19/2/3
f 21/1/3 19/1/3 18/1/3
f 22/1/3 19/1/3 21/1/3
f 23/1/3 19/1/3 22/1/3
f 24/1/3 19/1/3 23/1/3
f 25/6/3 20/6/3 19/6/3
f 25/1/3 19/1/3 24/1/3
f 26/3/3 17/3/3 20/3/3
f 26/6/3 20/6/3 25/6/3
f 27/1/3 25/1/3 24/1/3
f 27/5/3 26/5/3 25/5/3
f 28/3/3 17/3/3 26/3/3
f 28/5/3 26/5/3 27/5/3
f 29/6/3 22/6/3 21/6/3
f 29/4/3 23/4/3 22/4/3
f 30/6/3 24/6/3 23/6/3
f 30/4/3 23/4/3 29/4/3
f 31/1/3 27/1/3 24/1/3
f 31/4/3 28/4/3 27/4/3
f 32/3/3 17/3/3 28/3/3
f 32/4/3 28/4/3 31/4/3
f 33/6/3 29/6/3 21/6/3
f 34/7/3 30/7/3 29/7/3
f 34/6/3 29/6/3 33/6/3
f 35/6/3 24/6/3 30/6/3
f 35/7/3 30/7/3 34/7/3
f 36/1/3 31/1/3 24/1/3
f 36/6/3 24/6/3 35/6/3
f 37/5/3 32/5/3 31/5/3
f 37/1/3 31/1/3 36/1/3
f 38/3/3 17/3/3 32/3/3
f 38/5/3 32/5/3 37/5/3
f 39/1/3 34/1/3 33/1/3
f 39/1/3 37/1/3 36/1/3
f 39/1/3 35/1/3 34/1/3
f 39/1/3 36/1/3 35/1/3
f 40/6/3 38/6/3 37/6/3
f 40/1/3 37/1/3 39/1/3
f 41/3/3 17/3/3 38/3/3
f 41/6/3 38/6/3 40/6/3
f 42/2/3 40/2/3 39/2/3
f 42/2/3 41/2/3 40/2/3
f 43/3/3 17/3/3 41/3/3
f 43/2/3 41/2/3 42/2/3
f 44/3/3 17/3/3 43/3/3
f 45/3/4 46/3/4 47/3/4
f 47/3/4 46/3/4 48/3/4
f 55/2/5 50/2/5 49/2/5
f 55/1/5 51/1/5 50/1/5
f 56/6/5 52/6/5 51/6/5
f 56/1/5 51/1/5 55/1/5
f 57/1/5 53/1/5 52/1/5
f 57/6/5 52/6/5 56/6/5
f 58/2/5 54/2/5 53/2/5
f 58/1/5 53/1/5 57/1/5
f 59/2/5 57/2/5 56/2/5
f 59/2/5 56/2/5 55/2/5
f 59/2/5 58/2/5 57/2/5
f 59/2/5 55/2/5 49/2/5
f 60/2/5 54/2/5 58/2/5
f 60/2/5 58/2/5 59/2/5
f 61/3/5 60/3/5 59/3/5
f 62/3/5 60/3/5 61/3/5
f 63/3/6 64/3/6 65/3/6
f 65/3/6 64/3/6 66/3/6
