# MagicaVoxel @ Ephtracy

# group
o 

# material
mtllib cuerpobarbaro.mtl
usemtl palette

# normals
vn -1 0 0
vn 1 0 0
vn 0 0 1
vn 0 0 -1
vn 0 -1 0
vn 0 1 0

# texcoords
vt 0.0332031 0.5
vt 0.0410156 0.5
vt 0.232422 0.5
vt 0.369141 0.5
vt 0.537109 0.5
vt 0.841797 0.5
vt 0.974609 0.5

# verts
v 1.3 2 -1.3
v 1.3 2 -2.1
v 1.3 2.1 -1.3
v 1.3 2.1 -1.4
v 1.3 2.1 -1.6
v 1.3 2.1 -2
v 1.3 2.1 -2.1
v 1.3 2.2 -1.3
v 1.3 2.2 -1.4
v 1.3 2.2 -1.6
v 1.3 2.2 -1.8
v 1.3 2.2 -2
v 1.3 2.2 -2.1
v 1.3 2.3 -1.3
v 1.3 2.3 -1.4
v 1.3 2.3 -1.6
v 1.3 2.3 -1.8
v 1.3 2.3 -2
v 1.3 2.4 -1.8
v 1.3 2.4 -2
v 1.3 2.4 -2.1
v 1.3 2.5 -1.3
v 1.3 2.5 -2
v 1.3 2.5 -2.1
v 1.3 2.8 -1.3
v 1.3 2.8 -2.1
v 1.3 4.1 -1.3
v 1.3 4.1 -2.1
v 2.4 2 -1.3
v 2.4 2 -2.1
v 2.4 2.1 -1.3
v 2.4 2.1 -1.8
v 2.4 2.1 -2.1
v 2.4 2.2 -1.3
v 2.4 2.2 -1.4
v 2.4 2.2 -1.7
v 2.4 2.2 -1.8
v 2.4 2.2 -2.1
v 2.4 2.3 -1.3
v 2.4 2.3 -1.4
v 2.4 2.3 -1.5
v 2.4 2.3 -1.7
v 2.4 2.3 -1.8
v 2.4 2.4 -1.4
v 2.4 2.4 -1.5
v 2.4 2.4 -1.7
v 2.4 2.5 -1.3
v 2.4 2.5 -1.4
v 2.4 2.5 -1.5
v 2.4 2.5 -2.1
v 2.4 2.8 -1.3
v 2.4 2.8 -2.1
v 2.4 4.1 -1.3
v 2.4 4.1 -2.1
v 1.3 2 -1.3
v 1.3 2.1 -1.3
v 1.3 2.2 -1.3
v 1.3 2.3 -1.3
v 1.3 2.5 -1.3
v 1.3 2.8 -1.3
v 1.3 4.1 -1.3
v 1.4 2 -1.3
v 1.4 2.1 -1.3
v 1.4 2.2 -1.3
v 1.4 2.3 -1.3
v 1.4 2.4 -1.3
v 1.4 3.5 -1.3
v 1.4 3.6 -1.3
v 1.5 2.1 -1.3
v 1.5 2.2 -1.3
v 1.5 2.3 -1.3
v 1.5 2.4 -1.3
v 1.5 2.5 -1.3
v 1.5 3.1 -1.3
v 1.5 3.3 -1.3
v 1.6 2.1 -1.3
v 1.6 2.2 -1.3
v 1.6 2.3 -1.3
v 1.6 2.4 -1.3
v 1.6 2.5 -1.3
v 1.7 2.1 -1.3
v 1.7 2.2 -1.3
v 1.7 2.3 -1.3
v 1.7 2.4 -1.3
v 1.7 2.5 -1.3
v 1.7 2.8 -1.3
v 1.7 3 -1.3
v 1.7 3.1 -1.3
v 1.7 3.3 -1.3
v 1.7 3.5 -1.3
v 1.7 3.6 -1.3
v 1.7 3.7 -1.3
v 1.8 2.1 -1.3
v 1.8 2.2 -1.3
v 1.8 2.3 -1.3
v 1.8 2.4 -1.3
v 1.9 2 -1.3
v 1.9 2.1 -1.3
v 1.9 2.2 -1.3
v 1.9 2.4 -1.3
v 1.9 2.5 -1.3
v 2 2.3 -1.3
v 2 2.5 -1.3
v 2 2.8 -1.3
v 2 3 -1.3
v 2 3.1 -1.3
v 2 3.3 -1.3
v 2 3.5 -1.3
v 2 3.6 -1.3
v 2 3.7 -1.3
v 2.1 2 -1.3
v 2.1 2.1 -1.3
v 2.1 2.2 -1.3
v 2.1 2.3 -1.3
v 2.2 2.1 -1.3
v 2.2 2.2 -1.3
v 2.2 2.3 -1.3
v 2.2 2.4 -1.3
v 2.2 3.1 -1.3
v 2.2 3.3 -1.3
v 2.3 2 -1.3
v 2.3 2.1 -1.3
v 2.3 2.2 -1.3
v 2.3 2.3 -1.3
v 2.3 2.4 -1.3
v 2.3 3.5 -1.3
v 2.3 3.6 -1.3
v 2.4 2 -1.3
v 2.4 2.1 -1.3
v 2.4 2.2 -1.3
v 2.4 2.3 -1.3
v 2.4 2.5 -1.3
v 2.4 2.8 -1.3
v 2.4 4.1 -1.3
v 1.3 2 -2.1
v 1.3 2.1 -2.1
v 1.3 2.2 -2.1
v 1.3 2.4 -2.1
v 1.3 2.5 -2.1
v 1.3 2.8 -2.1
v 1.3 4.1 -2.1
v 1.4 2 -2.1
v 1.4 2.1 -2.1
v 1.4 2.4 -2.1
v 1.4 2.5 -2.1
v 1.5 2.1 -2.1
v 1.5 2.2 -2.1
v 1.5 2.3 -2.1
v 1.5 2.4 -2.1
v 1.5 2.5 -2.1
v 1.6 2 -2.1
v 1.6 2.1 -2.1
v 1.6 2.2 -2.1
v 1.6 2.3 -2.1
v 1.6 2.4 -2.1
v 1.6 2.5 -2.1
v 1.7 2 -2.1
v 1.7 2.1 -2.1
v 1.7 2.2 -2.1
v 1.7 2.3 -2.1
v 1.7 2.4 -2.1
v 1.7 2.5 -2.1
v 1.8 2.2 -2.1
v 1.8 2.3 -2.1
v 1.8 2.4 -2.1
v 1.8 2.5 -2.1
v 1.9 2 -2.1
v 1.9 2.1 -2.1
v 1.9 2.2 -2.1
v 1.9 2.3 -2.1
v 1.9 2.4 -2.1
v 2 2.1 -2.1
v 2 2.2 -2.1
v 2 2.3 -2.1
v 2 2.4 -2.1
v 2.1 2 -2.1
v 2.1 2.1 -2.1
v 2.1 2.3 -2.1
v 2.1 2.4 -2.1
v 2.2 2 -2.1
v 2.2 2.2 -2.1
v 2.2 2.3 -2.1
v 2.3 2 -2.1
v 2.3 2.1 -2.1
v 2.3 2.2 -2.1
v 2.3 2.3 -2.1
v 2.4 2 -2.1
v 2.4 2.1 -2.1
v 2.4 2.2 -2.1
v 2.4 2.5 -2.1
v 2.4 2.8 -2.1
v 2.4 4.1 -2.1
v 1.3 2 -1.3
v 1.4 2 -1.3
v 1.9 2 -1.3
v 2.1 2 -1.3
v 2.3 2 -1.3
v 2.4 2 -1.3
v 1.4 2 -1.4
v 1.9 2 -1.4
v 2.1 2 -1.4
v 2.3 2 -1.4
v 1.4 2 -2
v 1.6 2 -2
v 1.7 2 -2
v 1.9 2 -2
v 2.1 2 -2
v 2.2 2 -2
v 2.3 2 -2
v 1.3 2 -2.1
v 1.4 2 -2.1
v 1.6 2 -2.1
v 1.7 2 -2.1
v 1.9 2 -2.1
v 2.1 2 -2.1
v 2.2 2 -2.1
v 2.3 2 -2.1
v 2.4 2 -2.1
v 1.3 4.1 -1.3
v 2.4 4.1 -1.3
v 1.3 4.1 -2.1
v 2.4 4.1 -2.1

# faces
f 3/1/1 2/1/1 1/1/1
f 4/1/1 2/1/1 3/1/1
f 5/1/1 2/1/1 4/1/1
f 6/1/1 2/1/1 5/1/1
f 7/1/1 2/1/1 6/1/1
f 8/5/1 4/5/1 3/5/1
f 9/3/1 5/3/1 4/3/1
f 9/5/1 4/5/1 8/5/1
f 10/5/1 6/5/1 5/5/1
f 10/3/1 5/3/1 9/3/1
f 11/5/1 6/5/1 10/5/1
f 12/3/1 7/3/1 6/3/1
f 12/5/1 6/5/1 11/5/1
f 13/3/1 7/3/1 12/3/1
f 14/4/1 9/4/1 8/4/1
f 15/5/1 10/5/1 9/5/1
f 15/4/1 9/4/1 14/4/1
f 16/3/1 11/3/1 10/3/1
f 16/5/1 10/5/1 15/5/1
f 17/5/1 12/5/1 11/5/1
f 17/3/1 11/3/1 16/3/1
f 17/5/1 13/5/1 12/5/1
f 18/5/1 13/5/1 17/5/1
f 19/5/1 15/5/1 14/5/1
f 19/5/1 16/5/1 15/5/1
f 19/3/1 18/3/1 17/3/1
f 19/5/1 17/5/1 16/5/1
f 20/5/1 13/5/1 18/5/1
f 20/3/1 18/3/1 19/3/1
f 21/5/1 13/5/1 20/5/1
f 22/5/1 19/5/1 14/5/1
f 22/5/1 20/5/1 19/5/1
f 23/3/1 21/3/1 20/3/1
f 23/5/1 20/5/1 22/5/1
f 24/3/1 21/3/1 23/3/1
f 25/6/1 23/6/1 22/6/1
f 25/6/1 24/6/1 23/6/1
f 26/6/1 24/6/1 25/6/1
f 27/1/1 26/1/1 25/1/1
f 28/1/1 26/1/1 27/1/1
f 29/1/2 30/1/2 31/1/2
f 31/1/2 30/1/2 32/1/2
f 32/1/2 30/1/2 33/1/2
f 31/5/2 32/5/2 34/5/2
f 34/5/2 32/5/2 35/5/2
f 35/5/2 32/5/2 36/5/2
f 32/3/2 33/3/2 37/3/2
f 36/5/2 32/5/2 37/5/2
f 37/3/2 33/3/2 38/3/2
f 34/4/2 35/4/2 39/4/2
f 35/5/2 36/5/2 40/5/2
f 39/4/2 35/4/2 40/4/2
f 40/5/2 36/5/2 41/5/2
f 36/3/2 37/3/2 42/3/2
f 41/5/2 36/5/2 42/5/2
f 37/5/2 38/5/2 43/5/2
f 42/3/2 37/3/2 43/3/2
f 40/5/2 41/5/2 44/5/2
f 39/5/2 40/5/2 44/5/2
f 41/3/2 42/3/2 45/3/2
f 44/5/2 41/5/2 45/5/2
f 42/5/2 43/5/2 46/5/2
f 45/3/2 42/3/2 46/3/2
f 39/5/2 44/5/2 47/5/2
f 44/3/2 45/3/2 48/3/2
f 47/5/2 44/5/2 48/5/2
f 45/5/2 46/5/2 49/5/2
f 48/3/2 45/3/2 49/3/2
f 43/5/2 38/5/2 50/5/2
f 49/5/2 46/5/2 50/5/2
f 46/5/2 43/5/2 50/5/2
f 48/6/2 49/6/2 51/6/2
f 47/6/2 48/6/2 51/6/2
f 49/6/2 50/6/2 51/6/2
f 51/6/2 50/6/2 52/6/2
f 51/1/2 52/1/2 53/1/2
f 53/1/2 52/1/2 54/1/2
f 62/1/3 56/1/3 55/1/3
f 63/5/3 57/5/3 56/5/3
f 63/1/3 56/1/3 62/1/3
f 64/4/3 58/4/3 57/4/3
f 64/5/3 57/5/3 63/5/3
f 65/5/3 59/5/3 58/5/3
f 65/4/3 58/4/3 64/4/3
f 66/5/3 59/5/3 65/5/3
f 67/1/3 61/1/3 60/1/3
f 68/1/3 61/1/3 67/1/3
f 69/5/3 63/5/3 62/5/3
f 69/4/3 64/4/3 63/4/3
f 69/4/3 65/4/3 64/4/3
f 69/4/3 66/4/3 65/4/3
f 70/4/3 66/4/3 69/4/3
f 71/4/3 66/4/3 70/4/3
f 72/5/3 59/5/3 66/5/3
f 72/4/3 66/4/3 71/4/3
f 73/6/3 60/6/3 59/6/3
f 73/5/3 59/5/3 72/5/3
f 74/1/3 67/1/3 60/1/3
f 75/1/3 67/1/3 74/1/3
f 76/5/3 69/5/3 62/5/3
f 76/5/3 70/5/3 69/5/3
f 77/4/3 71/4/3 70/4/3
f 77/5/3 70/5/3 76/5/3
f 78/5/3 72/5/3 71/5/3
f 78/4/3 71/4/3 77/4/3
f 79/3/3 73/3/3 72/3/3
f 79/5/3 72/5/3 78/5/3
f 80/6/3 60/6/3 73/6/3
f 80/3/3 73/3/3 79/3/3
f 81/5/3 76/5/3 62/5/3
f 81/3/3 77/3/3 76/3/3
f 82/5/3 78/5/3 77/5/3
f 82/3/3 77/3/3 81/3/3
f 83/3/3 79/3/3 78/3/3
f 83/5/3 78/5/3 82/5/3
f 84/5/3 80/5/3 79/5/3
f 84/3/3 79/3/3 83/3/3
f 85/6/3 60/6/3 80/6/3
f 85/5/3 80/5/3 84/5/3
f 86/1/3 74/1/3 60/1/3
f 86/6/3 60/6/3 85/6/3
f 87/1/3 74/1/3 86/1/3
f 88/2/3 75/2/3 74/2/3
f 88/1/3 74/1/3 87/1/3
f 89/1/3 67/1/3 75/1/3
f 89/2/3 75/2/3 88/2/3
f 90/2/3 68/2/3 67/2/3
f 90/1/3 67/1/3 89/1/3
f 91/1/3 61/1/3 68/1/3
f 91/2/3 68/2/3 90/2/3
f 92/1/3 61/1/3 91/1/3
f 93/5/3 82/5/3 81/5/3
f 93/5/3 81/5/3 62/5/3
f 94/3/3 83/3/3 82/3/3
f 94/5/3 82/5/3 93/5/3
f 95/5/3 84/5/3 83/5/3
f 95/3/3 83/3/3 94/3/3
f 95/5/3 85/5/3 84/5/3
f 96/5/3 85/5/3 95/5/3
f 97/5/3 93/5/3 62/5/3
f 98/3/3 94/3/3 93/3/3
f 98/5/3 93/5/3 97/5/3
f 99/5/3 95/5/3 94/5/3
f 99/3/3 94/3/3 98/3/3
f 100/5/3 85/5/3 96/5/3
f 100/3/3 96/3/3 95/3/3
f 101/7/3 86/7/3 85/7/3
f 101/5/3 85/5/3 100/5/3
f 102/5/3 95/5/3 99/5/3
f 102/3/3 100/3/3 95/3/3
f 102/3/3 101/3/3 100/3/3
f 102/5/3 99/5/3 98/5/3
f 103/7/3 86/7/3 101/7/3
f 103/3/3 101/3/3 102/3/3
f 104/1/3 87/1/3 86/1/3
f 104/7/3 86/7/3 103/7/3
f 105/2/3 90/2/3 89/2/3
f 105/1/3 87/1/3 104/1/3
f 105/2/3 89/2/3 88/2/3
f 105/2/3 88/2/3 87/2/3
f 105/2/3 91/2/3 90/2/3
f 105/2/3 92/2/3 91/2/3
f 106/2/3 92/2/3 105/2/3
f 107/2/3 92/2/3 106/2/3
f 108/2/3 92/2/3 107/2/3
f 109/2/3 92/2/3 108/2/3
f 110/1/3 61/1/3 92/1/3
f 110/2/3 92/2/3 109/2/3
f 111/3/3 98/3/3 97/3/3
f 112/5/3 102/5/3 98/5/3
f 112/3/3 98/3/3 111/3/3
f 112/5/3 103/5/3 102/5/3
f 113/5/3 103/5/3 112/5/3
f 114/5/3 103/5/3 113/5/3
f 115/5/3 112/5/3 111/5/3
f 115/5/3 113/5/3 112/5/3
f 116/4/3 114/4/3 113/4/3
f 116/5/3 113/5/3 115/5/3
f 117/5/3 103/5/3 114/5/3
f 117/4/3 114/4/3 116/4/3
f 118/5/3 103/5/3 117/5/3
f 119/1/3 105/1/3 104/1/3
f 119/1/3 106/1/3 105/1/3
f 119/2/3 107/2/3 106/2/3
f 120/1/3 108/1/3 107/1/3
f 120/2/3 107/2/3 119/2/3
f 121/5/3 115/5/3 111/5/3
f 122/4/3 118/4/3 117/4/3
f 122/5/3 115/5/3 121/5/3
f 122/4/3 117/4/3 116/4/3
f 122/4/3 116/4/3 115/4/3
f 123/4/3 118/4/3 122/4/3
f 124/4/3 118/4/3 123/4/3
f 125/5/3 103/5/3 118/5/3
f 125/4/3 118/4/3 124/4/3
f 126/2/3 109/2/3 108/2/3
f 126/1/3 120/1/3 119/1/3
f 126/1/3 108/1/3 120/1/3
f 127/1/3 110/1/3 109/1/3
f 127/2/3 109/2/3 126/2/3
f 128/1/3 122/1/3 121/1/3
f 129/5/3 123/5/3 122/5/3
f 129/1/3 122/1/3 128/1/3
f 130/4/3 124/4/3 123/4/3
f 130/5/3 123/5/3 129/5/3
f 131/5/3 125/5/3 124/5/3
f 131/4/3 124/4/3 130/4/3
f 132/6/3 104/6/3 103/6/3
f 132/5/3 125/5/3 131/5/3
f 132/5/3 103/5/3 125/5/3
f 133/1/3 127/1/3 126/1/3
f 133/6/3 104/6/3 132/6/3
f 133/1/3 126/1/3 119/1/3
f 133/1/3 119/1/3 104/1/3
f 134/1/3 61/1/3 110/1/3
f 134/1/3 127/1/3 133/1/3
f 134/1/3 110/1/3 127/1/3
f 135/1/4 136/1/4 142/1/4
f 136/3/4 137/3/4 143/3/4
f 142/1/4 136/1/4 143/1/4
f 137/5/4 138/5/4 144/5/4
f 138/3/4 139/3/4 144/3/4
f 139/6/4 140/6/4 145/6/4
f 144/3/4 139/3/4 145/3/4
f 143/3/4 137/3/4 146/3/4
f 142/3/4 143/3/4 146/3/4
f 144/5/4 145/5/4 147/5/4
f 146/3/4 137/3/4 147/3/4
f 137/5/4 144/5/4 147/5/4
f 147/5/4 145/5/4 148/5/4
f 148/5/4 145/5/4 149/5/4
f 145/6/4 140/6/4 150/6/4
f 149/5/4 145/5/4 150/5/4
f 142/3/4 146/3/4 151/3/4
f 146/5/4 147/5/4 152/5/4
f 151/3/4 146/3/4 152/3/4
f 147/3/4 148/3/4 153/3/4
f 152/5/4 147/5/4 153/5/4
f 148/5/4 149/5/4 154/5/4
f 153/3/4 148/3/4 154/3/4
f 149/3/4 150/3/4 155/3/4
f 154/5/4 149/5/4 155/5/4
f 150/6/4 140/6/4 156/6/4
f 155/3/4 150/3/4 156/3/4
f 152/5/4 153/5/4 157/5/4
f 151/5/4 152/5/4 157/5/4
f 153/5/4 154/5/4 157/5/4
f 157/5/4 154/5/4 158/5/4
f 158/5/4 154/5/4 159/5/4
f 154/3/4 155/3/4 160/3/4
f 159/5/4 154/5/4 160/5/4
f 155/5/4 156/5/4 161/5/4
f 160/3/4 155/3/4 161/3/4
f 156/6/4 140/6/4 162/6/4
f 161/5/4 156/5/4 162/5/4
f 158/5/4 159/5/4 163/5/4
f 159/3/4 160/3/4 163/3/4
f 160/5/4 161/5/4 164/5/4
f 163/3/4 160/3/4 164/3/4
f 161/3/4 162/3/4 165/3/4
f 164/5/4 161/5/4 165/5/4
f 162/6/4 140/6/4 166/6/4
f 165/3/4 162/3/4 166/3/4
f 157/3/4 158/3/4 167/3/4
f 158/5/4 163/5/4 168/5/4
f 167/3/4 158/3/4 168/3/4
f 163/5/4 164/5/4 168/5/4
f 168/5/4 164/5/4 169/5/4
f 164/3/4 165/3/4 170/3/4
f 169/5/4 164/5/4 170/5/4
f 165/5/4 166/5/4 171/5/4
f 170/3/4 165/3/4 171/3/4
f 168/5/4 169/5/4 172/5/4
f 167/5/4 168/5/4 172/5/4
f 169/3/4 170/3/4 173/3/4
f 172/5/4 169/5/4 173/5/4
f 170/5/4 171/5/4 174/5/4
f 173/3/4 170/3/4 174/3/4
f 171/5/4 166/5/4 175/5/4
f 174/5/4 171/5/4 175/5/4
f 167/5/4 172/5/4 176/5/4
f 172/3/4 173/3/4 177/3/4
f 176/5/4 172/5/4 177/5/4
f 173/5/4 174/5/4 178/5/4
f 174/3/4 175/3/4 178/3/4
f 175/5/4 166/5/4 179/5/4
f 178/3/4 175/3/4 179/3/4
f 176/3/4 177/3/4 180/3/4
f 177/3/4 173/3/4 181/3/4
f 180/3/4 177/3/4 181/3/4
f 173/5/4 178/5/4 181/5/4
f 178/5/4 179/5/4 181/5/4
f 181/5/4 179/5/4 182/5/4
f 180/5/4 181/5/4 183/5/4
f 183/5/4 181/5/4 184/5/4
f 181/3/4 182/3/4 185/3/4
f 184/5/4 181/5/4 185/5/4
f 182/5/4 179/5/4 186/5/4
f 185/3/4 182/3/4 186/3/4
f 183/1/4 184/1/4 187/1/4
f 184/3/4 185/3/4 188/3/4
f 187/1/4 184/1/4 188/1/4
f 185/5/4 186/5/4 189/5/4
f 188/3/4 185/3/4 189/3/4
f 179/5/4 166/5/4 190/5/4
f 189/5/4 186/5/4 190/5/4
f 166/6/4 140/6/4 190/6/4
f 186/5/4 179/5/4 190/5/4
f 140/1/4 141/1/4 191/1/4
f 190/6/4 140/6/4 191/6/4
f 191/1/4 141/1/4 192/1/4
f 199/1/5 194/1/5 193/1/5
f 199/5/5 195/5/5 194/5/5
f 200/3/5 196/3/5 195/3/5
f 200/5/5 195/5/5 199/5/5
f 201/5/5 197/5/5 196/5/5
f 201/3/5 196/3/5 200/3/5
f 202/1/5 198/1/5 197/1/5
f 202/5/5 197/5/5 201/5/5
f 203/1/5 201/1/5 200/1/5
f 203/1/5 200/1/5 199/1/5
f 203/1/5 202/1/5 201/1/5
f 203/1/5 199/1/5 193/1/5
f 204/1/5 202/1/5 203/1/5
f 205/1/5 202/1/5 204/1/5
f 206/1/5 202/1/5 205/1/5
f 207/1/5 202/1/5 206/1/5
f 208/1/5 202/1/5 207/1/5
f 209/1/5 198/1/5 202/1/5
f 209/1/5 202/1/5 208/1/5
f 210/1/5 203/1/5 193/1/5
f 211/3/5 204/3/5 203/3/5
f 211/1/5 203/1/5 210/1/5
f 212/5/5 205/5/5 204/5/5
f 212/3/5 204/3/5 211/3/5
f 213/3/5 206/3/5 205/3/5
f 213/5/5 205/5/5 212/5/5
f 214/5/5 207/5/5 206/5/5
f 214/3/5 206/3/5 213/3/5
f 215/3/5 208/3/5 207/3/5
f 215/5/5 207/5/5 214/5/5
f 216/5/5 209/5/5 208/5/5
f 216/3/5 208/3/5 215/3/5
f 217/1/5 198/1/5 209/1/5
f 217/5/5 209/5/5 216/5/5
f 218/1/5 198/1/5 217/1/5
f 219/1/6 220/1/6 221/1/6
f 221/1/6 220/1/6 222/1/6
