# Blender v3.0.1 OBJ File: 'lamp.blend'
# www.blender.org
mtllib lamp.mtl
o Cube
v 1.313186 22.010815 -1.313186
v 1.313186 0.085792 -1.313186
v 1.313186 22.010815 1.313186
v 1.313186 0.085792 1.313186
v -1.313186 22.010815 -1.313186
v -1.313186 0.085792 -1.313186
v -1.313186 22.010815 1.313186
v -1.313186 0.085792 1.313186
vt 0.245290 0.814980
vt 0.319075 0.814980
vt 0.319075 0.878173
vt 0.245290 0.878173
vt 0.171505 0.878173
vt 0.245290 0.941365
vt 0.171505 0.941365
vt 0.171505 0.688595
vt 0.245290 0.688595
vt 0.245290 0.751788
vt 0.171505 0.751788
vt 0.097720 0.814980
vt 0.171505 0.814980
vt 0.097720 0.878173
vn 0.0000 1.0000 0.0000
vn 0.0000 0.0000 1.0000
vn -1.0000 0.0000 0.0000
vn 0.0000 -1.0000 0.0000
vn 1.0000 0.0000 0.0000
vn 0.0000 0.0000 -1.0000
usemtl Material
s off
f 1/1/1 5/2/1 7/3/1 3/4/1
f 4/5/2 3/4/2 7/6/2 8/7/2
f 8/8/3 7/9/3 5/10/3 6/11/3
f 6/12/4 2/13/4 4/5/4 8/14/4
f 2/13/5 1/1/5 3/4/5 4/5/5
f 6/11/6 5/10/6 1/1/6 2/13/6
o Cube.2_Cube.001
v 3.694555 9.537240 -8.850756
v 3.694555 9.483922 9.916939
v 3.694555 24.644997 -8.807835
v 3.694555 24.591679 9.959860
v 0.584199 9.537240 -8.850756
v 0.584199 9.483922 9.916939
v 0.584199 24.644997 -8.807835
v 0.584199 24.591679 9.959860
vt 0.223220 0.505859
vt 0.271224 0.505859
vt 0.271224 0.553863
vt 0.223220 0.553863
vt 0.175217 0.553863
vt 0.223220 0.601866
vt 0.175217 0.601866
vt 0.175217 0.409853
vt 0.223220 0.409853
vt 0.223220 0.457856
vt 0.175217 0.457856
vt 0.127214 0.505859
vt 0.175217 0.505859
vt 0.127214 0.553863
vn 0.0000 0.0028 -1.0000
vn 0.0000 1.0000 0.0028
vn -1.0000 0.0000 0.0000
vn 0.0000 -0.0028 1.0000
vn 1.0000 0.0000 0.0000
vn 0.0000 -1.0000 -0.0028
usemtl Material.001
s off
f 9/15/7 13/16/7 15/17/7 11/18/7
f 12/19/8 11/18/8 15/20/8 16/21/8
f 16/22/9 15/23/9 13/24/9 14/25/9
f 14/26/10 10/27/10 12/19/10 16/28/10
f 10/27/11 9/15/11 11/18/11 12/19/11
f 14/25/12 13/24/12 9/15/12 10/27/12
o Cube.003_Cube.016
v 4.899151 17.335728 7.628063
v 4.899151 22.741096 7.628063
v 4.899151 17.335728 0.900887
v 4.899151 22.741096 0.900887
v 2.596552 17.335728 7.628063
v 2.596552 22.741096 7.628063
v 2.596552 17.335728 0.900887
v 2.596552 22.741096 0.900887
vt 0.180954 0.085091
vt 0.180954 0.139977
vt 0.235840 0.139977
vt 0.235840 0.085091
vt 0.180954 0.194863
vt 0.235840 0.194863
vt 0.180954 0.249749
vt 0.235840 0.249749
vt 0.180954 0.304635
vt 0.235840 0.304635
vt 0.126068 0.194863
vt 0.126068 0.249749
vt 0.290726 0.249749
vt 0.290726 0.194863
vn 1.0000 0.0000 0.0000
vn 0.0000 0.0000 -1.0000
vn -1.0000 0.0000 0.0000
vn 0.0000 0.0000 1.0000
vn 0.0000 -1.0000 0.0000
vn 0.0000 1.0000 0.0000
usemtl Material.016
s off
f 17/29/13 19/30/13 20/31/13 18/32/13
f 19/30/14 23/33/14 24/34/14 20/31/14
f 23/33/15 21/35/15 22/36/15 24/34/15
f 21/35/16 17/37/16 18/38/16 22/36/16
f 19/39/17 17/40/17 21/35/17 23/33/17
f 24/34/18 22/36/18 18/41/18 20/42/18
o Cube.004_Cube.017
v 4.899151 17.335728 -0.423756
v 4.899151 22.741096 -0.423756
v 4.899151 17.335728 -7.150932
v 4.899151 22.741096 -7.150932
v 2.596552 17.335728 -0.423756
v 2.596552 22.741096 -0.423756
v 2.596552 17.335728 -7.150932
v 2.596552 22.741096 -7.150932
vt 0.180954 0.085091
vt 0.180954 0.139977
vt 0.235840 0.139977
vt 0.235840 0.085091
vt 0.180954 0.194863
vt 0.235840 0.194863
vt 0.180954 0.249749
vt 0.235840 0.249749
vt 0.180954 0.304635
vt 0.235840 0.304635
vt 0.126068 0.194863
vt 0.126068 0.249749
vt 0.290726 0.249749
vt 0.290726 0.194863
vn 1.0000 0.0000 0.0000
vn 0.0000 0.0000 -1.0000
vn -1.0000 0.0000 0.0000
vn 0.0000 0.0000 1.0000
vn 0.0000 -1.0000 0.0000
vn 0.0000 1.0000 0.0000
usemtl Material.017
s off
f 25/43/19 27/44/19 28/45/19 26/46/19
f 27/44/20 31/47/20 32/48/20 28/45/20
f 31/47/21 29/49/21 30/50/21 32/48/21
f 29/49/22 25/51/22 26/52/22 30/50/22
f 27/53/23 25/54/23 29/49/23 31/47/23
f 32/48/24 30/50/24 26/55/24 28/56/24
o Cube.005_Cube.018
v 4.899151 10.975267 7.598304
v 4.899151 16.380636 7.598304
v 4.899151 10.975267 0.871128
v 4.899151 16.380636 0.871128
v 2.596552 10.975267 7.598304
v 2.596552 16.380636 7.598304
v 2.596552 10.975267 0.871128
v 2.596552 16.380636 0.871128
vt 0.180954 0.085091
vt 0.180954 0.139977
vt 0.235840 0.139977
vt 0.235840 0.085091
vt 0.180954 0.194863
vt 0.235840 0.194863
vt 0.180954 0.249749
vt 0.235840 0.249749
vt 0.180954 0.304635
vt 0.235840 0.304635
vt 0.126068 0.194863
vt 0.126068 0.249749
vt 0.290726 0.249749
vt 0.290726 0.194863
vn 1.0000 0.0000 0.0000
vn 0.0000 0.0000 -1.0000
vn -1.0000 0.0000 0.0000
vn 0.0000 0.0000 1.0000
vn 0.0000 -1.0000 0.0000
vn 0.0000 1.0000 0.0000
usemtl Material.018
s off
f 33/57/25 35/58/25 36/59/25 34/60/25
f 35/58/26 39/61/26 40/62/26 36/59/26
f 39/61/27 37/63/27 38/64/27 40/62/27
f 37/63/28 33/65/28 34/66/28 38/64/28
f 35/67/29 33/68/29 37/63/29 39/61/29
f 40/62/30 38/64/30 34/69/30 36/70/30
o Cube.006_Cube.019
v 4.899151 11.069706 -0.649035
v 4.899151 16.475075 -0.649035
v 4.899151 11.069706 -7.376211
v 4.899151 16.475075 -7.376211
v 2.596552 11.069706 -0.649035
v 2.596552 16.475075 -0.649035
v 2.596552 11.069706 -7.376211
v 2.596552 16.475075 -7.376211
vt 0.180954 0.085091
vt 0.180954 0.139977
vt 0.235840 0.139977
vt 0.235840 0.085091
vt 0.180954 0.194863
vt 0.235840 0.194863
vt 0.180954 0.249749
vt 0.235840 0.249749
vt 0.180954 0.304635
vt 0.235840 0.304635
vt 0.126068 0.194863
vt 0.126068 0.249749
vt 0.290726 0.249749
vt 0.290726 0.194863
vn 1.0000 0.0000 0.0000
vn 0.0000 0.0000 -1.0000
vn -1.0000 0.0000 0.0000
vn 0.0000 0.0000 1.0000
vn 0.0000 -1.0000 0.0000
vn 0.0000 1.0000 0.0000
usemtl Material.019
s off
f 41/71/31 43/72/31 44/73/31 42/74/31
f 43/72/32 47/75/32 48/76/32 44/73/32
f 47/75/33 45/77/33 46/78/33 48/76/33
f 45/77/34 41/79/34 42/80/34 46/78/34
f 43/81/35 41/82/35 45/77/35 47/75/35
f 48/76/36 46/78/36 42/83/36 44/84/36
o Cube.008_Cube.021
v 3.683568 18.330658 -1.683568
v 3.683568 22.002129 -1.683568
v 3.683568 18.330658 -5.957273
v 3.683568 22.002129 -5.957273
v 6.019667 18.330658 -1.683568
v 6.019667 22.002129 -1.683568
v 6.019667 18.330658 -5.957273
v 6.019667 22.002129 -5.957273
vt 0.614584 0.718055
vt 0.667552 0.718055
vt 0.667552 0.771023
vt 0.614584 0.771023
vt 0.667552 0.823991
vt 0.614584 0.823991
vt 0.667552 0.876959
vt 0.614584 0.876959
vt 0.667552 0.929927
vt 0.614584 0.929927
vt 0.561616 0.823991
vt 0.561616 0.876959
vt 0.720520 0.823991
vt 0.720520 0.876959
vn -1.0000 0.0000 0.0000
vn 0.0000 0.0000 -1.0000
vn 1.0000 0.0000 0.0000
vn 0.0000 0.0000 1.0000
vn 0.0000 -1.0000 0.0000
vn 0.0000 1.0000 0.0000
usemtl Material.021
s off
f 49/85/37 50/86/37 52/87/37 51/88/37
f 51/88/38 52/87/38 56/89/38 55/90/38
f 55/90/39 56/89/39 54/91/39 53/92/39
f 53/92/40 54/91/40 50/93/40 49/94/40
f 51/95/41 55/90/41 53/92/41 49/96/41
f 56/89/42 52/97/42 50/98/42 54/91/42
o Cube.009_Cube.022
v 3.683568 18.330658 6.520489
v 3.683568 22.002129 6.520489
v 3.683568 18.330658 2.246783
v 3.683568 22.002129 2.246783
v 6.019667 18.330658 6.520489
v 6.019667 22.002129 6.520489
v 6.019667 18.330658 2.246783
v 6.019667 22.002129 2.246783
vt 0.614584 0.718055
vt 0.667552 0.718055
vt 0.667552 0.771023
vt 0.614584 0.771023
vt 0.667552 0.823991
vt 0.614584 0.823991
vt 0.667552 0.876959
vt 0.614584 0.876959
vt 0.667552 0.929927
vt 0.614584 0.929927
vt 0.561616 0.823991
vt 0.561616 0.876959
vt 0.720520 0.823991
vt 0.720520 0.876959
vn -1.0000 0.0000 0.0000
vn 0.0000 0.0000 -1.0000
vn 1.0000 0.0000 0.0000
vn 0.0000 0.0000 1.0000
vn 0.0000 -1.0000 0.0000
vn 0.0000 1.0000 0.0000
usemtl Material.022
s off
f 57/99/43 58/100/43 60/101/43 59/102/43
f 59/102/44 60/101/44 64/103/44 63/104/44
f 63/104/45 64/103/45 62/105/45 61/106/45
f 61/106/46 62/105/46 58/107/46 57/108/46
f 59/109/47 63/104/47 61/106/47 57/110/47
f 64/103/48 60/111/48 58/112/48 62/105/48
o Cube.011_Cube.024
v 3.683568 11.715095 6.421183
v 3.683568 15.386565 6.421183
v 3.683568 11.715095 2.147477
v 3.683568 15.386565 2.147477
v 6.019667 11.715095 6.421183
v 6.019667 15.386565 6.421183
v 6.019667 11.715095 2.147477
v 6.019667 15.386565 2.147477
vt 0.614584 0.718055
vt 0.667552 0.718055
vt 0.667552 0.771023
vt 0.614584 0.771023
vt 0.667552 0.823991
vt 0.614584 0.823991
vt 0.667552 0.876959
vt 0.614584 0.876959
vt 0.667552 0.929927
vt 0.614584 0.929927
vt 0.561616 0.823991
vt 0.561616 0.876959
vt 0.720520 0.823991
vt 0.720520 0.876959
vn -1.0000 0.0000 0.0000
vn 0.0000 0.0000 -1.0000
vn 1.0000 0.0000 0.0000
vn 0.0000 0.0000 1.0000
vn 0.0000 -1.0000 0.0000
vn 0.0000 1.0000 0.0000
usemtl Material.024
s off
f 65/113/49 66/114/49 68/115/49 67/116/49
f 67/116/50 68/115/50 72/117/50 71/118/50
f 71/118/51 72/117/51 70/119/51 69/120/51
f 69/120/52 70/119/52 66/121/52 65/122/52
f 67/123/53 71/118/53 69/120/53 65/124/53
f 72/117/54 68/125/54 66/126/54 70/119/54
o Cube.012_Cube.025
v 4.832725 11.889965 -1.565852
v 4.832725 15.561436 -1.565852
v 4.832725 11.889965 -5.839558
v 4.832725 15.561436 -5.839558
v 6.017118 11.889965 -1.565852
v 6.017118 15.561436 -1.565852
v 6.017118 11.889965 -5.839558
v 6.017118 15.561436 -5.839558
vt 0.614584 0.718055
vt 0.667552 0.718055
vt 0.667552 0.771023
vt 0.614584 0.771023
vt 0.667552 0.823991
vt 0.614584 0.823991
vt 0.667552 0.876959
vt 0.614584 0.876959
vt 0.667552 0.929927
vt 0.614584 0.929927
vt 0.561616 0.823991
vt 0.561616 0.876959
vt 0.720520 0.823991
vt 0.720520 0.876959
vn -1.0000 0.0000 0.0000
vn 0.0000 0.0000 -1.0000
vn 1.0000 0.0000 0.0000
vn 0.0000 0.0000 1.0000
vn 0.0000 -1.0000 0.0000
vn 0.0000 1.0000 0.0000
usemtl Material.025
s off
f 73/127/55 74/128/55 76/129/55 75/130/55
f 75/130/56 76/129/56 80/131/56 79/132/56
f 79/132/57 80/131/57 78/133/57 77/134/57
f 77/134/58 78/133/58 74/135/58 73/136/58
f 75/137/59 79/132/59 77/134/59 73/138/59
f 80/131/60 76/139/60 74/140/60 78/133/60
