# MagicaVoxel @ Ephtracy

# group
o 

# material
mtllib loop_mitad_abajo.mtl
usemtl palette

# normals
vn -1 0 0
vn 1 0 0
vn 0 0 1
vn 0 0 -1
vn 0 -1 0
vn 0 1 0

# texcoords
vt 0.970703 0.5
vt 0.974609 0.5

# verts
v -4.6 0.1 0.4
v -4.6 0.1 -0.4
v -4.6 1.6 0.4
v -4.6 1.6 -0.4
v -4.6 3.1 0.4
v -4.6 3.1 -0.4
v -4.6 4.6 0.4
v -4.6 4.6 -0.4
v -4.6 6.1 0.4
v -4.6 6.1 -0.4
v -4.6 7.6 0.4
v -4.6 7.6 -0.4
v -2.2 5.5 0.4
v -2.2 5.5 -0.4
v -2.2 6.1 0.4
v -2.2 6.1 -0.4
v -2.2 7.6 0.4
v -2.2 7.6 -0.4
v -2.1 5 0.4
v -2.1 5 -0.4
v -2.1 5.5 0.4
v -2.1 5.5 -0.4
v -2 4.6 0.4
v -2 4.6 -0.4
v -2 5 0.4
v -2 5 -0.4
v -1.9 4.3 0.4
v -1.9 4.3 -0.4
v -1.9 4.6 0.4
v -1.9 4.6 -0.4
v -1.8 4.1 0.4
v -1.8 4.1 -0.4
v -1.8 4.3 0.4
v -1.8 4.3 -0.4
v -1.7 3.8 0.4
v -1.7 3.8 -0.4
v -1.7 4.1 0.4
v -1.7 4.1 -0.4
v -1.6 3.6 0.4
v -1.6 3.6 -0.4
v -1.6 3.8 0.4
v -1.6 3.8 -0.4
v -1.5 3.5 0.4
v -1.5 3.5 -0.4
v -1.5 3.6 0.4
v -1.5 3.6 -0.4
v -1.4 3.3 0.4
v -1.4 3.3 -0.4
v -1.4 3.5 0.4
v -1.4 3.5 -0.4
v -1.3 3.1 0.4
v -1.3 3.1 -0.4
v -1.3 3.3 0.4
v -1.3 3.3 -0.4
v -1.2 3 0.4
v -1.2 3 -0.4
v -1.2 3.1 0.4
v -1.2 3.1 -0.4
v -1.1 2.9 0.4
v -1.1 2.9 -0.4
v -1.1 3 0.4
v -1.1 3 -0.4
v -1 2.7 0.4
v -1 2.7 -0.4
v -1 2.9 0.4
v -1 2.9 -0.4
v -0.9 2.6 0.4
v -0.9 2.6 -0.4
v -0.9 2.7 0.4
v -0.9 2.7 -0.4
v -0.8 2.5 0.4
v -0.8 2.5 -0.4
v -0.8 2.6 0.4
v -0.8 2.6 -0.4
v -0.7 2.4 0.4
v -0.7 2.4 -0.4
v -0.7 2.5 0.4
v -0.7 2.5 -0.4
v -0.6 2.3 0.4
v -0.6 2.3 -0.4
v -0.6 2.4 0.4
v -0.6 2.4 -0.4
v -0.5 2.2 0.4
v -0.5 2.2 -0.4
v -0.5 2.3 0.4
v -0.5 2.3 -0.4
v -0.4 2.1 0.4
v -0.4 2.1 -0.4
v -0.4 2.2 0.4
v -0.4 2.2 -0.4
v -0.3 2 0.4
v -0.3 2 -0.4
v -0.3 2.1 0.4
v -0.3 2.1 -0.4
v -0.2 1.9 0.4
v -0.2 1.9 -0.4
v -0.2 2 0.4
v -0.2 2 -0.4
v 4.76837e-07 1.8 0.4
v 4.76837e-07 1.8 -0.4
v 4.76837e-07 1.9 0.4
v 4.76837e-07 1.9 -0.4
v 0.1 1.7 0.4
v 0.1 1.7 -0.4
v 0.1 1.8 0.4
v 0.1 1.8 -0.4
v 0.2 1.6 0.4
v 0.2 1.6 -0.4
v 0.2 1.7 0.4
v 0.2 1.7 -0.4
v 0.4 1.5 0.4
v 0.4 1.5 -0.4
v 0.4 1.6 0.4
v 0.4 1.6 -0.4
v 0.6 1.4 0.4
v 0.6 1.4 -0.4
v 0.6 1.5 0.4
v 0.6 1.5 -0.4
v 0.7 1.3 0.4
v 0.7 1.3 -0.4
v 0.7 1.4 0.4
v 0.7 1.4 -0.4
v 0.9 1.2 0.4
v 0.9 1.2 -0.4
v 0.9 1.3 0.4
v 0.9 1.3 -0.4
v 1.2 1.1 0.4
v 1.2 1.1 -0.4
v 1.2 1.2 0.4
v 1.2 1.2 -0.4
v 1.4 1 0.4
v 1.4 1 -0.4
v 1.4 1.1 0.4
v 1.4 1.1 -0.4
v 1.7 0.9 0.4
v 1.7 0.9 -0.4
v 1.7 1 0.4
v 1.7 1 -0.4
v 2.1 0.8 0.4
v 2.1 0.8 -0.4
v 2.1 0.9 0.4
v 2.1 0.9 -0.4
v 2.6 0.7 0.4
v 2.6 0.7 -0.4
v 2.6 0.8 0.4
v 2.6 0.8 -0.4
v 4.4 0.1 0.4
v 4.4 0.1 -0.4
v 4.4 0.7 0.4
v 4.4 0.7 -0.4
v -4.6 0.1 0.4
v -4.6 1.6 0.4
v -4.6 3.1 0.4
v -4.6 4.6 0.4
v -4.6 6.1 0.4
v -4.6 7.6 0.4
v -3.1 0.1 0.4
v -3.1 1.6 0.4
v -3.1 3.1 0.4
v -3.1 4.6 0.4
v -3.1 6.1 0.4
v -3.1 7.6 0.4
v -2.2 5.5 0.4
v -2.2 6.1 0.4
v -2.2 7.6 0.4
v -2.1 5 0.4
v -2.1 5.5 0.4
v -2 4.6 0.4
v -2 5 0.4
v -1.9 4.3 0.4
v -1.9 4.6 0.4
v -1.8 4.1 0.4
v -1.8 4.3 0.4
v -1.7 3.8 0.4
v -1.7 4.1 0.4
v -1.6 0.1 0.4
v -1.6 1.6 0.4
v -1.6 3.1 0.4
v -1.6 3.6 0.4
v -1.6 3.8 0.4
v -1.5 3.5 0.4
v -1.5 3.6 0.4
v -1.4 3.3 0.4
v -1.4 3.5 0.4
v -1.3 3.1 0.4
v -1.3 3.3 0.4
v -1.2 3 0.4
v -1.2 3.1 0.4
v -1.1 2.9 0.4
v -1.1 3 0.4
v -1 2.7 0.4
v -1 2.9 0.4
v -0.9 2.6 0.4
v -0.9 2.7 0.4
v -0.8 2.5 0.4
v -0.8 2.6 0.4
v -0.7 2.4 0.4
v -0.7 2.5 0.4
v -0.6 2.3 0.4
v -0.6 2.4 0.4
v -0.5 2.2 0.4
v -0.5 2.3 0.4
v -0.4 2.1 0.4
v -0.4 2.2 0.4
v -0.3 2 0.4
v -0.3 2.1 0.4
v -0.2 1.9 0.4
v -0.2 2 0.4
v -0.0999999 0.1 0.4
v -0.0999999 1.6 0.4
v -0.0999999 1.9 0.4
v 4.76837e-07 1.8 0.4
v 4.76837e-07 1.9 0.4
v 0.1 1.7 0.4
v 0.1 1.8 0.4
v 0.2 1.6 0.4
v 0.2 1.7 0.4
v 0.4 1.5 0.4
v 0.4 1.6 0.4
v 0.6 1.4 0.4
v 0.6 1.5 0.4
v 0.7 1.3 0.4
v 0.7 1.4 0.4
v 0.9 1.2 0.4
v 0.9 1.3 0.4
v 1.2 1.1 0.4
v 1.2 1.2 0.4
v 1.4 0.1 0.4
v 1.4 1 0.4
v 1.4 1.1 0.4
v 1.7 0.9 0.4
v 1.7 1 0.4
v 2.1 0.8 0.4
v 2.1 0.9 0.4
v 2.6 0.7 0.4
v 2.6 0.8 0.4
v 2.9 0.1 0.4
v 2.9 0.7 0.4
v 4.4 0.1 0.4
v 4.4 0.7 0.4
v -4.6 0.1 -0.4
v -4.6 1.6 -0.4
v -4.6 3.1 -0.4
v -4.6 4.6 -0.4
v -4.6 6.1 -0.4
v -4.6 7.6 -0.4
v -3.1 0.1 -0.4
v -3.1 1.6 -0.4
v -3.1 3.1 -0.4
v -3.1 4.6 -0.4
v -3.1 6.1 -0.4
v -3.1 7.6 -0.4
v -2.2 5.5 -0.4
v -2.2 6.1 -0.4
v -2.2 7.6 -0.4
v -2.1 5 -0.4
v -2.1 5.5 -0.4
v -2 4.6 -0.4
v -2 5 -0.4
v -1.9 4.3 -0.4
v -1.9 4.6 -0.4
v -1.8 4.1 -0.4
v -1.8 4.3 -0.4
v -1.7 3.8 -0.4
v -1.7 4.1 -0.4
v -1.6 0.1 -0.4
v -1.6 1.6 -0.4
v -1.6 3.1 -0.4
v -1.6 3.6 -0.4
v -1.6 3.8 -0.4
v -1.5 3.5 -0.4
v -1.5 3.6 -0.4
v -1.4 3.3 -0.4
v -1.4 3.5 -0.4
v -1.3 3.1 -0.4
v -1.3 3.3 -0.4
v -1.2 3 -0.4
v -1.2 3.1 -0.4
v -1.1 2.9 -0.4
v -1.1 3 -0.4
v -1 2.7 -0.4
v -1 2.9 -0.4
v -0.9 2.6 -0.4
v -0.9 2.7 -0.4
v -0.8 2.5 -0.4
v -0.8 2.6 -0.4
v -0.7 2.4 -0.4
v -0.7 2.5 -0.4
v -0.6 2.3 -0.4
v -0.6 2.4 -0.4
v -0.5 2.2 -0.4
v -0.5 2.3 -0.4
v -0.4 2.1 -0.4
v -0.4 2.2 -0.4
v -0.3 2 -0.4
v -0.3 2.1 -0.4
v -0.2 1.9 -0.4
v -0.2 2 -0.4
v -0.0999999 0.1 -0.4
v -0.0999999 1.6 -0.4
v -0.0999999 1.9 -0.4
v 4.76837e-07 1.8 -0.4
v 4.76837e-07 1.9 -0.4
v 0.1 1.7 -0.4
v 0.1 1.8 -0.4
v 0.2 1.6 -0.4
v 0.2 1.7 -0.4
v 0.4 1.5 -0.4
v 0.4 1.6 -0.4
v 0.6 1.4 -0.4
v 0.6 1.5 -0.4
v 0.7 1.3 -0.4
v 0.7 1.4 -0.4
v 0.9 1.2 -0.4
v 0.9 1.3 -0.4
v 1.2 1.1 -0.4
v 1.2 1.2 -0.4
v 1.4 0.1 -0.4
v 1.4 1 -0.4
v 1.4 1.1 -0.4
v 1.7 0.9 -0.4
v 1.7 1 -0.4
v 2.1 0.8 -0.4
v 2.1 0.9 -0.4
v 2.6 0.7 -0.4
v 2.6 0.8 -0.4
v 2.9 0.1 -0.4
v 2.9 0.7 -0.4
v 4.4 0.1 -0.4
v 4.4 0.7 -0.4
v -4.6 0.1 0.4
v -3.1 0.1 0.4
v -1.6 0.1 0.4
v -0.0999999 0.1 0.4
v 1.4 0.1 0.4
v 2.9 0.1 0.4
v 4.4 0.1 0.4
v -4.6 0.1 -0.4
v -3.1 0.1 -0.4
v -1.6 0.1 -0.4
v -0.0999999 0.1 -0.4
v 1.4 0.1 -0.4
v 2.9 0.1 -0.4
v 4.4 0.1 -0.4
v 2.6 0.7 0.4
v 2.9 0.7 0.4
v 4.4 0.7 0.4
v 2.6 0.7 -0.4
v 2.9 0.7 -0.4
v 4.4 0.7 -0.4
v 2.1 0.8 0.4
v 2.6 0.8 0.4
v 2.1 0.8 -0.4
v 2.6 0.8 -0.4
v 1.7 0.9 0.4
v 2.1 0.9 0.4
v 1.7 0.9 -0.4
v 2.1 0.9 -0.4
v 1.4 1 0.4
v 1.7 1 0.4
v 1.4 1 -0.4
v 1.7 1 -0.4
v 1.2 1.1 0.4
v 1.4 1.1 0.4
v 1.2 1.1 -0.4
v 1.4 1.1 -0.4
v 0.9 1.2 0.4
v 1.2 1.2 0.4
v 0.9 1.2 -0.4
v 1.2 1.2 -0.4
v 0.7 1.3 0.4
v 0.9 1.3 0.4
v 0.7 1.3 -0.4
v 0.9 1.3 -0.4
v 0.6 1.4 0.4
v 0.7 1.4 0.4
v 0.6 1.4 -0.4
v 0.7 1.4 -0.4
v 0.4 1.5 0.4
v 0.6 1.5 0.4
v 0.4 1.5 -0.4
v 0.6 1.5 -0.4
v 0.2 1.6 0.4
v 0.4 1.6 0.4
v 0.2 1.6 -0.4
v 0.4 1.6 -0.4
v 0.1 1.7 0.4
v 0.2 1.7 0.4
v 0.1 1.7 -0.4
v 0.2 1.7 -0.4
v 4.76837e-07 1.8 0.4
v 0.1 1.8 0.4
v 4.76837e-07 1.8 -0.4
v 0.1 1.8 -0.4
v -0.2 1.9 0.4
v -0.0999999 1.9 0.4
v 4.76837e-07 1.9 0.4
v -0.2 1.9 -0.4
v -0.0999999 1.9 -0.4
v 4.76837e-07 1.9 -0.4
v -0.3 2 0.4
v -0.2 2 0.4
v -0.3 2 -0.4
v -0.2 2 -0.4
v -0.4 2.1 0.4
v -0.3 2.1 0.4
v -0.4 2.1 -0.4
v -0.3 2.1 -0.4
v -0.5 2.2 0.4
v -0.4 2.2 0.4
v -0.5 2.2 -0.4
v -0.4 2.2 -0.4
v -0.6 2.3 0.4
v -0.5 2.3 0.4
v -0.6 2.3 -0.4
v -0.5 2.3 -0.4
v -0.7 2.4 0.4
v -0.6 2.4 0.4
v -0.7 2.4 -0.4
v -0.6 2.4 -0.4
v -0.8 2.5 0.4
v -0.7 2.5 0.4
v -0.8 2.5 -0.4
v -0.7 2.5 -0.4
v -0.9 2.6 0.4
v -0.8 2.6 0.4
v -0.9 2.6 -0.4
v -0.8 2.6 -0.4
v -1 2.7 0.4
v -0.9 2.7 0.4
v -1 2.7 -0.4
v -0.9 2.7 -0.4
v -1.1 2.9 0.4
v -1 2.9 0.4
v -1.1 2.9 -0.4
v -1 2.9 -0.4
v -1.2 3 0.4
v -1.1 3 0.4
v -1.2 3 -0.4
v -1.1 3 -0.4
v -1.3 3.1 0.4
v -1.2 3.1 0.4
v -1.3 3.1 -0.4
v -1.2 3.1 -0.4
v -1.4 3.3 0.4
v -1.3 3.3 0.4
v -1.4 3.3 -0.4
v -1.3 3.3 -0.4
v -1.5 3.5 0.4
v -1.4 3.5 0.4
v -1.5 3.5 -0.4
v -1.4 3.5 -0.4
v -1.6 3.6 0.4
v -1.5 3.6 0.4
v -1.6 3.6 -0.4
v -1.5 3.6 -0.4
v -1.7 3.8 0.4
v -1.6 3.8 0.4
v -1.7 3.8 -0.4
v -1.6 3.8 -0.4
v -1.8 4.1 0.4
v -1.7 4.1 0.4
v -1.8 4.1 -0.4
v -1.7 4.1 -0.4
v -1.9 4.3 0.4
v -1.8 4.3 0.4
v -1.9 4.3 -0.4
v -1.8 4.3 -0.4
v -2 4.6 0.4
v -1.9 4.6 0.4
v -2 4.6 -0.4
v -1.9 4.6 -0.4
v -2.1 5 0.4
v -2 5 0.4
v -2.1 5 -0.4
v -2 5 -0.4
v -2.2 5.5 0.4
v -2.1 5.5 0.4
v -2.2 5.5 -0.4
v -2.1 5.5 -0.4
v -4.6 7.6 0.4
v -3.1 7.6 0.4
v -2.2 7.6 0.4
v -4.6 7.6 -0.4
v -3.1 7.6 -0.4
v -2.2 7.6 -0.4

# faces
f 3/1/1 2/1/1 1/1/1
f 4/1/1 2/1/1 3/1/1
f 5/2/1 4/2/1 3/2/1
f 6/2/1 4/2/1 5/2/1
f 7/1/1 6/1/1 5/1/1
f 8/1/1 6/1/1 7/1/1
f 9/2/1 8/2/1 7/2/1
f 10/2/1 8/2/1 9/2/1
f 11/1/1 10/1/1 9/1/1
f 12/1/1 10/1/1 11/1/1
f 13/1/2 14/1/2 15/1/2
f 15/1/2 14/1/2 16/1/2
f 15/2/2 16/2/2 17/2/2
f 17/2/2 16/2/2 18/2/2
f 19/1/2 20/1/2 21/1/2
f 21/1/2 20/1/2 22/1/2
f 23/1/2 24/1/2 25/1/2
f 25/1/2 24/1/2 26/1/2
f 27/2/2 28/2/2 29/2/2
f 29/2/2 28/2/2 30/2/2
f 31/2/2 32/2/2 33/2/2
f 33/2/2 32/2/2 34/2/2
f 35/2/2 36/2/2 37/2/2
f 37/2/2 36/2/2 38/2/2
f 39/2/2 40/2/2 41/2/2
f 41/2/2 40/2/2 42/2/2
f 43/1/2 44/1/2 45/1/2
f 45/1/2 44/1/2 46/1/2
f 47/1/2 48/1/2 49/1/2
f 49/1/2 48/1/2 50/1/2
f 51/1/2 52/1/2 53/1/2
f 53/1/2 52/1/2 54/1/2
f 55/2/2 56/2/2 57/2/2
f 57/2/2 56/2/2 58/2/2
f 59/2/2 60/2/2 61/2/2
f 61/2/2 60/2/2 62/2/2
f 63/2/2 64/2/2 65/2/2
f 65/2/2 64/2/2 66/2/2
f 67/2/2 68/2/2 69/2/2
f 69/2/2 68/2/2 70/2/2
f 71/2/2 72/2/2 73/2/2
f 73/2/2 72/2/2 74/2/2
f 75/2/2 76/2/2 77/2/2
f 77/2/2 76/2/2 78/2/2
f 79/2/2 80/2/2 81/2/2
f 81/2/2 80/2/2 82/2/2
f 83/2/2 84/2/2 85/2/2
f 85/2/2 84/2/2 86/2/2
f 87/2/2 88/2/2 89/2/2
f 89/2/2 88/2/2 90/2/2
f 91/2/2 92/2/2 93/2/2
f 93/2/2 92/2/2 94/2/2
f 95/2/2 96/2/2 97/2/2
f 97/2/2 96/2/2 98/2/2
f 99/1/2 100/1/2 101/1/2
f 101/1/2 100/1/2 102/1/2
f 103/1/2 104/1/2 105/1/2
f 105/1/2 104/1/2 106/1/2
f 107/1/2 108/1/2 109/1/2
f 109/1/2 108/1/2 110/1/2
f 111/2/2 112/2/2 113/2/2
f 113/2/2 112/2/2 114/2/2
f 115/2/2 116/2/2 117/2/2
f 117/2/2 116/2/2 118/2/2
f 119/2/2 120/2/2 121/2/2
f 121/2/2 120/2/2 122/2/2
f 123/2/2 124/2/2 125/2/2
f 125/2/2 124/2/2 126/2/2
f 127/2/2 128/2/2 129/2/2
f 129/2/2 128/2/2 130/2/2
f 131/2/2 132/2/2 133/2/2
f 133/2/2 132/2/2 134/2/2
f 135/1/2 136/1/2 137/1/2
f 137/1/2 136/1/2 138/1/2
f 139/1/2 140/1/2 141/1/2
f 141/1/2 140/1/2 142/1/2
f 143/1/2 144/1/2 145/1/2
f 145/1/2 144/1/2 146/1/2
f 147/2/2 148/2/2 149/2/2
f 149/2/2 148/2/2 150/2/2
f 157/1/3 152/1/3 151/1/3
f 158/2/3 153/2/3 152/2/3
f 158/1/3 152/1/3 157/1/3
f 159/1/3 154/1/3 153/1/3
f 159/2/3 153/2/3 158/2/3
f 160/2/3 155/2/3 154/2/3
f 160/1/3 154/1/3 159/1/3
f 161/1/3 156/1/3 155/1/3
f 161/2/3 155/2/3 160/2/3
f 162/1/3 156/1/3 161/1/3
f 163/1/3 161/1/3 160/1/3
f 164/2/3 162/2/3 161/2/3
f 164/1/3 161/1/3 163/1/3
f 165/2/3 162/2/3 164/2/3
f 166/1/3 163/1/3 160/1/3
f 167/1/3 163/1/3 166/1/3
f 168/2/3 160/2/3 159/2/3
f 168/1/3 166/1/3 160/1/3
f 169/1/3 166/1/3 168/1/3
f 170/2/3 168/2/3 159/2/3
f 171/2/3 168/2/3 170/2/3
f 172/2/3 170/2/3 159/2/3
f 173/2/3 170/2/3 172/2/3
f 174/2/3 172/2/3 159/2/3
f 175/2/3 172/2/3 174/2/3
f 176/2/3 158/2/3 157/2/3
f 177/1/3 159/1/3 158/1/3
f 177/2/3 158/2/3 176/2/3
f 178/2/3 174/2/3 159/2/3
f 178/1/3 159/1/3 177/1/3
f 179/2/3 174/2/3 178/2/3
f 180/2/3 174/2/3 179/2/3
f 181/1/3 179/1/3 178/1/3
f 182/1/3 179/1/3 181/1/3
f 183/1/3 181/1/3 178/1/3
f 184/1/3 181/1/3 183/1/3
f 185/2/3 178/2/3 177/2/3
f 185/1/3 183/1/3 178/1/3
f 186/1/3 183/1/3 185/1/3
f 187/2/3 185/2/3 177/2/3
f 188/2/3 185/2/3 187/2/3
f 189/2/3 187/2/3 177/2/3
f 190/2/3 187/2/3 189/2/3
f 191/2/3 189/2/3 177/2/3
f 192/2/3 189/2/3 191/2/3
f 193/2/3 191/2/3 177/2/3
f 194/2/3 191/2/3 193/2/3
f 195/2/3 193/2/3 177/2/3
f 196/2/3 193/2/3 195/2/3
f 197/2/3 195/2/3 177/2/3
f 198/2/3 195/2/3 197/2/3
f 199/2/3 197/2/3 177/2/3
f 200/2/3 197/2/3 199/2/3
f 201/2/3 199/2/3 177/2/3
f 202/2/3 199/2/3 201/2/3
f 203/2/3 201/2/3 177/2/3
f 204/2/3 201/2/3 203/2/3
f 205/2/3 203/2/3 177/2/3
f 206/2/3 203/2/3 205/2/3
f 207/2/3 205/2/3 177/2/3
f 208/2/3 205/2/3 207/2/3
f 209/1/3 177/1/3 176/1/3
f 210/2/3 207/2/3 177/2/3
f 210/1/3 177/1/3 209/1/3
f 211/2/3 207/2/3 210/2/3
f 212/1/3 211/1/3 210/1/3
f 213/1/3 211/1/3 212/1/3
f 214/1/3 212/1/3 210/1/3
f 215/1/3 212/1/3 214/1/3
f 216/2/3 210/2/3 209/2/3
f 216/1/3 214/1/3 210/1/3
f 217/1/3 214/1/3 216/1/3
f 218/2/3 216/2/3 209/2/3
f 219/2/3 216/2/3 218/2/3
f 220/2/3 218/2/3 209/2/3
f 221/2/3 218/2/3 220/2/3
f 222/2/3 220/2/3 209/2/3
f 223/2/3 220/2/3 222/2/3
f 224/2/3 222/2/3 209/2/3
f 225/2/3 222/2/3 224/2/3
f 226/2/3 224/2/3 209/2/3
f 227/2/3 224/2/3 226/2/3
f 228/2/3 226/2/3 209/2/3
f 229/2/3 226/2/3 228/2/3
f 230/2/3 226/2/3 229/2/3
f 231/1/3 229/1/3 228/1/3
f 232/1/3 229/1/3 231/1/3
f 233/1/3 231/1/3 228/1/3
f 234/1/3 231/1/3 233/1/3
f 235/1/3 233/1/3 228/1/3
f 236/1/3 233/1/3 235/1/3
f 237/1/3 235/1/3 228/1/3
f 238/1/3 235/1/3 237/1/3
f 239/2/3 238/2/3 237/2/3
f 240/2/3 238/2/3 239/2/3
f 241/1/4 242/1/4 247/1/4
f 242/2/4 243/2/4 248/2/4
f 247/1/4 242/1/4 248/1/4
f 243/1/4 244/1/4 249/1/4
f 248/2/4 243/2/4 249/2/4
f 244/2/4 245/2/4 250/2/4
f 249/1/4 244/1/4 250/1/4
f 245/1/4 246/1/4 251/1/4
f 250/2/4 245/2/4 251/2/4
f 251/1/4 246/1/4 252/1/4
f 250/1/4 251/1/4 253/1/4
f 251/2/4 252/2/4 254/2/4
f 253/1/4 251/1/4 254/1/4
f 254/2/4 252/2/4 255/2/4
f 250/1/4 253/1/4 256/1/4
f 256/1/4 253/1/4 257/1/4
f 249/2/4 250/2/4 258/2/4
f 250/1/4 256/1/4 258/1/4
f 258/1/4 256/1/4 259/1/4
f 249/2/4 258/2/4 260/2/4
f 260/2/4 258/2/4 261/2/4
f 249/2/4 260/2/4 262/2/4
f 262/2/4 260/2/4 263/2/4
f 249/2/4 262/2/4 264/2/4
f 264/2/4 262/2/4 265/2/4
f 247/2/4 248/2/4 266/2/4
f 248/1/4 249/1/4 267/1/4
f 266/2/4 248/2/4 267/2/4
f 249/2/4 264/2/4 268/2/4
f 267/1/4 249/1/4 268/1/4
f 268/2/4 264/2/4 269/2/4
f 269/2/4 264/2/4 270/2/4
f 268/1/4 269/1/4 271/1/4
f 271/1/4 269/1/4 272/1/4
f 268/1/4 271/1/4 273/1/4
f 273/1/4 271/1/4 274/1/4
f 267/2/4 268/2/4 275/2/4
f 268/1/4 273/1/4 275/1/4
f 275/1/4 273/1/4 276/1/4
f 267/2/4 275/2/4 277/2/4
f 277/2/4 275/2/4 278/2/4
f 267/2/4 277/2/4 279/2/4
f 279/2/4 277/2/4 280/2/4
f 267/2/4 279/2/4 281/2/4
f 281/2/4 279/2/4 282/2/4
f 267/2/4 281/2/4 283/2/4
f 283/2/4 281/2/4 284/2/4
f 267/2/4 283/2/4 285/2/4
f 285/2/4 283/2/4 286/2/4
f 267/2/4 285/2/4 287/2/4
f 287/2/4 285/2/4 288/2/4
f 267/2/4 287/2/4 289/2/4
f 289/2/4 287/2/4 290/2/4
f 267/2/4 289/2/4 291/2/4
f 291/2/4 289/2/4 292/2/4
f 267/2/4 291/2/4 293/2/4
f 293/2/4 291/2/4 294/2/4
f 267/2/4 293/2/4 295/2/4
f 295/2/4 293/2/4 296/2/4
f 267/2/4 295/2/4 297/2/4
f 297/2/4 295/2/4 298/2/4
f 266/1/4 267/1/4 299/1/4
f 267/2/4 297/2/4 300/2/4
f 299/1/4 267/1/4 300/1/4
f 300/2/4 297/2/4 301/2/4
f 300/1/4 301/1/4 302/1/4
f 302/1/4 301/1/4 303/1/4
f 300/1/4 302/1/4 304/1/4
f 304/1/4 302/1/4 305/1/4
f 299/2/4 300/2/4 306/2/4
f 300/1/4 304/1/4 306/1/4
f 306/1/4 304/1/4 307/1/4
f 299/2/4 306/2/4 308/2/4
f 308/2/4 306/2/4 309/2/4
f 299/2/4 308/2/4 310/2/4
f 310/2/4 308/2/4 311/2/4
f 299/2/4 310/2/4 312/2/4
f 312/2/4 310/2/4 313/2/4
f 299/2/4 312/2/4 314/2/4
f 314/2/4 312/2/4 315/2/4
f 299/2/4 314/2/4 316/2/4
f 316/2/4 314/2/4 317/2/4
f 299/2/4 316/2/4 318/2/4
f 318/2/4 316/2/4 319/2/4
f 319/2/4 316/2/4 320/2/4
f 318/1/4 319/1/4 321/1/4
f 321/1/4 319/1/4 322/1/4
f 318/1/4 321/1/4 323/1/4
f 323/1/4 321/1/4 324/1/4
f 318/1/4 323/1/4 325/1/4
f 325/1/4 323/1/4 326/1/4
f 318/1/4 325/1/4 327/1/4
f 327/1/4 325/1/4 328/1/4
f 327/2/4 328/2/4 329/2/4
f 329/2/4 328/2/4 330/2/4
f 338/1/5 332/1/5 331/1/5
f 339/2/5 333/2/5 332/2/5
f 339/1/5 332/1/5 338/1/5
f 340/1/5 334/1/5 333/1/5
f 340/2/5 333/2/5 339/2/5
f 341/2/5 335/2/5 334/2/5
f 341/1/5 334/1/5 340/1/5
f 342/1/5 336/1/5 335/1/5
f 342/2/5 335/2/5 341/2/5
f 343/2/5 337/2/5 336/2/5
f 343/1/5 336/1/5 342/1/5
f 344/2/5 337/2/5 343/2/5
f 345/1/6 346/1/6 348/1/6
f 346/2/6 347/2/6 349/2/6
f 348/1/6 346/1/6 349/1/6
f 349/2/6 347/2/6 350/2/6
f 351/1/6 352/1/6 353/1/6
f 353/1/6 352/1/6 354/1/6
f 355/1/6 356/1/6 357/1/6
f 357/1/6 356/1/6 358/1/6
f 359/1/6 360/1/6 361/1/6
f 361/1/6 360/1/6 362/1/6
f 363/2/6 364/2/6 365/2/6
f 365/2/6 364/2/6 366/2/6
f 367/2/6 368/2/6 369/2/6
f 369/2/6 368/2/6 370/2/6
f 371/2/6 372/2/6 373/2/6
f 373/2/6 372/2/6 374/2/6
f 375/2/6 376/2/6 377/2/6
f 377/2/6 376/2/6 378/2/6
f 379/2/6 380/2/6 381/2/6
f 381/2/6 380/2/6 382/2/6
f 383/2/6 384/2/6 385/2/6
f 385/2/6 384/2/6 386/2/6
f 387/1/6 388/1/6 389/1/6
f 389/1/6 388/1/6 390/1/6
f 391/1/6 392/1/6 393/1/6
f 393/1/6 392/1/6 394/1/6
f 395/2/6 396/2/6 398/2/6
f 396/1/6 397/1/6 399/1/6
f 398/2/6 396/2/6 399/2/6
f 399/1/6 397/1/6 400/1/6
f 401/2/6 402/2/6 403/2/6
f 403/2/6 402/2/6 404/2/6
f 405/2/6 406/2/6 407/2/6
f 407/2/6 406/2/6 408/2/6
f 409/2/6 410/2/6 411/2/6
f 411/2/6 410/2/6 412/2/6
f 413/2/6 414/2/6 415/2/6
f 415/2/6 414/2/6 416/2/6
f 417/2/6 418/2/6 419/2/6
f 419/2/6 418/2/6 420/2/6
f 421/2/6 422/2/6 423/2/6
f 423/2/6 422/2/6 424/2/6
f 425/2/6 426/2/6 427/2/6
f 427/2/6 426/2/6 428/2/6
f 429/2/6 430/2/6 431/2/6
f 431/2/6 430/2/6 432/2/6
f 433/2/6 434/2/6 435/2/6
f 435/2/6 434/2/6 436/2/6
f 437/2/6 438/2/6 439/2/6
f 439/2/6 438/2/6 440/2/6
f 441/2/6 442/2/6 443/2/6
f 443/2/6 442/2/6 444/2/6
f 445/1/6 446/1/6 447/1/6
f 447/1/6 446/1/6 448/1/6
f 449/1/6 450/1/6 451/1/6
f 451/1/6 450/1/6 452/1/6
f 453/1/6 454/1/6 455/1/6
f 455/1/6 454/1/6 456/1/6
f 457/2/6 458/2/6 459/2/6
f 459/2/6 458/2/6 460/2/6
f 461/2/6 462/2/6 463/2/6
f 463/2/6 462/2/6 464/2/6
f 465/2/6 466/2/6 467/2/6
f 467/2/6 466/2/6 468/2/6
f 469/2/6 470/2/6 471/2/6
f 471/2/6 470/2/6 472/2/6
f 473/1/6 474/1/6 475/1/6
f 475/1/6 474/1/6 476/1/6
f 477/1/6 478/1/6 479/1/6
f 479/1/6 478/1/6 480/1/6
f 481/1/6 482/1/6 484/1/6
f 482/2/6 483/2/6 485/2/6
f 484/1/6 482/1/6 485/1/6
f 485/2/6 483/2/6 486/2/6
