# Blender v3.0.1 OBJ File: ''
# www.blender.org
mtllib piernabarbaro.mtl
o piernabarbaro
v -0.256095 -0.750253 0.261710
v -0.256095 -0.850253 -0.238290
v -0.256095 -0.850253 0.261710
v -0.256095 -0.750253 -0.238290
v -0.256095 -0.650253 0.161710
v -0.256095 -0.650253 -0.238290
v -0.256095 -0.450253 0.261710
v -0.256095 -0.450253 0.161710
v -0.256095 0.849747 0.261710
v -0.256095 0.849747 -0.238290
v 0.243905 -0.850253 0.261710
v 0.243905 -0.850253 -0.238290
v 0.243905 -0.750253 0.261710
v 0.243905 -0.750253 -0.238290
v 0.243905 -0.650253 0.161710
v 0.243905 -0.650253 -0.238290
v 0.243905 -0.450253 0.261710
v 0.243905 -0.450253 0.161710
v 0.243905 0.849747 0.261710
v 0.243905 0.849747 -0.238290
v -0.156095 -0.750253 0.261710
v -0.256095 -0.750253 0.261710
v -0.256095 -0.850253 0.261710
v -0.256095 -0.450253 0.261710
v -0.156095 -0.650253 0.261710
v -0.156095 -0.450253 0.261710
v -0.256095 0.849747 0.261710
v -0.156095 0.049747 0.261710
v -0.156095 0.249747 0.261710
v -0.056095 -0.750253 0.261710
v -0.056095 -0.650253 0.261710
v -0.056095 -0.450253 0.261710
v -0.056095 -0.050253 0.261710
v -0.056095 0.049747 0.261710
v 0.043905 -0.650253 0.261710
v 0.043905 -0.450253 0.261710
v 0.043905 -0.050253 0.261710
v 0.043905 0.049747 0.261710
v 0.143905 -0.750253 0.261710
v 0.143905 -0.650253 0.261710
v 0.143905 -0.450253 0.261710
v 0.143905 0.049747 0.261710
v 0.143905 0.249747 0.261710
v 0.243905 -0.850253 0.261710
v 0.243905 -0.750253 0.261710
v 0.243905 -0.450253 0.261710
v 0.243905 0.849747 0.261710
v -0.256095 -0.850253 -0.238290
v -0.256095 -0.750253 -0.238290
v 0.243905 -0.850253 -0.238290
v -0.256095 -0.650253 -0.238290
v 0.243905 -0.750253 -0.238290
v -0.256095 0.849747 -0.238290
v 0.243905 -0.650253 -0.238290
v 0.243905 0.849747 -0.238290
v -0.156095 -0.850253 0.161710
v 0.243905 -0.850253 0.261710
v -0.256095 -0.850253 0.261710
v 0.143905 -0.850253 0.161710
v -0.156095 -0.850253 -0.138290
v 0.143905 -0.850253 -0.138290
v -0.256095 -0.850253 -0.238290
v 0.243905 -0.850253 -0.238290
v -0.256095 0.849747 0.261710
v 0.243905 0.849747 0.261710
v -0.256095 0.849747 -0.238290
v 0.243905 0.849747 -0.238290
vt 0.251953 0.500000
vt 0.251953 0.500000
vt 0.251953 0.500000
vt 0.251953 0.500000
vt 0.537109 0.500000
vt 0.537109 0.500000
vt 0.537109 0.500000
vt 0.537109 0.500000
vt 0.537109 0.500000
vt 0.033203 0.500000
vt 0.033203 0.500000
vt 0.033203 0.500000
vt 0.537109 0.500000
vt 0.033203 0.500000
vt 0.033203 0.500000
vt 0.033203 0.500000
vt 0.251953 0.500000
vt 0.251953 0.500000
vt 0.251953 0.500000
vt 0.251953 0.500000
vt 0.537109 0.500000
vt 0.537109 0.500000
vt 0.537109 0.500000
vt 0.537109 0.500000
vt 0.537109 0.500000
vt 0.033203 0.500000
vt 0.033203 0.500000
vt 0.033203 0.500000
vt 0.537109 0.500000
vt 0.033203 0.500000
vt 0.033203 0.500000
vt 0.033203 0.500000
vt 0.251953 0.500000
vt 0.251953 0.500000
vt 0.251953 0.500000
vt 0.537109 0.500000
vt 0.537109 0.500000
vt 0.537109 0.500000
vt 0.537109 0.500000
vt 0.033203 0.500000
vt 0.033203 0.500000
vt 0.033203 0.500000
vt 0.537109 0.500000
vt 0.033203 0.500000
vt 0.033203 0.500000
vt 0.060547 0.500000
vt 0.060547 0.500000
vt 0.060547 0.500000
vt 0.251953 0.500000
vt 0.251953 0.500000
vt 0.251953 0.500000
vt 0.251953 0.500000
vt 0.060547 0.500000
vt 0.033203 0.500000
vt 0.251953 0.500000
vt 0.033203 0.500000
vt 0.060547 0.500000
vt 0.060547 0.500000
vt 0.060547 0.500000
vt 0.033203 0.500000
vt 0.033203 0.500000
vt 0.033203 0.500000
vt 0.033203 0.500000
vt 0.537109 0.500000
vt 0.537109 0.500000
vt 0.537109 0.500000
vt 0.033203 0.500000
vt 0.537109 0.500000
vt 0.037109 0.500000
vt 0.037109 0.500000
vt 0.037109 0.500000
vt 0.033203 0.500000
vt 0.060547 0.500000
vt 0.037109 0.500000
vt 0.033203 0.500000
vt 0.251953 0.500000
vt 0.251953 0.500000
vt 0.251953 0.500000
vt 0.251953 0.500000
vt 0.033203 0.500000
vt 0.033203 0.500000
vt 0.033203 0.500000
vt 0.251953 0.500000
vt 0.060547 0.500000
vt 0.033203 0.500000
vt 0.033203 0.500000
vt 0.060547 0.500000
vt 0.251953 0.500000
vt 0.537109 0.500000
vt 0.537109 0.500000
vt 0.537109 0.500000
vt 0.251953 0.500000
vt 0.537109 0.500000
vt 0.033203 0.500000
vt 0.537109 0.500000
vt 0.033203 0.500000
vt 0.251953 0.500000
vt 0.251953 0.500000
vt 0.251953 0.500000
vt 0.537109 0.500000
vt 0.537109 0.500000
vt 0.537109 0.500000
vt 0.251953 0.500000
vt 0.033203 0.500000
vt 0.033203 0.500000
vt 0.033203 0.500000
vt 0.537109 0.500000
vt 0.033203 0.500000
vt 0.251953 0.500000
vt 0.251953 0.500000
vt 0.251953 0.500000
vt 0.251953 0.500000
vt 0.251953 0.500000
vt 0.537109 0.500000
vt 0.537109 0.500000
vt 0.537109 0.500000
vt 0.251953 0.500000
vt 0.537109 0.500000
vt 0.251953 0.500000
vt 0.251953 0.500000
vt 0.033203 0.500000
vt 0.033203 0.500000
vt 0.033203 0.500000
vt 0.033203 0.500000
vn -1.0000 0.0000 0.0000
vn 1.0000 0.0000 0.0000
vn 0.0000 0.0000 1.0000
vn 0.0000 0.0000 -1.0000
vn 0.0000 -1.0000 0.0000
vn 0.0000 1.0000 0.0000
usemtl palette
s 1
f 1/1/1 2/2/1 3/3/1
f 4/4/1 2/2/1 1/1/1
f 5/5/1 4/6/1 1/7/1
f 6/8/1 4/6/1 5/5/1
f 7/9/1 5/5/1 1/7/1
f 8/10/1 6/11/1 5/12/1
f 8/13/1 5/5/1 7/9/1
f 9/14/1 8/10/1 7/15/1
f 10/16/1 6/11/1 8/10/1
f 10/16/1 8/10/1 9/14/1
f 11/17/2 12/18/2 13/19/2
f 13/19/2 12/18/2 14/20/2
f 13/21/2 14/22/2 15/23/2
f 15/23/2 14/22/2 16/24/2
f 13/21/2 15/23/2 17/25/2
f 15/26/2 16/27/2 18/28/2
f 17/25/2 15/23/2 18/29/2
f 17/30/2 18/28/2 19/31/2
f 18/28/2 16/27/2 20/32/2
f 19/31/2 18/28/2 20/32/2
f 21/33/3 22/34/3 23/35/3
f 21/36/3 24/37/3 22/38/3
f 25/39/3 24/37/3 21/36/3
f 26/40/3 27/41/3 24/42/3
f 26/43/3 24/37/3 25/39/3
f 28/44/3 27/41/3 26/40/3
f 29/45/3 27/41/3 28/44/3
f 30/46/3 25/47/3 21/48/3
f 30/49/3 21/33/3 23/35/3
f 31/50/3 26/51/3 25/52/3
f 31/53/3 25/47/3 30/46/3
f 32/54/3 28/44/3 26/40/3
f 32/55/3 26/51/3 31/50/3
f 33/56/3 28/44/3 32/54/3
f 34/57/3 29/58/3 28/59/3
f 34/60/3 28/44/3 33/56/3
f 35/61/3 31/62/3 30/63/3
f 35/64/3 32/65/3 31/66/3
f 36/67/3 33/56/3 32/54/3
f 36/68/3 32/65/3 35/64/3
f 37/69/3 34/70/3 33/71/3
f 37/72/3 33/56/3 36/67/3
f 38/73/3 29/58/3 34/57/3
f 38/74/3 34/70/3 37/69/3
f 39/75/3 35/61/3 30/63/3
f 39/76/3 30/49/3 23/35/3
f 40/77/3 36/78/3 35/79/3
f 40/80/3 35/61/3 39/75/3
f 41/81/3 38/82/3 37/72/3
f 41/83/3 36/78/3 40/77/3
f 41/81/3 37/72/3 36/67/3
f 42/84/3 29/58/3 38/73/3
f 42/85/3 38/82/3 41/81/3
f 43/86/3 27/41/3 29/45/3
f 43/87/3 29/58/3 42/84/3
f 44/88/3 39/76/3 23/35/3
f 45/89/3 41/90/3 40/91/3
f 45/92/3 39/76/3 44/88/3
f 45/89/3 40/91/3 39/93/3
f 46/94/3 42/85/3 41/81/3
f 46/95/3 41/90/3 45/89/3
f 46/94/3 43/86/3 42/85/3
f 47/96/3 27/41/3 43/86/3
f 47/96/3 43/86/3 46/94/3
f 48/97/4 49/98/4 50/99/4
f 49/100/4 51/101/4 52/102/4
f 50/99/4 49/98/4 52/103/4
f 51/104/4 53/105/4 54/106/4
f 52/102/4 51/101/4 54/107/4
f 54/106/4 53/105/4 55/108/4
f 56/109/5 57/110/5 58/111/5
f 59/112/5 57/110/5 56/109/5
f 60/113/5 56/109/5 58/111/5
f 60/114/5 59/115/5 56/116/5
f 61/117/5 57/110/5 59/112/5
f 61/118/5 59/115/5 60/114/5
f 62/119/5 60/113/5 58/111/5
f 62/119/5 61/117/5 60/113/5
f 63/120/5 57/110/5 61/117/5
f 63/120/5 61/117/5 62/119/5
f 64/121/6 65/122/6 66/123/6
f 66/123/6 65/122/6 67/124/6
