# 3ds Max Wavefront OBJ Exporter v0.99 - (c)2007 guruware
# File Created: 12.04.2022 19:34:52

mtllib perry_L_foot.mtl

#
# object 3ea4ecbd_0660_1efc_9678_fc2c76487f80_Mesh_0
#

v  2.2554 -0.6175 1.9071
v  -1.9872 -4.8601 1.9071
v  2.2554 -0.6175 -2.2929
v  -1.9872 -4.8601 -2.2929
v  -0.5730 2.2110 -2.2929
v  -4.8156 -2.0317 -2.2929
v  -0.5730 2.2110 1.9071
v  -4.8156 -2.0317 1.9071
# 8 vertices

vn 0.7071 -0.7071 -0.0000
vn -0.7071 0.7071 -0.0000
vn 0.7071 0.7071 -0.0000
vn -0.7071 -0.7071 -0.0000
vn 0.0000 0.0000 1.0000
vn 0.0000 0.0000 -1.0000
# 6 vertex normals

vt 0.0551 0.3197 0.0000
vt 0.0551 0.4108 0.0000
vt 0.1156 0.3197 0.0000
vt 0.1156 0.4108 0.0000
vt 0.1772 0.3197 0.0000
vt 0.1772 0.4108 0.0000
vt 0.2378 0.3197 0.0000
vt 0.2378 0.4108 0.0000
vt 0.1767 0.3192 0.0000
vt 0.1767 0.2587 0.0000
vt 0.1161 0.3192 0.0000
vt 0.1161 0.2587 0.0000
vt 0.2378 0.2587 0.0000
vt 0.2378 0.3192 0.0000
vt 0.1772 0.2587 0.0000
vt 0.1772 0.3192 0.0000
vt 0.2382 0.3197 0.0000
vt 0.2382 0.4108 0.0000
vt 0.2988 0.3197 0.0000
vt 0.2988 0.4108 0.0000
vt 0.1161 0.3197 0.0000
vt 0.1161 0.4108 0.0000
vt 0.1767 0.3197 0.0000
vt 0.1767 0.4108 0.0000
# 24 texture coords

o 3ea4ecbd_0660_1efc_9678_fc2c76487f80_Mesh_0
g 3ea4ecbd_0660_1efc_9678_fc2c76487f80_Mesh_0
usemtl Material_0
s off
f 1/1/1 2/2/1 3/3/1 
f 2/2/1 4/4/1 3/3/1 
f 5/5/2 6/6/2 7/7/2 
f 6/6/2 8/8/2 7/7/2 
f 5/9/3 7/10/3 3/11/3 
f 7/10/3 1/12/3 3/11/3 
f 8/13/4 6/14/4 2/15/4 
f 6/14/4 4/16/4 2/15/4 
f 7/17/5 8/18/5 1/19/5 
f 8/18/5 2/20/5 1/19/5 
f 3/21/6 4/22/6 5/23/6 
f 4/22/6 6/24/6 5/23/6 
# 12 faces

#
# object 376b0246_65e2_7fb3_f330_09a6636eee53_Mesh_1
#

v  -2.2631 -2.3905 1.5071
v  -0.6728 -8.3831 1.5071
v  -2.2631 -2.3905 -1.8929
v  -0.6728 -8.3831 -1.8929
v  -4.7761 -3.0574 -1.8929
v  -3.1858 -9.0500 -1.8929
v  -4.7761 -3.0574 1.5071
v  -3.1858 -9.0500 1.5071
# 8 vertices

vn 0.9665 0.2565 -0.0000
vn -0.9665 -0.2565 -0.0000
vn -0.2565 0.9665 -0.0000
vn 0.2565 -0.9665 -0.0000
vn 0.0000 0.0000 1.0000
vn 0.0000 0.0000 -1.0000
# 6 vertex normals

vt 0.0551 0.0602 0.0000
vt 0.0551 0.1513 0.0000
vt 0.1004 0.0602 0.0000
vt 0.1004 0.1513 0.0000
vt 0.1314 0.0602 0.0000
vt 0.1314 0.1513 0.0000
vt 0.1767 0.0602 0.0000
vt 0.1767 0.1513 0.0000
vt 0.1309 0.0597 0.0000
vt 0.1309 0.0144 0.0000
vt 0.1009 0.0597 0.0000
vt 0.1009 0.0144 0.0000
vt 0.1614 0.0144 0.0000
vt 0.1614 0.0597 0.0000
vt 0.1314 0.0144 0.0000
vt 0.1314 0.0597 0.0000
vt 0.1772 0.0602 0.0000
vt 0.1772 0.1513 0.0000
vt 0.2072 0.0602 0.0000
vt 0.2072 0.1513 0.0000
vt 0.1009 0.0602 0.0000
vt 0.1009 0.1513 0.0000
vt 0.1309 0.0602 0.0000
vt 0.1309 0.1513 0.0000
# 24 texture coords

o 376b0246_65e2_7fb3_f330_09a6636eee53_Mesh_1
g 376b0246_65e2_7fb3_f330_09a6636eee53_Mesh_1
usemtl Material_0
s off
f 9/25/7 10/26/7 11/27/7 
f 10/26/7 12/28/7 11/27/7 
f 13/29/8 14/30/8 15/31/8 
f 14/30/8 16/32/8 15/31/8 
f 13/33/9 15/34/9 11/35/9 
f 15/34/9 9/36/9 11/35/9 
f 16/37/10 14/38/10 10/39/10 
f 14/38/10 12/40/10 10/39/10 
f 15/41/11 16/42/11 9/43/11 
f 16/42/11 10/44/11 9/43/11 
f 11/45/12 12/46/12 13/47/12 
f 12/46/12 14/48/12 13/47/12 
# 12 faces

#
# object 1b2d0728_b1a8_7cff_3654_2a6479efc5f4_Mesh_2
#

v  -0.2599 -8.1975 2.3071
v  -0.2623 -9.1975 2.3071
v  -0.2599 -8.1975 -5.6929
v  -0.2623 -9.1975 -5.6929
v  -3.8599 -8.1889 -5.6929
v  -3.8623 -9.1889 -5.6929
v  -3.8599 -8.1889 2.3071
v  -3.8623 -9.1889 2.3071
# 8 vertices

vn 1.0000 -0.0024 -0.0000
vn -1.0000 0.0024 -0.0000
vn 0.0024 1.0000 -0.0000
vn -0.0024 -1.0000 -0.0000
vn 0.0000 0.0000 1.0000
vn 0.0000 0.0000 -1.0000
# 6 vertex normals

vt 0.6614 0.4400 0.0000
vt 0.6614 0.4548 0.0000
vt 0.7830 0.4400 0.0000
vt 0.7830 0.4548 0.0000
vt 0.6774 0.4338 0.0000
vt 0.6774 0.4486 0.0000
vt 0.7990 0.4338 0.0000
vt 0.7990 0.4486 0.0000
vt 0.6893 0.4488 0.0000
vt 0.6893 0.3272 0.0000
vt 0.6440 0.4488 0.0000
vt 0.6440 0.3272 0.0000
vt 0.6902 0.3287 0.0000
vt 0.6902 0.4504 0.0000
vt 0.6448 0.3287 0.0000
vt 0.6448 0.4504 0.0000
vt 0.7670 0.4508 0.0000
vt 0.7670 0.4656 0.0000
vt 0.8123 0.4508 0.0000
vt 0.8123 0.4656 0.0000
vt 0.6440 0.4493 0.0000
vt 0.6440 0.4641 0.0000
vt 0.6893 0.4493 0.0000
vt 0.6893 0.4641 0.0000
# 24 texture coords

o 1b2d0728_b1a8_7cff_3654_2a6479efc5f4_Mesh_2
g 1b2d0728_b1a8_7cff_3654_2a6479efc5f4_Mesh_2
usemtl Material_0
s off
f 17/49/13 18/50/13 19/51/13 
f 18/50/13 20/52/13 19/51/13 
f 21/53/14 22/54/14 23/55/14 
f 22/54/14 24/56/14 23/55/14 
f 21/57/15 23/58/15 19/59/15 
f 23/58/15 17/60/15 19/59/15 
f 24/61/16 22/62/16 18/63/16 
f 22/62/16 20/64/16 18/63/16 
f 23/65/17 24/66/17 17/67/17 
f 24/66/17 18/68/17 17/67/17 
f 19/69/18 20/70/18 21/71/18 
f 20/70/18 22/72/18 21/71/18 
# 12 faces

