# 3ds Max Wavefront OBJ Exporter v0.99 - (c)2007 guruware
# File Created: 12.04.2022 19:30:23

mtllib perry_L_arm.mtl

#
# object 6c57ed06_3e2f_d813_3ec4_a0a4cc2b6637_Mesh_22
#

v  -0.3006 0.0258 1.3594
v  -4.8368 -4.4888 1.3594
v  -0.3006 0.0258 -1.4406
v  -4.8368 -4.4888 -1.4406
v  -1.8525 1.5852 -1.4406
v  -6.3888 -2.9295 -1.4406
v  -1.8525 1.5852 1.3594
v  -6.3888 -2.9295 1.3594
# 8 vertices

vn 0.7054 -0.7088 -0.0000
vn -0.7054 0.7088 -0.0000
vn 0.7088 0.7054 -0.0000
vn -0.7088 -0.7054 -0.0000
vn 0.0000 0.0000 1.0000
vn 0.0000 0.0000 -1.0000
# 6 vertex normals

vt 0.3393 0.0800 0.0000
vt 0.3393 0.1711 0.0000
vt 0.3694 0.0800 0.0000
vt 0.3694 0.1711 0.0000
vt 0.3143 0.1120 0.0000
vt 0.3143 0.2031 0.0000
vt 0.3443 0.1120 0.0000
vt 0.3443 0.2031 0.0000
vt 0.3138 0.1115 0.0000
vt 0.2793 0.3891 0.0000
vt 0.2837 0.1115 0.0000
vt 0.6042 0.2587 0.0000
vt 0.5741 0.2587 0.0000
vt 0.5741 0.2887 0.0000
vt 0.3099 0.3891 0.0000
vt 0.3443 0.1115 0.0000
vt 0.2798 0.3891 0.0000
vt 0.3143 0.1115 0.0000
vt 0.3448 0.1120 0.0000
vt 0.3448 0.2031 0.0000
vt 0.3748 0.1120 0.0000
vt 0.3748 0.2031 0.0000
vt 0.3699 0.0800 0.0000
vt 0.3699 0.1711 0.0000
vt 0.3999 0.0800 0.0000
vt 0.3748 0.2868 0.0000
vt 0.4048 0.2868 0.0000
vt 0.4048 0.1957 0.0000
# 28 texture coords

o 6c57ed06_3e2f_d813_3ec4_a0a4cc2b6637_Mesh_22
g 6c57ed06_3e2f_d813_3ec4_a0a4cc2b6637_Mesh_22
usemtl Material_0
s off
f 1/1/1 2/2/1 3/3/1 
f 2/2/1 4/4/1 3/3/1 
f 5/5/2 6/6/2 7/7/2 
f 6/6/2 8/8/2 7/7/2 
f 5/9/3 7/10/3 3/11/3 
f 7/12/3 1/13/3 3/14/3 
f 8/15/4 6/16/4 2/17/4 
f 6/16/4 4/18/4 2/17/4 
f 7/19/5 8/20/5 1/21/5 
f 8/20/5 2/22/5 1/21/5 
f 3/23/6 4/24/6 5/25/6 
f 4/26/6 6/27/6 5/28/6 
# 12 faces

#
# object e3286478_a147_a859_76d6_d2da053fc43d_Mesh_23
#

v  -4.4693 -3.9012 1.1594
v  -6.8693 -8.0581 1.1594
v  -4.4693 -3.9012 -1.2406
v  -6.8693 -8.0581 -1.2406
v  -6.2013 -2.9012 -1.2406
v  -8.6013 -7.0581 -1.2406
v  -6.2013 -2.9012 1.1594
v  -8.6013 -7.0581 1.1594
# 8 vertices

vn 0.8660 -0.5000 -0.0000
vn -0.8660 0.5000 -0.0000
vn 0.5000 0.8660 -0.0000
vn -0.5000 -0.8660 -0.0000
vn 0.0000 0.0000 1.0000
vn 0.0000 0.0000 -1.0000
# 6 vertex normals

vt 0.1904 0.2204 0.0000
vt 0.1904 0.2810 0.0000
vt 0.2205 0.2204 0.0000
vt 0.2205 0.2810 0.0000
vt 0.1555 0.2499 0.0000
vt 0.1555 0.3105 0.0000
vt 0.1855 0.2499 0.0000
vt 0.1855 0.3105 0.0000
vt 0.1156 0.4414 0.0000
vt 0.1156 0.4113 0.0000
vt 0.0856 0.4414 0.0000
vt 0.0856 0.4113 0.0000
vt 0.1462 0.4113 0.0000
vt 0.1462 0.4414 0.0000
vt 0.1161 0.4113 0.0000
vt 0.1161 0.4414 0.0000
vt 0.1860 0.2499 0.0000
vt 0.1860 0.3105 0.0000
vt 0.2161 0.2499 0.0000
vt 0.2820 0.2810 0.0000
vt 0.3121 0.2810 0.0000
vt 0.3121 0.2204 0.0000
vt 0.2209 0.2204 0.0000
vt 0.2209 0.2810 0.0000
vt 0.2510 0.2204 0.0000
vt 0.2510 0.2810 0.0000
# 26 texture coords

o e3286478_a147_a859_76d6_d2da053fc43d_Mesh_23
g e3286478_a147_a859_76d6_d2da053fc43d_Mesh_23
usemtl Material_0
s off
f 9/29/7 10/30/7 11/31/7 
f 10/30/7 12/32/7 11/31/7 
f 13/33/8 14/34/8 15/35/8 
f 14/34/8 16/36/8 15/35/8 
f 13/37/9 15/38/9 11/39/9 
f 15/38/9 9/40/9 11/39/9 
f 16/41/10 14/42/10 10/43/10 
f 14/42/10 12/44/10 10/43/10 
f 15/45/11 16/46/11 9/47/11 
f 16/48/11 10/49/11 9/50/11 
f 11/51/12 12/52/12 13/53/12 
f 12/52/12 14/54/12 13/53/12 
# 12 faces

#
# object 29867a06_91b8_ed5f_0631_d04d6519cb94_Mesh_24
#

v  -6.6653 -8.0192 1.3594
v  -7.4313 -8.6619 1.3594
v  -6.6653 -8.0192 -1.4406
v  -7.4313 -8.6619 -1.4406
v  -8.3365 -6.0274 -1.4406
v  -9.1026 -6.6702 -1.4406
v  -8.3365 -6.0274 1.3594
v  -9.1026 -6.6702 1.3594
# 8 vertices

vn 0.6428 -0.7660 -0.0000
vn -0.6428 0.7660 -0.0000
vn 0.7660 0.6428 -0.0000
vn -0.7660 -0.6428 -0.0000
vn 0.0000 0.0000 1.0000
vn 0.0000 0.0000 -1.0000
# 6 vertex normals

vt 0.2180 0.3162 0.0000
vt 0.2180 0.3310 0.0000
vt 0.2481 0.3162 0.0000
vt 0.2481 0.3310 0.0000
vt 0.2126 0.3285 0.0000
vt 0.2126 0.3433 0.0000
vt 0.2427 0.3285 0.0000
vt 0.2427 0.3433 0.0000
vt 0.2786 0.3157 0.0000
vt 0.2786 0.2857 0.0000
vt 0.2485 0.3157 0.0000
vt 0.2485 0.2857 0.0000
vt 0.2427 0.2980 0.0000
vt 0.2427 0.3280 0.0000
vt 0.2126 0.2980 0.0000
vt 0.2126 0.3280 0.0000
vt 0.2432 0.3285 0.0000
vt 0.2432 0.3433 0.0000
vt 0.2732 0.3285 0.0000
vt 0.2732 0.3433 0.0000
vt 0.2485 0.3162 0.0000
vt 0.2485 0.3310 0.0000
vt 0.2786 0.3162 0.0000
vt 0.2786 0.3310 0.0000
# 24 texture coords

o 29867a06_91b8_ed5f_0631_d04d6519cb94_Mesh_24
g 29867a06_91b8_ed5f_0631_d04d6519cb94_Mesh_24
usemtl Material_0
s off
f 17/55/13 18/56/13 19/57/13 
f 18/56/13 20/58/13 19/57/13 
f 21/59/14 22/60/14 23/61/14 
f 22/60/14 24/62/14 23/61/14 
f 21/63/15 23/64/15 19/65/15 
f 23/64/15 17/66/15 19/65/15 
f 24/67/16 22/68/16 18/69/16 
f 22/68/16 20/70/16 18/69/16 
f 23/71/17 24/72/17 17/73/17 
f 24/72/17 18/74/17 17/73/17 
f 19/75/18 20/76/18 21/77/18 
f 20/76/18 22/78/18 21/77/18 
# 12 faces

#
# object e20693e5_32a1_10da_1605_28c527a4b19d_Mesh_25
#

v  -8.2455 -6.2344 1.2083
v  -8.7455 -7.1005 1.2083
v  -8.4248 -6.1309 0.4356
v  -8.9248 -6.9969 0.4356
v  -9.9306 -5.2616 0.9015
v  -10.4306 -6.1276 0.9015
v  -9.7513 -5.3651 1.6742
v  -10.2513 -6.2311 1.6742
# 8 vertices

vn 0.8365 -0.4830 -0.2588
vn -0.8365 0.4830 0.2588
vn 0.5000 0.8660 -0.0000
vn -0.5000 -0.8660 -0.0000
vn 0.2241 -0.1294 0.9659
vn -0.2241 0.1294 -0.9659
# 6 vertex normals

vt 0.0551 0.5487 0.0000
vt 0.0551 0.5788 0.0000
vt 0.0698 0.5487 0.0000
vt 0.0698 0.5788 0.0000
vt 0.1402 0.3568 0.0000
vt 0.1402 0.3868 0.0000
vt 0.1550 0.3568 0.0000
vt 0.1550 0.3868 0.0000
vt 0.2357 0.3268 0.0000
vt 0.2357 0.3120 0.0000
vt 0.2057 0.3268 0.0000
vt 0.2057 0.3120 0.0000
vt 0.2909 0.3169 0.0000
vt 0.2909 0.3317 0.0000
vt 0.2608 0.3169 0.0000
vt 0.2608 0.3317 0.0000
vt 0.1555 0.3568 0.0000
vt 0.1555 0.3868 0.0000
vt 0.1855 0.3568 0.0000
vt 0.1855 0.3868 0.0000
vt 0.2057 0.3272 0.0000
vt 0.2057 0.3573 0.0000
vt 0.2357 0.3272 0.0000
vt 0.2357 0.3573 0.0000
# 24 texture coords

o e20693e5_32a1_10da_1605_28c527a4b19d_Mesh_25
g e20693e5_32a1_10da_1605_28c527a4b19d_Mesh_25
usemtl Material_0
s off
f 25/79/19 26/80/19 27/81/19 
f 26/80/19 28/82/19 27/81/19 
f 29/83/20 30/84/20 31/85/20 
f 30/84/20 32/86/20 31/85/20 
f 29/87/21 31/88/21 27/89/21 
f 31/88/21 25/90/21 27/89/21 
f 32/91/22 30/92/22 26/93/22 
f 30/92/22 28/94/22 26/93/22 
f 31/95/23 32/96/23 25/97/23 
f 32/96/23 26/98/23 25/97/23 
f 27/99/24 28/100/24 29/101/24 
f 28/100/24 30/102/24 29/101/24 
# 12 faces

#
# object 72b5d277_41d9_0e20_f1df_58f80fe52ca9_Mesh_26
#

v  -8.3864 -6.1531 0.2594
v  -8.8864 -7.0191 0.2594
v  -8.3864 -6.1531 -0.5406
v  -8.8864 -7.0191 -0.5406
v  -10.2916 -5.0531 -0.5406
v  -10.7916 -5.9191 -0.5406
v  -10.2916 -5.0531 0.2594
v  -10.7916 -5.9191 0.2594
# 8 vertices

vn 0.8660 -0.5000 -0.0000
vn -0.8660 0.5000 -0.0000
vn 0.5000 0.8660 -0.0000
vn -0.5000 -0.8660 -0.0000
vn 0.0000 0.0000 1.0000
vn 0.0000 0.0000 -1.0000
# 6 vertex normals

vt 0.4520 0.5945 0.0000
vt 0.4520 0.6246 0.0000
vt 0.4668 0.5945 0.0000
vt 0.4668 0.6246 0.0000
vt 0.2227 0.4173 0.0000
vt 0.2227 0.4474 0.0000
vt 0.2375 0.4173 0.0000
vt 0.2375 0.4474 0.0000
vt 0.3477 0.1929 0.0000
vt 0.3477 0.1781 0.0000
vt 0.3024 0.1929 0.0000
vt 0.3024 0.1781 0.0000
vt 0.3689 0.3356 0.0000
vt 0.3689 0.3504 0.0000
vt 0.3236 0.3356 0.0000
vt 0.3236 0.3504 0.0000
vt 0.2379 0.4173 0.0000
vt 0.2379 0.4474 0.0000
vt 0.2832 0.4173 0.0000
vt 0.2832 0.4474 0.0000
vt 0.2630 0.3853 0.0000
vt 0.2630 0.4154 0.0000
vt 0.3083 0.3853 0.0000
vt 0.3083 0.4154 0.0000
# 24 texture coords

o 72b5d277_41d9_0e20_f1df_58f80fe52ca9_Mesh_26
g 72b5d277_41d9_0e20_f1df_58f80fe52ca9_Mesh_26
usemtl Material_0
s off
f 33/103/25 34/104/25 35/105/25 
f 34/104/25 36/106/25 35/105/25 
f 37/107/26 38/108/26 39/109/26 
f 38/108/26 40/110/26 39/109/26 
f 37/111/27 39/112/27 35/113/27 
f 39/112/27 33/114/27 35/113/27 
f 40/115/28 38/116/28 34/117/28 
f 38/116/28 36/118/28 34/117/28 
f 39/119/29 40/120/29 33/121/29 
f 40/120/29 34/122/29 33/121/29 
f 35/123/30 36/124/30 37/125/30 
f 36/124/30 38/126/30 37/125/30 
# 12 faces

#
# object d016e74f_ee42_4661_6eb4_2e2d3769611a_Mesh_27
#

v  -8.4870 -6.1010 -0.6345
v  -8.7458 -7.0670 -0.6345
v  -8.3528 -6.1370 -1.4224
v  -8.6116 -7.1029 -1.4224
v  -10.2553 -5.6272 -1.7697
v  -10.5141 -6.5931 -1.7697
v  -10.3895 -5.5913 -0.9818
v  -10.6483 -6.5572 -0.9818
# 8 vertices

vn 0.9513 -0.2549 0.1736
vn -0.9513 0.2549 -0.1736
vn 0.2588 0.9659 -0.0000
vn -0.2588 -0.9659 -0.0000
vn -0.1677 0.0449 0.9848
vn 0.1677 -0.0449 -0.9848
# 6 vertex normals

vt 0.4520 0.5487 0.0000
vt 0.4520 0.5788 0.0000
vt 0.4668 0.5487 0.0000
vt 0.4668 0.5788 0.0000
vt 0.2227 0.3715 0.0000
vt 0.2227 0.4016 0.0000
vt 0.2375 0.3715 0.0000
vt 0.2375 0.4016 0.0000
vt 0.3477 0.1471 0.0000
vt 0.3477 0.1323 0.0000
vt 0.3024 0.1471 0.0000
vt 0.3024 0.1323 0.0000
vt 0.3689 0.2898 0.0000
vt 0.3689 0.3046 0.0000
vt 0.3236 0.2898 0.0000
vt 0.3236 0.3046 0.0000
vt 0.3634 0.1476 0.0000
vt 0.3634 0.1777 0.0000
vt 0.4087 0.1476 0.0000
vt 0.2379 0.4016 0.0000
vt 0.2832 0.4016 0.0000
vt 0.2832 0.3715 0.0000
vt 0.2630 0.3395 0.0000
vt 0.2630 0.3696 0.0000
vt 0.3083 0.3395 0.0000
vt 0.3024 0.1777 0.0000
vt 0.3477 0.1777 0.0000
vt 0.3477 0.1476 0.0000
# 28 texture coords

o d016e74f_ee42_4661_6eb4_2e2d3769611a_Mesh_27
g d016e74f_ee42_4661_6eb4_2e2d3769611a_Mesh_27
usemtl Material_0
s off
f 41/127/31 42/128/31 43/129/31 
f 42/128/31 44/130/31 43/129/31 
f 45/131/32 46/132/32 47/133/32 
f 46/132/32 48/134/32 47/133/32 
f 45/135/33 47/136/33 43/137/33 
f 47/136/33 41/138/33 43/137/33 
f 48/139/34 46/140/34 42/141/34 
f 46/140/34 44/142/34 42/141/34 
f 47/143/35 48/144/35 41/145/35 
f 48/146/35 42/147/35 41/148/35 
f 43/149/36 44/150/36 45/151/36 
f 44/152/36 46/153/36 45/154/36 
# 12 faces

#
# object 326e5144_7cb4_c4e4_37d8_9fca675e62a8_Mesh_28
#

v  -8.0012 -7.8617 -0.7998
v  -7.1351 -8.3617 -0.7998
v  -7.9317 -7.7414 -1.5877
v  -7.0657 -8.2414 -1.5877
v  -8.8180 -9.2765 -1.9002
v  -7.9520 -9.7765 -1.9002
v  -8.8875 -9.3968 -1.1124
v  -8.0215 -9.8968 -1.1124
# 8 vertices

vn 0.4924 0.8529 0.1736
vn -0.4924 -0.8529 -0.1736
vn -0.8660 0.5000 -0.0000
vn 0.8660 -0.5000 -0.0000
vn -0.0868 -0.1504 0.9848
vn 0.0868 0.1504 -0.9848
# 6 vertex normals

vt 0.2333 0.1330 0.0000
vt 0.2333 0.1631 0.0000
vt 0.2481 0.1330 0.0000
vt 0.2481 0.1631 0.0000
vt 0.2077 0.0297 0.0000
vt 0.2077 0.0597 0.0000
vt 0.2225 0.0297 0.0000
vt 0.2225 0.0597 0.0000
vt 0.2122 0.1448 0.0000
vt 0.2122 0.1301 0.0000
vt 0.1821 0.1448 0.0000
vt 0.1821 0.1301 0.0000
vt 0.3091 0.1178 0.0000
vt 0.3091 0.1325 0.0000
vt 0.2791 0.1178 0.0000
vt 0.2791 0.1325 0.0000
vt 0.2279 0.1453 0.0000
vt 0.2279 0.1754 0.0000
vt 0.2580 0.1453 0.0000
vt 0.2580 0.1754 0.0000
vt 0.2485 0.1330 0.0000
vt 0.2485 0.1631 0.0000
vt 0.2786 0.1330 0.0000
vt 0.2786 0.1631 0.0000
# 24 texture coords

o 326e5144_7cb4_c4e4_37d8_9fca675e62a8_Mesh_28
g 326e5144_7cb4_c4e4_37d8_9fca675e62a8_Mesh_28
usemtl Material_0
s off
f 49/155/37 50/156/37 51/157/37 
f 50/156/37 52/158/37 51/157/37 
f 53/159/38 54/160/38 55/161/38 
f 54/160/38 56/162/38 55/161/38 
f 53/163/39 55/164/39 51/165/39 
f 55/164/39 49/166/39 51/165/39 
f 56/167/40 54/168/40 50/169/40 
f 54/168/40 52/170/40 50/169/40 
f 55/171/41 56/172/41 49/173/41 
f 56/172/41 50/174/41 49/173/41 
f 51/175/42 52/176/42 53/177/42 
f 52/176/42 54/178/42 53/177/42 
# 12 faces

