# Blender v3.0.1 OBJ File: 'perry.blend'
# www.blender.org
mtllib perry_body.mtl
o 90d30219-3b92-a16c-93d9-115fc7675e29_Mesh_6
v 5.000000 32.208225 4.600000
v 5.000000 4.208223 4.600000
v 5.000000 32.208225 -1.400000
v 5.000000 4.208223 4.600000
v 5.000000 4.208223 -1.400000
v 5.000000 32.208225 -1.400000
v -5.000000 32.208225 -1.400000
v -5.000000 4.208223 -1.400000
v -5.000000 32.208225 4.600000
v -5.000000 4.208223 -1.400000
v -5.000000 4.208223 4.600000
v -5.000000 32.208225 4.600000
v -5.000000 32.208225 -1.400000
v -5.000000 32.208225 4.600000
v 5.000000 32.208225 -1.400000
v -5.000000 32.208225 4.600000
v 5.000000 32.208225 4.600000
v 5.000000 32.208225 -1.400000
v -5.000000 4.208223 4.600000
v -5.000000 4.208223 -1.400000
v 5.000000 4.208223 4.600000
v -5.000000 4.208223 -1.400000
v 5.000000 4.208223 -1.400000
v 5.000000 4.208223 4.600000
v -5.000000 32.208225 4.600000
v -5.000000 4.208223 4.600000
v 5.000000 32.208225 4.600000
v -5.000000 4.208223 4.600000
v 5.000000 4.208223 4.600000
v 5.000000 32.208225 4.600000
v 5.000000 32.208225 -1.400000
v 5.000000 4.208223 -1.400000
v -5.000000 32.208225 -1.400000
v 5.000000 4.208223 -1.400000
v -5.000000 4.208223 -1.400000
v -5.000000 32.208225 -1.400000
vt 0.123686 0.109327
vt 0.123686 0.392290
vt 0.184073 0.109327
vt 0.123686 0.392290
vt 0.184073 0.392290
vt 0.184073 0.109327
vt 0.230560 0.106959
vt 0.230560 0.399425
vt 0.292975 0.106959
vt 0.230560 0.399425
vt 0.292975 0.399425
vt 0.292975 0.106959
vt 0.230234 0.106632
vt 0.230234 0.044218
vt 0.125992 0.106632
vt 0.285244 0.048624
vt 0.184389 0.048624
vt 0.184389 0.109011
vt 0.386415 0.048624
vt 0.386415 0.109011
vt 0.285560 0.048624
vt 0.386415 0.109011
vt 0.285560 0.109011
vt 0.285560 0.048624
vt 0.346263 0.109327
vt 0.346263 0.392290
vt 0.447118 0.109327
vt 0.346263 0.392290
vt 0.447118 0.392290
vt 0.447118 0.109327
vt 0.144108 0.014410
vt 0.144108 0.441378
vt 0.296289 0.014410
vt 0.144108 0.441378
vt 0.296289 0.441378
vt 0.296289 0.014410
vn 1.0000 0.0000 0.0000
vn -1.0000 0.0000 0.0000
vn 0.0000 1.0000 0.0000
vn 0.0000 -1.0000 0.0000
vn 0.0000 0.0000 1.0000
vn 0.0000 0.0000 -1.0000
usemtl Material_0
s off
f 1/1/1 2/2/1 3/3/1
f 4/4/1 5/5/1 6/6/1
f 7/7/2 8/8/2 9/9/2
f 10/10/2 11/11/2 12/12/2
f 13/13/3 14/14/3 15/15/3
f 16/16/3 17/17/3 18/18/3
f 19/19/4 20/20/4 21/21/4
f 22/22/4 23/23/4 24/24/4
f 25/25/5 26/26/5 27/27/5
f 28/28/5 29/29/5 30/30/5
f 31/31/6 32/32/6 33/33/6
f 34/34/6 35/35/6 36/36/6
o 66446a82-cc1e-f78c-4665-6ba8bd9a9eb1_Mesh_7
v 5.400000 31.008224 -1.400000
v 5.400000 28.008224 -1.400000
v 5.400000 31.008224 -3.000000
v 5.400000 28.008224 -1.400000
v 5.400000 28.008224 -3.000000
v 5.400000 31.008224 -3.000000
v 1.800000 31.008224 -3.000000
v 1.800000 28.008224 -3.000000
v 1.800000 31.008224 -1.400000
v 1.800000 28.008224 -3.000000
v 1.800000 28.008224 -1.400000
v 1.800000 31.008224 -1.400000
v 1.800000 31.008224 -3.000000
v 1.800000 31.008224 -1.400000
v 5.400000 31.008224 -3.000000
v 1.800000 31.008224 -1.400000
v 5.400000 31.008224 -1.400000
v 5.400000 31.008224 -3.000000
v 1.800000 28.008224 -1.400000
v 1.800000 28.008224 -3.000000
v 5.400000 28.008224 -1.400000
v 1.800000 28.008224 -3.000000
v 5.400000 28.008224 -3.000000
v 5.400000 28.008224 -1.400000
v 1.800000 31.008224 -1.400000
v 1.800000 28.008224 -1.400000
v 5.400000 31.008224 -1.400000
v 1.800000 28.008224 -1.400000
v 5.400000 28.008224 -1.400000
v 5.400000 31.008224 -1.400000
v 5.400000 31.008224 -3.000000
v 5.400000 28.008224 -3.000000
v 1.800000 31.008224 -3.000000
v 5.400000 28.008224 -3.000000
v 1.800000 28.008224 -3.000000
v 1.800000 31.008224 -3.000000
vt 0.591880 0.558321
vt 0.592048 0.521218
vt 0.579773 0.558266
vt 0.592048 0.521218
vt 0.579940 0.521163
vt 0.579773 0.558266
vt 0.594859 0.556849
vt 0.594554 0.527409
vt 0.580072 0.556612
vt 0.594554 0.527409
vt 0.579767 0.527173
vt 0.580072 0.556612
vt 0.600277 0.708542
vt 0.600277 0.693753
vt 0.554957 0.708542
vt 0.600277 0.693753
vt 0.554957 0.693753
vt 0.554957 0.708542
vt 0.633673 0.525557
vt 0.633673 0.540346
vt 0.588353 0.525557
vt 0.633673 0.540346
vt 0.588353 0.540346
vt 0.588353 0.525557
vt 0.619896 0.457112
vt 0.619896 0.502433
vt 0.665216 0.457112
vt 0.619896 0.502433
vt 0.665216 0.502433
vt 0.665216 0.457112
vt 0.600514 0.562222
vt 0.600953 0.516903
vt 0.555196 0.561782
vt 0.600953 0.516903
vt 0.555635 0.516464
vt 0.555196 0.561782
vn 1.0000 0.0000 0.0000
vn -1.0000 0.0000 0.0000
vn 0.0000 1.0000 0.0000
vn 0.0000 -1.0000 0.0000
vn 0.0000 0.0000 1.0000
vn 0.0000 0.0000 -1.0000
usemtl Material_0
s off
f 37/37/7 38/38/7 39/39/7
f 40/40/7 41/41/7 42/42/7
f 43/43/8 44/44/8 45/45/8
f 46/46/8 47/47/8 48/48/8
f 49/49/9 50/50/9 51/51/9
f 52/52/9 53/53/9 54/54/9
f 55/55/10 56/56/10 57/57/10
f 58/58/10 59/59/10 60/60/10
f 61/61/11 62/62/11 63/63/11
f 64/64/11 65/65/11 66/66/11
f 67/67/12 68/68/12 69/69/12
f 70/70/12 71/71/12 72/72/12
o ea87a698-1a8b-a8c3-2cde-1b84e9829d7b_Mesh_8
v -1.800000 31.008224 -1.400000
v -1.800000 28.008224 -1.400000
v -1.800000 31.008224 -3.000000
v -1.800000 28.008224 -1.400000
v -1.800000 28.008224 -3.000000
v -1.800000 31.008224 -3.000000
v -5.400000 31.008224 -3.000000
v -5.400000 28.008224 -3.000000
v -5.400000 31.008224 -1.400000
v -5.400000 28.008224 -3.000000
v -5.400000 28.008224 -1.400000
v -5.400000 31.008224 -1.400000
v -5.400000 31.008224 -3.000000
v -5.400000 31.008224 -1.400000
v -1.800000 31.008224 -3.000000
v -5.400000 31.008224 -1.400000
v -1.800000 31.008224 -1.400000
v -1.800000 31.008224 -3.000000
v -5.400000 28.008224 -1.400000
v -5.400000 28.008224 -3.000000
v -1.800000 28.008224 -1.400000
v -5.400000 28.008224 -3.000000
v -1.800000 28.008224 -3.000000
v -1.800000 28.008224 -1.400000
v -5.400000 31.008224 -1.400000
v -5.400000 28.008224 -1.400000
v -1.800000 31.008224 -1.400000
v -5.400000 28.008224 -1.400000
v -1.800000 28.008224 -1.400000
v -1.800000 31.008224 -1.400000
v -1.800000 31.008224 -3.000000
v -1.800000 28.008224 -3.000000
v -5.400000 31.008224 -3.000000
v -1.800000 28.008224 -3.000000
v -5.400000 28.008224 -3.000000
v -5.400000 31.008224 -3.000000
vt 0.545566 0.560770
vt 0.546010 0.515451
vt 0.530778 0.560625
vt 0.545347 0.516191
vt 0.531036 0.516050
vt 0.530606 0.559907
vt 0.546909 0.558752
vt 0.546588 0.513432
vt 0.532121 0.558856
vt 0.546588 0.513432
vt 0.531800 0.513537
vt 0.532121 0.558856
vt 0.523361 0.463032
vt 0.523361 0.448720
vt 0.479501 0.463032
vt 0.523361 0.448720
vt 0.479501 0.448720
vt 0.479501 0.463032
vt 0.632146 0.517029
vt 0.632146 0.531818
vt 0.586825 0.517029
vt 0.632146 0.531818
vt 0.586825 0.531818
vt 0.586825 0.517029
vt 0.131388 0.167061
vt 0.131388 0.212381
vt 0.176708 0.167061
vt 0.131388 0.212381
vt 0.176708 0.212381
vt 0.176708 0.167061
vt 0.572502 0.558034
vt 0.571293 0.518217
vt 0.529609 0.557705
vt 0.572215 0.517910
vt 0.529938 0.518196
vt 0.529609 0.557705
vn 1.0000 0.0000 0.0000
vn -1.0000 0.0000 0.0000
vn 0.0000 1.0000 0.0000
vn 0.0000 -1.0000 0.0000
vn 0.0000 0.0000 1.0000
vn 0.0000 0.0000 -1.0000
usemtl Material_0
s off
f 73/73/13 74/74/13 75/75/13
f 76/76/13 77/77/13 78/78/13
f 79/79/14 80/80/14 81/81/14
f 82/82/14 83/83/14 84/84/14
f 85/85/15 86/86/15 87/87/15
f 88/88/15 89/89/15 90/90/15
f 91/91/16 92/92/16 93/93/16
f 94/94/16 95/95/16 96/96/16
f 97/97/17 98/98/17 99/99/17
f 100/100/17 101/101/17 102/102/17
f 103/103/18 104/104/18 105/105/18
f 106/106/18 107/107/18 108/108/18
o f53b1225-f4a5-64d3-a707-f23276ea69ab_Mesh_9
v 4.000000 27.008224 -1.400000
v 4.000000 25.408224 -1.400000
v 4.000000 27.008224 -7.800000
v 4.000000 25.408224 -1.400000
v 4.000000 25.408224 -7.800000
v 4.000000 27.008224 -7.800000
v -4.000000 27.008224 -7.800000
v -4.000000 25.408224 -7.800000
v -4.000000 27.008224 -1.400000
v -4.000000 25.408224 -7.800000
v -4.000000 25.408224 -1.400000
v -4.000000 27.008224 -1.400000
v -4.000000 27.008224 -7.800000
v -4.000000 27.008224 -1.400000
v 4.000000 27.008224 -7.800000
v -4.000000 27.008224 -1.400000
v 4.000000 27.008224 -1.400000
v 4.000000 27.008224 -7.800000
v -4.000000 25.408224 -1.400000
v -4.000000 25.408224 -7.800000
v 4.000000 25.408224 -1.400000
v -4.000000 25.408224 -7.800000
v 4.000000 25.408224 -7.800000
v 4.000000 25.408224 -1.400000
v -4.000000 27.008224 -1.400000
v -4.000000 25.408224 -1.400000
v 4.000000 27.008224 -1.400000
v -4.000000 25.408224 -1.400000
v 4.000000 25.408224 -1.400000
v 4.000000 27.008224 -1.400000
v 4.000000 27.008224 -7.800000
v 4.000000 25.408224 -7.800000
v -4.000000 27.008224 -7.800000
v 4.000000 25.408224 -7.800000
v -4.000000 25.408224 -7.800000
v -4.000000 27.008224 -7.800000
vt 0.670297 0.422022
vt 0.670297 0.436811
vt 0.761415 0.422022
vt 0.670297 0.436811
vt 0.761415 0.436811
vt 0.761415 0.422022
vt 0.618819 0.438311
vt 0.618819 0.459109
vt 0.746962 0.438311
vt 0.618819 0.459109
vt 0.746962 0.459109
vt 0.746962 0.438311
vt 0.716877 0.486924
vt 0.716877 0.415959
vt 0.622134 0.486924
vt 0.716877 0.415959
vt 0.622134 0.415959
vt 0.622134 0.486924
vt 0.785993 0.379810
vt 0.789900 0.437640
vt 0.645186 0.386646
vt 0.797884 0.477099
vt 0.676234 0.477099
vt 0.676234 0.385981
vt 0.747633 0.438311
vt 0.747633 0.459109
vt 0.825940 0.444170
vt 0.848884 0.639826
vt 0.970534 0.639826
vt 0.970534 0.625037
vt 0.622134 0.487295
vt 0.622134 0.498813
vt 0.716877 0.487295
vt 0.622134 0.498813
vt 0.716877 0.498813
vt 0.716877 0.487295
vn 1.0000 0.0000 0.0000
vn -1.0000 0.0000 0.0000
vn 0.0000 1.0000 0.0000
vn 0.0000 -1.0000 0.0000
vn 0.0000 0.0000 1.0000
vn 0.0000 0.0000 -1.0000
usemtl Material_0
s off
f 109/109/19 110/110/19 111/111/19
f 112/112/19 113/113/19 114/114/19
f 115/115/20 116/116/20 117/117/20
f 118/118/20 119/119/20 120/120/20
f 121/121/21 122/122/21 123/123/21
f 124/124/21 125/125/21 126/126/21
f 127/127/22 128/128/22 129/129/22
f 130/130/22 131/131/22 132/132/22
f 133/133/23 134/134/23 135/135/23
f 136/136/23 137/137/23 138/138/23
f 139/139/24 140/140/24 141/141/24
f 142/142/24 143/143/24 144/144/24
o 7a637a75-a85a-c535-060f-6305f49505d3_Mesh_10
v 2.400000 25.408224 -1.400000
v 2.400000 24.608225 -1.400000
v 2.400000 25.408224 -5.800000
v 2.400000 24.608225 -1.400000
v 2.400000 24.608225 -5.800000
v 2.400000 25.408224 -5.800000
v -2.400000 25.408224 -5.800000
v -2.400000 24.608225 -5.800000
v -2.400000 25.408224 -1.400000
v -2.400000 24.608225 -5.800000
v -2.400000 24.608225 -1.400000
v -2.400000 25.408224 -1.400000
v -2.400000 25.408224 -5.800000
v -2.400000 25.408224 -1.400000
v 2.400000 25.408224 -5.800000
v -2.400000 25.408224 -1.400000
v 2.400000 25.408224 -1.400000
v 2.400000 25.408224 -5.800000
v -2.400000 24.608225 -1.400000
v -2.400000 24.608225 -5.800000
v 2.400000 24.608225 -1.400000
v -2.400000 24.608225 -5.800000
v 2.400000 24.608225 -5.800000
v 2.400000 24.608225 -1.400000
v -2.400000 25.408224 -1.400000
v -2.400000 24.608225 -1.400000
v 2.400000 25.408224 -1.400000
v -2.400000 24.608225 -1.400000
v 2.400000 24.608225 -1.400000
v 2.400000 25.408224 -1.400000
v 2.400000 25.408224 -5.800000
v 2.400000 24.608225 -5.800000
v -2.400000 25.408224 -5.800000
v 2.400000 24.608225 -5.800000
v -2.400000 24.608225 -5.800000
v -2.400000 25.408224 -5.800000
vt 0.727992 0.439288
vt 0.727992 0.454077
vt 0.803844 0.439288
vt 0.727992 0.454077
vt 0.803844 0.454077
vt 0.803844 0.439288
vt 0.716777 0.445467
vt 0.716777 0.456985
vt 0.775852 0.445467
vt 0.716777 0.456985
vt 0.775852 0.456985
vt 0.775852 0.445467
vt 0.909470 0.716155
vt 0.909470 0.640303
vt 0.833618 0.716155
vt 0.909470 0.640303
vt 0.833618 0.640303
vt 0.833618 0.716155
vt 0.716269 0.406904
vt 0.718222 0.446624
vt 0.640416 0.406904
vt 0.718222 0.446624
vt 0.640416 0.482757
vt 0.640416 0.406904
vt 0.986277 0.716632
vt 0.986277 0.731421
vt 1.062129 0.716632
vt 0.718699 0.461890
vt 0.794551 0.461890
vt 0.794551 0.447101
vt 0.731549 0.404451
vt 0.731549 0.415969
vt 0.790624 0.404451
vt 0.731549 0.415969
vt 0.790624 0.415969
vt 0.790624 0.404451
vn 1.0000 0.0000 0.0000
vn -1.0000 0.0000 0.0000
vn 0.0000 1.0000 0.0000
vn 0.0000 -1.0000 0.0000
vn 0.0000 0.0000 1.0000
vn 0.0000 0.0000 -1.0000
usemtl Material_0
s off
f 145/145/25 146/146/25 147/147/25
f 148/148/25 149/149/25 150/150/25
f 151/151/26 152/152/26 153/153/26
f 154/154/26 155/155/26 156/156/26
f 157/157/27 158/158/27 159/159/27
f 160/160/27 161/161/27 162/162/27
f 163/163/28 164/164/28 165/165/28
f 166/166/28 167/167/28 168/168/28
f 169/169/29 170/170/29 171/171/29
f 172/172/29 173/173/29 174/174/29
f 175/175/30 176/176/30 177/177/30
f 178/178/30 179/179/30 180/180/30
o edcbd956-def5-4c7d-ff4a-107f115c9733_Mesh_11
v -0.127211 28.608223 0.541417
v -0.127211 27.008224 0.541417
v 1.711267 28.608223 -1.297060
v -0.127211 27.008224 0.541417
v 1.711267 27.008224 -1.297060
v 1.711267 28.608223 -1.297060
v 0.014211 28.608223 -2.994117
v 0.014211 27.008224 -2.994117
v -1.824267 28.608223 -1.155640
v 0.014211 27.008224 -2.994117
v -1.824267 27.008224 -1.155640
v -1.824267 28.608223 -1.155640
v 0.014211 28.608223 -2.994117
v -1.824267 28.608223 -1.155640
v 1.711267 28.608223 -1.297060
v -1.824267 28.608223 -1.155640
v -0.127211 28.608223 0.541417
v 1.711267 28.608223 -1.297060
v -1.824267 27.008224 -1.155640
v 0.014211 27.008224 -2.994117
v -0.127211 27.008224 0.541417
v 0.014211 27.008224 -2.994117
v 1.711267 27.008224 -1.297060
v -0.127211 27.008224 0.541417
v -1.824267 28.608223 -1.155640
v -1.824267 27.008224 -1.155640
v -0.127211 28.608223 0.541417
v -1.824267 27.008224 -1.155640
v -0.127211 27.008224 0.541417
v -0.127211 28.608223 0.541417
v 1.711267 28.608223 -1.297060
v 1.711267 27.008224 -1.297060
v 0.014211 28.608223 -2.994117
v 1.711267 27.008224 -1.297060
v 0.014211 27.008224 -2.994117
v 0.014211 28.608223 -2.994117
vt 0.665693 0.472378
vt 0.665693 0.487167
vt 0.695748 0.472378
vt 0.665693 0.487167
vt 0.695748 0.487167
vt 0.695748 0.472378
vt 0.673317 0.462964
vt 0.673317 0.474481
vt 0.696724 0.462964
vt 0.673317 0.474481
vt 0.696724 0.474481
vt 0.696724 0.462964
vt 0.672945 0.462592
vt 0.672945 0.439185
vt 0.649538 0.462592
vt 0.672945 0.439185
vt 0.649538 0.439185
vt 0.649538 0.462592
vt 0.756812 0.441846
vt 0.756812 0.471901
vt 0.726757 0.441846
vt 0.756812 0.471901
vt 0.726757 0.471901
vt 0.726757 0.441846
vt 0.697096 0.462964
vt 0.697096 0.474481
vt 0.720503 0.462964
vt 0.757289 0.487167
vt 0.787343 0.487167
vt 0.787343 0.472378
vt 0.649538 0.462964
vt 0.649538 0.474481
vt 0.672945 0.462964
vt 0.649538 0.474481
vt 0.672945 0.474481
vt 0.672945 0.462964
vn 0.7071 0.0000 0.7071
vn -0.7071 0.0000 -0.7071
vn 0.0000 1.0000 0.0000
vn 0.0000 -1.0000 -0.0000
vn -0.7071 0.0000 0.7071
vn 0.7071 0.0000 -0.7071
usemtl Material_0
s off
f 181/181/31 182/182/31 183/183/31
f 184/184/31 185/185/31 186/186/31
f 187/187/32 188/188/32 189/189/32
f 190/190/32 191/191/32 192/192/32
f 193/193/33 194/194/33 195/195/33
f 196/196/33 197/197/33 198/198/33
f 199/199/34 200/200/34 201/201/34
f 202/202/34 203/203/34 204/204/34
f 205/205/35 206/206/35 207/207/35
f 208/208/35 209/209/35 210/210/35
f 211/211/36 212/212/36 213/213/36
f 214/214/36 215/215/36 216/216/36
o 89ea1d33-76f5-556b-a806-a51204c2ac45_Mesh_12
v 4.000000 15.460904 18.191170
v 4.000000 13.467028 19.120930
v 4.000000 8.614489 3.508984
v 4.000000 13.467028 19.120930
v 4.000000 6.620611 4.438745
v 4.000000 8.614489 3.508984
v -4.000000 8.614489 3.508984
v -4.000000 6.620611 4.438745
v -4.000000 15.460904 18.191170
v -4.000000 6.620611 4.438745
v -4.000000 13.467028 19.120930
v -4.000000 15.460904 18.191170
v -4.000000 8.614489 3.508984
v -4.000000 15.460904 18.191170
v 4.000000 8.614489 3.508984
v -4.000000 15.460904 18.191170
v 4.000000 15.460904 18.191170
v 4.000000 8.614489 3.508984
v -4.000000 13.467028 19.120930
v -4.000000 6.620611 4.438745
v 4.000000 13.467028 19.120930
v -4.000000 6.620611 4.438745
v 4.000000 6.620611 4.438745
v 4.000000 13.467028 19.120930
v -4.000000 15.460904 18.191170
v -4.000000 13.467028 19.120930
v 4.000000 15.460904 18.191170
v -4.000000 13.467028 19.120930
v 4.000000 13.467028 19.120930
v 4.000000 15.460904 18.191170
v 4.000000 8.614489 3.508984
v 4.000000 6.620611 4.438745
v -4.000000 8.614489 3.508984
v 4.000000 6.620611 4.438745
v -4.000000 6.620611 4.438745
v -4.000000 8.614489 3.508984
vt 0.347254 0.625320
vt 0.347254 0.644329
vt 0.501432 0.625320
vt 0.347254 0.644329
vt 0.501432 0.644329
vt 0.501432 0.625320
vt 0.266420 0.516862
vt 0.266420 0.546916
vt 0.510197 0.516862
vt 0.266420 0.546916
vt 0.510197 0.546916
vt 0.510197 0.516862
vt 0.444400 0.753409
vt 0.444400 0.509632
vt 0.322750 0.753409
vt 0.444400 0.509632
vt 0.322750 0.509632
vt 0.322750 0.753409
vt 0.461058 0.506703
vt 0.461058 0.750480
vt 0.339408 0.506703
vt 0.461058 0.750480
vt 0.339408 0.750480
vt 0.339408 0.506703
vt 0.312178 0.624980
vt 0.312178 0.655035
vt 0.433828 0.624980
vt 0.312178 0.655035
vt 0.433828 0.655035
vt 0.433828 0.624980
vt 0.322750 0.753886
vt 0.319820 0.624761
vt 0.444400 0.753886
vt 0.501734 0.644329
vt 0.420962 0.532965
vt 0.420962 0.502910
vn 1.0000 0.0000 0.0000
vn -1.0000 -0.0000 0.0000
vn 0.0000 0.9063 -0.4226
vn 0.0000 -0.9063 0.4226
vn 0.0000 0.4226 0.9063
vn 0.0000 -0.4226 -0.9063
usemtl Material_0
s off
f 217/217/37 218/218/37 219/219/37
f 220/220/37 221/221/37 222/222/37
f 223/223/38 224/224/38 225/225/38
f 226/226/38 227/227/38 228/228/38
f 229/229/39 230/230/39 231/231/39
f 232/232/39 233/233/39 234/234/39
f 235/235/40 236/236/40 237/237/40
f 238/238/40 239/239/40 240/240/40
f 241/241/41 242/242/41 243/243/41
f 244/244/41 245/245/41 246/246/41
f 247/247/42 248/248/42 249/249/42
f 250/250/42 251/251/42 252/252/42
o bdaac01a-6b8c-27be-d516-1f721a8c9d66_Mesh_13
v 7.000000 33.408226 8.300000
v 7.000000 31.408224 8.300000
v 7.000000 33.408226 -5.700000
v 7.000000 31.408224 8.300000
v 7.000000 31.408224 -5.700000
v 7.000000 33.408226 -5.700000
v -7.000000 33.408226 -5.700000
v -7.000000 31.408224 -5.700000
v -7.000000 33.408226 8.300000
v -7.000000 31.408224 -5.700000
v -7.000000 31.408224 8.300000
v -7.000000 33.408226 8.300000
v -7.000000 33.408226 -5.700000
v -7.000000 33.408226 8.300000
v 7.000000 33.408226 -5.700000
v -7.000000 33.408226 8.300000
v 7.000000 33.408226 8.300000
v 7.000000 33.408226 -5.700000
v -7.000000 31.408224 8.300000
v -7.000000 31.408224 -5.700000
v 7.000000 31.408224 8.300000
v -7.000000 31.408224 -5.700000
v 7.000000 31.408224 -5.700000
v 7.000000 31.408224 8.300000
v -7.000000 33.408226 8.300000
v -7.000000 31.408224 8.300000
v 7.000000 33.408226 8.300000
v -7.000000 31.408224 8.300000
v 7.000000 31.408224 8.300000
v 7.000000 33.408226 8.300000
v 7.000000 33.408226 -5.700000
v 7.000000 31.408224 -5.700000
v -7.000000 33.408226 -5.700000
v 7.000000 31.408224 -5.700000
v -7.000000 31.408224 -5.700000
v -7.000000 33.408226 -5.700000
vt 0.257841 0.783280
vt 0.257841 0.813334
vt 0.471086 0.783280
vt 0.257841 0.813334
vt 0.471086 0.813334
vt 0.471086 0.783280
vt 0.385760 0.941380
vt 0.385760 0.954225
vt 0.450512 0.938919
vt 0.385760 0.954225
vt 0.450512 0.951764
vt 0.450512 0.938919
vt 0.385431 0.941176
vt 0.385431 0.850035
vt 0.238242 0.941176
vt 0.385431 0.850035
vt 0.238242 0.850035
vt 0.238242 0.941176
vt 0.450512 0.847575
vt 0.450512 0.938715
vt 0.385760 0.850035
vt 0.465279 0.991319
vt 0.252034 0.991319
vt 0.252034 0.778074
vt 0.306673 0.858309
vt 0.306673 0.871154
vt 0.322170 0.870166
vt 0.237074 0.920298
vt 0.450319 0.920298
vt 0.450319 0.890243
vt 0.238242 0.941380
vt 0.238242 0.954225
vt 0.385431 0.941380
vt 0.238242 0.954225
vt 0.385431 0.954225
vt 0.385431 0.941380
vn 1.0000 0.0000 0.0000
vn -1.0000 0.0000 0.0000
vn 0.0000 1.0000 0.0000
vn 0.0000 -1.0000 0.0000
vn 0.0000 0.0000 1.0000
vn 0.0000 0.0000 -1.0000
usemtl Material_0
s off
f 253/253/43 254/254/43 255/255/43
f 256/256/43 257/257/43 258/258/43
f 259/259/44 260/260/44 261/261/44
f 262/262/44 263/263/44 264/264/44
f 265/265/45 266/266/45 267/267/45
f 268/268/45 269/269/45 270/270/45
f 271/271/46 272/272/46 273/273/46
f 274/274/46 275/275/46 276/276/46
f 277/277/47 278/278/47 279/279/47
f 280/280/47 281/281/47 282/282/47
f 283/283/48 284/284/48 285/285/48
f 286/286/48 287/287/48 288/288/48
o 05a2e211-4e03-91ec-6eed-b329d7765adf_Mesh_14
v 4.780236 38.454105 5.923336
v 4.780236 33.654106 5.923336
v 4.780236 38.454105 -3.221464
v 4.780236 33.654106 5.923336
v 4.780236 33.654106 -3.221464
v 4.780236 38.454105 -3.221464
v -4.780236 38.454105 -3.221464
v -4.780236 33.654106 -3.221464
v -4.780236 38.454105 5.923336
v -4.780236 33.654106 -3.221464
v -4.780236 33.654106 5.923336
v -4.780236 38.454105 5.923336
v -4.780236 38.454105 -3.221464
v -4.780236 38.454105 5.923336
v 4.780236 38.454105 -3.221464
v -4.780236 38.454105 5.923336
v 4.780236 38.454105 5.923336
v 4.780236 38.454105 -3.221464
v -4.780236 33.654106 5.923336
v -4.780236 33.654106 -3.221464
v 4.780236 33.654106 5.923336
v -4.780236 33.654106 -3.221464
v 4.780236 33.654106 -3.221464
v 4.780236 33.654106 5.923336
v -4.780236 38.454105 5.923336
v -4.780236 33.654106 5.923336
v 4.780236 38.454105 5.923336
v -4.780236 33.654106 5.923336
v 4.780236 33.654106 5.923336
v 4.780236 38.454105 5.923336
v 4.780236 38.454105 -3.221464
v 4.780236 33.654106 -3.221464
v -4.780236 38.454105 -3.221464
v 4.780236 33.654106 -3.221464
v -4.780236 33.654106 -3.221464
v -4.780236 38.454105 -3.221464
vt 0.765617 0.642904
vt 0.765369 0.582319
vt 0.643968 0.643402
vt 0.765369 0.582319
vt 0.643720 0.582816
vt 0.643968 0.643402
vt 0.825925 0.636961
vt 0.825349 0.587118
vt 0.629469 0.635664
vt 0.826325 0.585677
vt 0.629869 0.584380
vt 0.629469 0.635664
vt 0.636594 0.975032
vt 0.636594 0.853382
vt 0.499678 0.975032
vt 0.636594 0.853382
vt 0.499678 0.853382
vt 0.499678 0.975032
vt 0.411573 0.834828
vt 0.411573 0.956478
vt 0.311553 0.838734
vt 0.395080 0.970150
vt 0.258164 0.970150
vt 0.258164 0.848500
vt 0.776380 0.641918
vt 0.773445 0.579624
vt 0.640340 0.639973
vt 0.774140 0.578335
vt 0.640659 0.581081
vt 0.641017 0.639170
vt 0.754200 0.636461
vt 0.755118 0.580706
vt 0.675867 0.635171
vt 0.755118 0.580706
vt 0.676785 0.579416
vt 0.675867 0.635171
vn 1.0000 0.0000 0.0000
vn -1.0000 0.0000 0.0000
vn 0.0000 1.0000 0.0000
vn 0.0000 -1.0000 0.0000
vn 0.0000 0.0000 1.0000
vn 0.0000 0.0000 -1.0000
usemtl Material_0
s off
f 289/289/49 290/290/49 291/291/49
f 292/292/49 293/293/49 294/294/49
f 295/295/50 296/296/50 297/297/50
f 298/298/50 299/299/50 300/300/50
f 301/301/51 302/302/51 303/303/51
f 304/304/51 305/305/51 306/306/51
f 307/307/52 308/308/52 309/309/52
f 310/310/52 311/311/52 312/312/52
f 313/313/53 314/314/53 315/315/53
f 316/316/53 317/317/53 318/318/53
f 319/319/54 320/320/54 321/321/54
f 322/322/54 323/323/54 324/324/54
