# 3ds Max Wavefront OBJ Exporter v0.99 - (c)2007 guruware
# File Created: 20.05.2022 19:59:34

mtllib phineas_leftleg.mtl

#
# object Cube
#

v  -2.1557 -21.8890 -2.0996
v  -2.1557 -21.8890 2.1409
v  7.6501 -21.8890 2.1409
v  7.6501 -21.8890 -2.0996
v  -2.1557 -22.7844 2.1409
v  7.6501 -22.7844 2.1409
v  -2.1557 -22.7844 -2.0996
v  7.6501 -22.7844 -2.0996
# 8 vertices

vn 0.0000 1.0000 -0.0000
vn 0.0000 0.0000 1.0000
vn -1.0000 0.0000 -0.0000
vn 0.0000 -1.0000 -0.0000
vn 1.0000 0.0000 -0.0000
vn 0.0000 0.0000 -1.0000
# 6 vertex normals

vt 0.0188 0.5332 0.0000
vt 0.0180 0.3319 0.0000
vt 0.3984 0.3324 0.0000
vt 0.3989 0.5317 0.0000
vt 0.3991 0.3360 0.0000
vt 0.0199 0.3358 0.0000
vt 0.0193 0.2538 0.0000
vt 0.3987 0.2547 0.0000
vt 0.3973 0.3365 0.0000
vt 0.0200 0.3358 0.0000
vt 0.0193 0.2537 0.0000
vt 0.3975 0.2557 0.0000
vt 0.3209 0.4126 0.0000
vt 0.3209 0.4707 0.0000
vt 0.2628 0.4707 0.0000
vt 0.2628 0.4126 0.0000
vt 0.3977 0.3375 0.0000
vt 0.0194 0.3375 0.0000
vt 0.0197 0.2525 0.0000
vt 0.3980 0.2526 0.0000
vt 0.3985 0.3374 0.0000
vt 0.0183 0.3370 0.0000
vt 0.0187 0.2514 0.0000
vt 0.3989 0.2517 0.0000
# 24 texture coords

o Cube
g Cube
usemtl Material
s off
f 1/1/1 2/2/1 3/3/1 
f 3/3/1 4/4/1 1/1/1 
f 3/5/2 2/6/2 5/7/2 
f 5/7/2 6/8/2 3/5/2 
f 2/9/3 1/10/3 7/11/3 
f 7/11/3 5/12/3 2/9/3 
f 8/13/4 6/14/4 5/15/4 
f 5/15/4 7/16/4 8/13/4 
f 4/17/5 3/18/5 6/19/5 
f 6/19/5 8/20/5 4/17/5 
f 1/21/6 4/22/6 8/23/6 
f 8/23/6 7/24/6 1/21/6 
# 12 faces

#
# object Cube_001
#

v  -1.9863 -20.3663 -2.0375
v  -1.9863 -20.3663 2.0022
v  3.6087 -20.3663 2.0022
v  3.6087 -20.3663 -2.0375
v  -1.9863 -21.8269 2.0022
v  3.6087 -21.8269 2.0022
v  -1.9863 -21.8269 -2.0375
v  3.6087 -21.8269 -2.0375
# 8 vertices

vn 0.0000 1.0000 -0.0000
vn 0.0000 0.0000 1.0000
vn -1.0000 0.0000 -0.0000
vn 0.0000 -1.0000 -0.0000
vn 1.0000 0.0000 -0.0000
vn 0.0000 0.0000 -1.0000
# 6 vertex normals

vt 0.8066 0.9162 0.0000
vt 0.7665 0.9163 0.0000
vt 0.7665 0.8762 0.0000
vt 0.8066 0.8761 0.0000
vt 0.7264 0.8762 0.0000
vt 0.7264 0.8361 0.0000
vt 0.7665 0.8361 0.0000
vt 0.8867 0.8761 0.0000
vt 0.8467 0.8761 0.0000
vt 0.8466 0.8360 0.0000
vt 0.8867 0.8360 0.0000
vt 0.3750 0.5000 0.0000
vt 0.3750 0.7500 0.0000
vt 0.1250 0.7500 0.0000
vt 0.1250 0.5000 0.0000
vt 0.8066 0.8361 0.0000
# 16 texture coords

o Cube_001
g Cube_001
usemtl Material_001
s off
f 9/25/7 10/26/7 11/27/7 
f 11/27/7 12/28/7 9/25/7 
f 11/27/8 10/29/8 13/30/8 
f 13/30/8 14/31/8 11/27/8 
f 10/32/9 9/33/9 15/34/9 
f 15/34/9 13/35/9 10/32/9 
f 16/36/10 14/37/10 13/38/10 
f 13/38/10 15/39/10 16/36/10 
f 12/28/11 11/27/11 14/31/11 
f 14/31/11 16/40/11 12/28/11 
f 9/33/12 12/28/12 16/40/12 
f 16/40/12 15/34/12 9/33/12 
# 12 faces

#
# object Cube_002
#

v  -0.7472 -7.5922 1.1921
v  -0.7472 -7.5922 -1.0862
v  -0.7472 -20.8185 -1.0862
v  -0.7472 -20.8185 1.1921
v  1.5311 -7.5922 -1.0862
v  1.5311 -20.8185 -1.0862
v  1.5311 -7.5922 1.1921
v  1.5311 -20.8185 1.1921
# 8 vertices

vn -1.0000 0.0000 -0.0000
vn 0.0000 0.0000 -1.0000
vn 1.0000 0.0000 -0.0000
vn 0.0000 0.0000 1.0000
vn 0.0000 -1.0000 -0.0000
vn 0.0000 1.0000 -0.0000
# 6 vertex normals

vt 0.5339 0.1767 0.0000
vt 0.5339 0.2329 0.0000
vt 0.4778 0.2329 0.0000
vt 0.4778 0.1767 0.0000
vt 0.5339 0.2891 0.0000
vt 0.4778 0.2891 0.0000
vt 0.5339 0.3452 0.0000
vt 0.4778 0.3452 0.0000
vt 0.5339 0.4014 0.0000
vt 0.4778 0.4014 0.0000
vt 0.3750 0.5000 0.0000
vt 0.3750 0.7500 0.0000
vt 0.1250 0.7500 0.0000
vt 0.1250 0.5000 0.0000
vt 0.8750 0.5000 0.0000
vt 0.8750 0.7500 0.0000
vt 0.6250 0.7500 0.0000
vt 0.6250 0.5000 0.0000
# 18 texture coords

o Cube_002
g Cube_002
usemtl Material_007
s off
f 17/41/13 18/42/13 19/43/13 
f 19/43/13 20/44/13 17/41/13 
f 18/42/14 21/45/14 22/46/14 
f 22/46/14 19/43/14 18/42/14 
f 21/45/15 23/47/15 24/48/15 
f 24/48/15 22/46/15 21/45/15 
f 23/47/16 17/49/16 20/50/16 
f 20/50/16 24/48/16 23/47/16 
f 22/51/17 24/52/17 20/53/17 
f 20/53/17 19/54/17 22/51/17 
f 18/55/18 17/56/18 23/57/18 
f 23/57/18 21/58/18 18/55/18 
# 12 faces

#
# object Cube_006
#

v  -3.4470 -1.2121 3.1013
v  -3.4470 -1.2121 -2.7283
v  -3.4470 -8.8900 -2.7283
v  -3.4470 -8.8900 3.1013
v  4.2309 -1.2121 -2.7283
v  4.2309 -8.8900 -2.7283
v  4.2309 -1.2121 3.1013
v  4.2309 -8.8900 3.1013
# 8 vertices

vn -1.0000 0.0000 -0.0000
vn 0.0000 0.0000 -1.0000
vn 1.0000 0.0000 -0.0000
vn 0.0000 0.0000 1.0000
vn 0.0000 -1.0000 -0.0000
vn 0.0000 1.0000 -0.0000
# 6 vertex normals

vt 0.9180 0.7810 0.0000
vt 0.9196 0.9737 0.0000
vt 0.6841 0.9723 0.0000
vt 0.6839 0.7810 0.0000
vt 0.9189 0.7815 0.0000
vt 0.9189 0.9718 0.0000
vt 0.6821 0.9734 0.0000
vt 0.6821 0.7831 0.0000
vt 0.9195 0.7821 0.0000
vt 0.9180 0.9717 0.0000
vt 0.6853 0.9731 0.0000
vt 0.6853 0.7810 0.0000
vt 0.6791 0.7829 0.0000
vt 0.6776 0.9728 0.0000
vt 0.4411 0.9728 0.0000
vt 0.4415 0.7829 0.0000
vt 0.9181 0.7836 0.0000
vt 0.9194 0.9717 0.0000
vt 0.6836 0.9731 0.0000
vt 0.6824 0.7812 0.0000
vt 0.8750 0.5000 0.0000
vt 0.8750 0.7500 0.0000
vt 0.6250 0.7500 0.0000
vt 0.6250 0.5000 0.0000
# 24 texture coords

o Cube_006
g Cube_006
usemtl Material_011
s off
f 25/59/19 26/60/19 27/61/19 
f 27/61/19 28/62/19 25/59/19 
f 26/63/20 29/64/20 30/65/20 
f 30/65/20 27/66/20 26/63/20 
f 29/67/21 31/68/21 32/69/21 
f 32/69/21 30/70/21 29/67/21 
f 31/71/22 25/72/22 28/73/22 
f 28/73/22 32/74/22 31/71/22 
f 30/75/23 32/76/23 28/77/23 
f 28/77/23 27/78/23 30/75/23 
f 26/79/24 25/80/24 31/81/24 
f 31/81/24 29/82/24 26/79/24 
# 12 faces

