# 3ds Max Wavefront OBJ Exporter v0.99 - (c)2007 guruware
# File Created: 20.05.2022 19:56:43

mtllib phineas_leftarm.mtl

#
# object Cube_011
#

v  -3.8105 -12.1668 6.9293
v  -3.8105 -14.3488 3.0007
v  -3.8105 -19.0004 5.5843
v  -3.8105 -16.8183 9.5129
v  0.0523 -14.3488 3.0007
v  0.0523 -19.0004 5.5843
v  0.0523 -12.1668 6.9293
v  0.0523 -16.8183 9.5129
# 8 vertices

vn -1.0000 0.0000 -0.0000
vn 0.0000 -0.4856 -0.8742
vn 1.0000 0.0000 -0.0000
vn 0.0000 0.4856 0.8742
vn 0.0000 -0.8742 0.4856
vn 0.0000 0.8742 -0.4856
# 6 vertex normals

vt 0.5532 0.6407 0.0000
vt 0.5532 0.6680 0.0000
vt 0.5093 0.6680 0.0000
vt 0.5093 0.6407 0.0000
vt 0.5532 0.6953 0.0000
vt 0.5093 0.6953 0.0000
vt 0.5532 0.7226 0.0000
vt 0.5093 0.7226 0.0000
vt 0.5532 0.7499 0.0000
vt 0.5093 0.7499 0.0000
vt 0.4655 0.7226 0.0000
vt 0.4655 0.6953 0.0000
vt 0.5970 0.6953 0.0000
vt 0.5970 0.7226 0.0000
# 14 texture coords

o Cube_011
g Cube_011
usemtl Material_025
s off
f 1/1/1 2/2/1 3/3/1 
f 3/3/1 4/4/1 1/1/1 
f 2/2/2 5/5/2 6/6/2 
f 6/6/2 3/3/2 2/2/2 
f 5/5/3 7/7/3 8/8/3 
f 8/8/3 6/6/3 5/5/3 
f 7/7/4 1/9/4 4/10/4 
f 4/10/4 8/8/4 7/7/4 
f 6/6/5 8/8/5 4/11/5 
f 4/11/5 3/12/5 6/6/5 
f 2/13/6 1/14/6 7/7/6 
f 7/7/6 5/5/6 2/13/6 
# 12 faces

#
# object Cube_012
#

v  -2.7719 -10.2639 4.0303
v  -2.7719 -10.9117 2.8640
v  -2.7719 -15.3632 5.3365
v  -2.7719 -14.7154 6.5028
v  -1.0069 -10.9117 2.8640
v  -1.0069 -15.3632 5.3365
v  -1.0069 -10.2639 4.0303
v  -1.0069 -14.7154 6.5028
# 8 vertices

vn -1.0000 0.0000 -0.0000
vn 0.0000 -0.4856 -0.8742
vn 1.0000 0.0000 -0.0000
vn 0.0000 0.4856 0.8742
vn 0.0000 -0.8742 0.4856
vn 0.0000 0.8742 -0.4856
# 6 vertex normals

vt 0.5599 0.6462 0.0000
vt 0.5599 0.6739 0.0000
vt 0.5114 0.6739 0.0000
vt 0.5114 0.6462 0.0000
vt 0.5599 0.7015 0.0000
vt 0.5114 0.7015 0.0000
vt 0.5417 0.7173 0.0000
vt 0.5417 0.7204 0.0000
vt 0.5332 0.7204 0.0000
vt 0.5332 0.7173 0.0000
vt 0.5599 0.7292 0.0000
vt 0.5599 0.7568 0.0000
vt 0.5114 0.7568 0.0000
vt 0.5114 0.7292 0.0000
vt 0.4629 0.7292 0.0000
vt 0.4629 0.7015 0.0000
vt 0.6084 0.7015 0.0000
vt 0.6084 0.7292 0.0000
# 18 texture coords

o Cube_012
g Cube_012
usemtl Material_006
s off
f 9/15/7 10/16/7 11/17/7 
f 11/17/7 12/18/7 9/15/7 
f 10/16/8 13/19/8 14/20/8 
f 14/20/8 11/17/8 10/16/8 
f 13/21/9 15/22/9 16/23/9 
f 16/23/9 14/24/9 13/21/9 
f 15/25/10 9/26/10 12/27/10 
f 12/27/10 16/28/10 15/25/10 
f 14/20/11 16/28/11 12/29/11 
f 12/29/11 11/30/11 14/20/11 
f 10/31/12 9/32/12 15/25/12 
f 15/25/12 13/19/12 10/31/12 
# 12 faces

#
# object Cube_013
#

v  -5.2681 -1.6984 2.2530
v  -5.2681 -4.4846 -2.7634
v  -5.2681 -6.7635 -1.4976
v  -5.2681 -3.9772 3.5188
v  1.6017 -4.4846 -2.7634
v  1.6017 -6.7635 -1.4976
v  1.6017 -1.6984 2.2530
v  1.6017 -3.9772 3.5188
# 8 vertices

vn -1.0000 0.0000 -0.0000
vn 0.0000 -0.4856 -0.8742
vn 1.0000 0.0000 -0.0000
vn 0.0000 0.4856 0.8742
vn 0.0000 -0.8742 0.4856
vn 0.0000 0.8742 -0.4856
# 6 vertex normals

vt 0.2852 0.7159 0.0000
vt 0.2852 0.7310 0.0000
vt 0.1523 0.7310 0.0000
vt 0.1523 0.7159 0.0000
vt 0.2852 0.7461 0.0000
vt 0.1523 0.7461 0.0000
vt 0.2852 0.7612 0.0000
vt 0.1523 0.7612 0.0000
vt 0.2852 0.7763 0.0000
vt 0.1523 0.7763 0.0000
vt 0.0194 0.7612 0.0000
vt 0.0194 0.7461 0.0000
vt 0.4181 0.7461 0.0000
vt 0.4181 0.7612 0.0000
# 14 texture coords

o Cube_013
g Cube_013
usemtl Material_022
s off
f 17/33/13 18/34/13 19/35/13 
f 19/35/13 20/36/13 17/33/13 
f 18/34/14 21/37/14 22/38/14 
f 22/38/14 19/35/14 18/34/14 
f 21/37/15 23/39/15 24/40/15 
f 24/40/15 22/38/15 21/37/15 
f 23/39/16 17/41/16 20/42/16 
f 20/42/16 24/40/16 23/39/16 
f 22/38/17 24/40/17 20/43/17 
f 20/43/17 19/44/17 22/38/17 
f 18/45/18 17/46/18 23/39/18 
f 23/39/18 21/37/18 18/45/18 
# 12 faces

#
# object Cube_046_Cube_050
#

v  -5.3682 -3.6976 3.2751
v  -5.3682 -6.4088 -1.6062
v  -5.3682 -8.1780 -0.6236
v  -5.3682 -5.4668 4.2577
v  1.7018 -6.4088 -1.6062
v  1.7018 -8.1780 -0.6236
v  1.7018 -3.6976 3.2751
v  1.7018 -5.4668 4.2577
# 8 vertices

vn -1.0000 0.0000 -0.0000
vn 0.0000 -0.4856 -0.8742
vn 1.0000 0.0000 -0.0000
vn 0.0000 0.4856 0.8742
vn 0.0000 -0.8742 0.4856
vn 0.0000 0.8742 -0.4856
# 6 vertex normals

vt 0.2437 0.9574 0.0000
vt 0.2437 0.9289 0.0000
vt 0.1547 0.9289 0.0000
vt 0.1547 0.9574 0.0000
vt 0.2437 0.9004 0.0000
vt 0.1547 0.9004 0.0000
vt 0.2437 0.8719 0.0000
vt 0.1547 0.8719 0.0000
vt 0.2437 0.8433 0.0000
vt 0.1547 0.8433 0.0000
vt 0.0657 0.8719 0.0000
vt 0.0657 0.9004 0.0000
vt 0.3328 0.9004 0.0000
vt 0.3328 0.8719 0.0000
# 14 texture coords

o Cube_046_Cube_050
g Cube_046_Cube_050
usemtl Material_023
s off
f 25/47/19 26/48/19 27/49/19 
f 27/49/19 28/50/19 25/47/19 
f 26/48/20 29/51/20 30/52/20 
f 30/52/20 27/49/20 26/48/20 
f 29/51/21 31/53/21 32/54/21 
f 32/54/21 30/52/21 29/51/21 
f 31/53/22 25/55/22 28/56/22 
f 28/56/22 32/54/22 31/53/22 
f 30/52/23 32/54/23 28/57/23 
f 28/57/23 27/58/23 30/52/23 
f 26/59/24 25/60/24 31/53/24 
f 31/53/24 29/51/24 26/59/24 
# 12 faces

#
# object Cube_047_Cube_051
#

v  -5.4642 -0.2816 0.4322
v  -5.4642 -2.1901 -3.0038
v  -5.4642 -4.5921 -1.6697
v  -5.4642 -2.6836 1.7663
v  1.7978 -2.1901 -3.0038
v  1.7978 -4.5921 -1.6697
v  1.7978 -0.2816 0.4322
v  1.7978 -2.6836 1.7663
# 8 vertices

vn -1.0000 0.0000 -0.0000
vn 0.0000 -0.4856 -0.8742
vn 1.0000 0.0000 -0.0000
vn 0.0000 0.4856 0.8742
vn 0.0000 -0.8742 0.4856
vn 0.0000 0.8742 -0.4856
# 6 vertex normals

vt 0.2375 0.8463 0.0000
vt 0.2375 0.8724 0.0000
vt 0.1609 0.8724 0.0000
vt 0.1609 0.8463 0.0000
vt 0.2375 0.8984 0.0000
vt 0.1609 0.8984 0.0000
vt 0.2375 0.9245 0.0000
vt 0.1609 0.9245 0.0000
vt 0.2375 0.9506 0.0000
vt 0.1609 0.9506 0.0000
vt 0.0844 0.9245 0.0000
vt 0.0844 0.8984 0.0000
vt 0.3141 0.8984 0.0000
vt 0.3141 0.9245 0.0000
# 14 texture coords

o Cube_047_Cube_051
g Cube_047_Cube_051
usemtl Material_021
s off
f 33/61/25 34/62/25 35/63/25 
f 35/63/25 36/64/25 33/61/25 
f 34/62/26 37/65/26 38/66/26 
f 38/66/26 35/63/26 34/62/26 
f 37/65/27 39/67/27 40/68/27 
f 40/68/27 38/66/27 37/65/27 
f 39/67/28 33/69/28 36/70/28 
f 36/70/28 40/68/28 39/67/28 
f 38/66/29 40/68/29 36/71/29 
f 36/71/29 35/72/29 38/66/29 
f 34/73/30 33/74/30 39/67/30 
f 39/67/30 37/65/30 34/73/30 
# 12 faces

#
# object Cube_050_Cube_065
#

v  -2.7719 -5.9478 1.5438
v  -2.7719 -6.5956 0.3775
v  -2.7719 -11.0471 2.8501
v  -2.7719 -10.3993 4.0163
v  -1.0069 -6.5956 0.3775
v  -1.0069 -11.0471 2.8501
v  -1.0069 -5.9478 1.5438
v  -1.0069 -10.3993 4.0163
# 8 vertices

vn -1.0000 0.0000 -0.0000
vn 0.0000 -0.4856 -0.8742
vn 1.0000 0.0000 -0.0000
vn 0.0000 0.4856 0.8742
vn 0.0000 -0.8742 0.4856
vn 0.0000 0.8742 -0.4856
# 6 vertex normals

vt 0.5599 0.6462 0.0000
vt 0.5599 0.6739 0.0000
vt 0.5114 0.6739 0.0000
vt 0.5114 0.6462 0.0000
vt 0.5599 0.7015 0.0000
vt 0.5114 0.7015 0.0000
vt 0.5599 0.7292 0.0000
vt 0.5114 0.7292 0.0000
vt 0.5599 0.7568 0.0000
vt 0.5114 0.7568 0.0000
vt 0.4629 0.7292 0.0000
vt 0.4629 0.7015 0.0000
vt 0.6084 0.7015 0.0000
vt 0.6084 0.7292 0.0000
# 14 texture coords

o Cube_050_Cube_065
g Cube_050_Cube_065
usemtl Material_024
s off
f 41/75/31 42/76/31 43/77/31 
f 43/77/31 44/78/31 41/75/31 
f 42/76/32 45/79/32 46/80/32 
f 46/80/32 43/77/32 42/76/32 
f 45/79/33 47/81/33 48/82/33 
f 48/82/33 46/80/33 45/79/33 
f 47/81/34 41/83/34 44/84/34 
f 44/84/34 48/82/34 47/81/34 
f 46/80/35 48/82/35 44/85/35 
f 44/85/35 43/86/35 46/80/35 
f 42/87/36 41/88/36 47/81/36 
f 47/81/36 45/79/36 42/87/36 
# 12 faces

