# 3ds Max Wavefront OBJ Exporter v0.99 - (c)2007 guruware
# File Created: 20.05.2022 19:57:55

mtllib phineas_rightarm.mtl

#
# object Cube_048_Cube_103
#

v  -3.6555 -15.9022 -4.9769
v  -3.6555 -11.9746 -2.7953
v  -3.6555 -9.6113 -7.0502
v  -3.6555 -13.5389 -9.2318
v  1.5659 -15.9022 -4.9769
v  1.5659 -11.9746 -2.7953
v  1.5659 -13.5389 -9.2318
v  1.5659 -9.6113 -7.0502
# 8 vertices

vn -1.0000 0.0000 -0.0000
vn 0.0000 -0.4856 0.8742
vn 1.0000 0.0000 -0.0000
vn 0.0000 0.4856 -0.8742
vn 0.0000 -0.8742 -0.4856
vn 0.0000 0.8742 0.4856
# 6 vertex normals

vt 0.5093 0.6680 0.0000
vt 0.5532 0.6680 0.0000
vt 0.5532 0.6407 0.0000
vt 0.5093 0.6407 0.0000
vt 0.5093 0.6953 0.0000
vt 0.5532 0.6953 0.0000
vt 0.5093 0.7226 0.0000
vt 0.5532 0.7226 0.0000
vt 0.5093 0.7499 0.0000
vt 0.5532 0.7499 0.0000
vt 0.4655 0.7226 0.0000
vt 0.4655 0.6953 0.0000
vt 0.5970 0.7226 0.0000
vt 0.5970 0.6953 0.0000
# 14 texture coords

o Cube_048_Cube_103
g Cube_048_Cube_103
usemtl Material_042
s off
f 1/1/1 2/2/1 3/3/1 
f 3/3/1 4/4/1 1/1/1 
f 5/5/2 6/6/2 2/2/2 
f 2/2/2 1/1/2 5/5/2 
f 7/7/3 8/8/3 6/6/3 
f 6/6/3 5/5/3 7/7/3 
f 4/9/4 3/10/4 8/8/4 
f 8/8/4 7/7/4 4/9/4 
f 4/11/5 7/7/5 5/5/5 
f 5/5/5 1/12/5 4/11/5 
f 8/8/6 3/13/6 2/14/6 
f 2/14/6 6/6/6 8/8/6 
# 12 faces

#
# object Cube_032_Cube_102
#

v  -1.9376 -12.5364 -5.0933
v  -1.9376 -8.0849 -2.6208
v  -1.9376 -7.4371 -3.7871
v  -1.9376 -11.8886 -6.2596
v  -0.1727 -12.5364 -5.0933
v  -0.1727 -8.0849 -2.6208
v  -0.1727 -11.8886 -6.2596
v  -0.1727 -7.4371 -3.7871
# 8 vertices

vn -1.0000 0.0000 -0.0000
vn 0.0000 -0.4856 0.8742
vn 1.0000 0.0000 -0.0000
vn 0.0000 0.4856 -0.8742
vn 0.0000 -0.8742 -0.4856
vn 0.0000 0.8742 0.4856
# 6 vertex normals

vt 0.5114 0.6739 0.0000
vt 0.5599 0.6739 0.0000
vt 0.5599 0.6462 0.0000
vt 0.5114 0.6462 0.0000
vt 0.5114 0.7015 0.0000
vt 0.5599 0.7015 0.0000
vt 0.5332 0.7204 0.0000
vt 0.5417 0.7204 0.0000
vt 0.5417 0.7173 0.0000
vt 0.5332 0.7173 0.0000
vt 0.5114 0.7568 0.0000
vt 0.5599 0.7568 0.0000
vt 0.5599 0.7292 0.0000
vt 0.5114 0.7292 0.0000
vt 0.4629 0.7292 0.0000
vt 0.4629 0.7015 0.0000
vt 0.6084 0.7292 0.0000
vt 0.6084 0.7015 0.0000
# 18 texture coords

o Cube_032_Cube_102
g Cube_032_Cube_102
usemtl Material_047
s off
f 9/15/7 10/16/7 11/17/7 
f 11/17/7 12/18/7 9/15/7 
f 13/19/8 14/20/8 10/16/8 
f 10/16/8 9/15/8 13/19/8 
f 15/21/9 16/22/9 14/23/9 
f 14/23/9 13/24/9 15/21/9 
f 12/25/10 11/26/10 16/27/10 
f 16/27/10 15/28/10 12/25/10 
f 12/29/11 15/28/11 13/19/11 
f 13/19/11 9/30/11 12/29/11 
f 16/27/12 11/31/12 10/32/12 
f 10/32/12 14/20/12 16/27/12 
# 12 faces

#
# object Cube_031_Cube_101
#

v  -4.5631 -3.8676 1.6688
v  -4.5631 -1.6331 2.9099
v  -4.5631 1.0594 -1.9377
v  -4.5631 -1.1751 -3.1788
v  2.5653 -3.8676 1.6688
v  2.5653 -1.6331 2.9099
v  2.5653 -1.1751 -3.1788
v  2.5653 1.0594 -1.9377
# 8 vertices

vn -1.0000 0.0000 -0.0000
vn 0.0000 -0.4856 0.8742
vn 1.0000 0.0000 -0.0000
vn 0.0000 0.4856 -0.8742
vn 0.0000 -0.8742 -0.4856
vn 0.0000 0.8742 0.4856
# 6 vertex normals

vt 0.1523 0.7310 0.0000
vt 0.2852 0.7310 0.0000
vt 0.2852 0.7159 0.0000
vt 0.1523 0.7159 0.0000
vt 0.1523 0.7461 0.0000
vt 0.2852 0.7461 0.0000
vt 0.1523 0.7612 0.0000
vt 0.2852 0.7612 0.0000
vt 0.1523 0.7763 0.0000
vt 0.2852 0.7763 0.0000
vt 0.0194 0.7612 0.0000
vt 0.0194 0.7461 0.0000
vt 0.4181 0.7612 0.0000
vt 0.4181 0.7461 0.0000
# 14 texture coords

o Cube_031_Cube_101
g Cube_031_Cube_101
usemtl Material_045
s off
f 17/33/13 18/34/13 19/35/13 
f 19/35/13 20/36/13 17/33/13 
f 21/37/14 22/38/14 18/34/14 
f 18/34/14 17/33/14 21/37/14 
f 23/39/15 24/40/15 22/38/15 
f 22/38/15 21/37/15 23/39/15 
f 20/41/16 19/42/16 24/40/16 
f 24/40/16 23/39/16 20/41/16 
f 20/43/17 23/39/17 21/37/17 
f 21/37/17 17/44/17 20/43/17 
f 24/40/18 19/45/18 18/46/18 
f 18/46/18 22/38/18 24/40/18 
# 12 faces

#
# object Cube_023_Cube_098
#

v  -4.5339 -5.3512 0.8668
v  -4.5339 -3.5820 1.8494
v  -4.5339 -0.8708 -3.0318
v  -4.5339 -2.6400 -4.0145
v  2.5361 -5.3512 0.8668
v  2.5361 -3.5820 1.8494
v  2.5361 -2.6400 -4.0145
v  2.5361 -0.8708 -3.0318
# 8 vertices

vn -1.0000 0.0000 -0.0000
vn 0.0000 -0.4856 0.8742
vn 1.0000 0.0000 -0.0000
vn 0.0000 0.4856 -0.8742
vn 0.0000 -0.8742 -0.4856
vn 0.0000 0.8742 0.4856
# 6 vertex normals

vt 0.1547 0.9289 0.0000
vt 0.2437 0.9289 0.0000
vt 0.2437 0.9574 0.0000
vt 0.1547 0.9574 0.0000
vt 0.1547 0.9004 0.0000
vt 0.2437 0.9004 0.0000
vt 0.1547 0.8719 0.0000
vt 0.2437 0.8719 0.0000
vt 0.1547 0.8433 0.0000
vt 0.2437 0.8433 0.0000
vt 0.0657 0.8719 0.0000
vt 0.0657 0.9004 0.0000
vt 0.3328 0.8719 0.0000
vt 0.3328 0.9004 0.0000
# 14 texture coords

o Cube_023_Cube_098
g Cube_023_Cube_098
usemtl Material_044
s off
f 25/47/19 26/48/19 27/49/19 
f 27/49/19 28/50/19 25/47/19 
f 29/51/20 30/52/20 26/48/20 
f 26/48/20 25/47/20 29/51/20 
f 31/53/21 32/54/21 30/52/21 
f 30/52/21 29/51/21 31/53/21 
f 28/55/22 27/56/22 32/54/22 
f 32/54/22 31/53/22 28/55/22 
f 28/57/23 31/53/23 29/51/23 
f 29/51/23 25/58/23 28/57/23 
f 32/54/24 27/59/24 26/60/24 
f 26/60/24 30/52/24 32/54/24 
# 12 faces

#
# object Cube_022_Cube_097
#

v  -4.3167 -2.2026 2.2366
v  -4.3167 0.5931 3.7894
v  -4.3167 2.9825 -0.5126
v  -4.3167 0.1869 -2.0654
v  2.3188 -2.2026 2.2366
v  2.3188 0.5931 3.7894
v  2.3188 0.1869 -2.0654
v  2.3188 2.9825 -0.5126
# 8 vertices

vn -1.0000 0.0000 -0.0000
vn 0.0000 -0.4856 0.8742
vn 1.0000 0.0000 -0.0000
vn 0.0000 0.4856 -0.8742
vn 0.0000 -0.8742 -0.4856
vn 0.0000 0.8742 0.4856
# 6 vertex normals

vt 0.1609 0.8724 0.0000
vt 0.2375 0.8724 0.0000
vt 0.2375 0.8463 0.0000
vt 0.1609 0.8463 0.0000
vt 0.1609 0.8984 0.0000
vt 0.2375 0.8984 0.0000
vt 0.1609 0.9245 0.0000
vt 0.2375 0.9245 0.0000
vt 0.1609 0.9506 0.0000
vt 0.2375 0.9506 0.0000
vt 0.0844 0.9245 0.0000
vt 0.0844 0.8984 0.0000
vt 0.3141 0.9245 0.0000
vt 0.3141 0.8984 0.0000
# 14 texture coords

o Cube_022_Cube_097
g Cube_022_Cube_097
usemtl Material_046
s off
f 33/61/25 34/62/25 35/63/25 
f 35/63/25 36/64/25 33/61/25 
f 37/65/26 38/66/26 34/62/26 
f 34/62/26 33/61/26 37/65/26 
f 39/67/27 40/68/27 38/66/27 
f 38/66/27 37/65/27 39/67/27 
f 36/69/28 35/70/28 40/68/28 
f 40/68/28 39/67/28 36/69/28 
f 36/71/29 39/67/29 37/65/29 
f 37/65/29 33/72/29 36/71/29 
f 40/68/30 35/73/30 34/74/30 
f 34/74/30 38/66/30 40/68/30 
# 12 faces

#
# object Cube_021_Cube_096
#

v  -1.9376 -8.2203 -2.6068
v  -1.9376 -3.7688 -0.1343
v  -1.9376 -3.1210 -1.3006
v  -1.9376 -7.5725 -3.7731
v  -0.1727 -8.2203 -2.6068
v  -0.1727 -3.7688 -0.1343
v  -0.1727 -7.5725 -3.7731
v  -0.1727 -3.1210 -1.3006
# 8 vertices

vn -1.0000 0.0000 -0.0000
vn 0.0000 -0.4856 0.8742
vn 1.0000 0.0000 -0.0000
vn 0.0000 0.4856 -0.8742
vn 0.0000 -0.8742 -0.4856
vn 0.0000 0.8742 0.4856
# 6 vertex normals

vt 0.5114 0.6739 0.0000
vt 0.5599 0.6739 0.0000
vt 0.5599 0.6462 0.0000
vt 0.5114 0.6462 0.0000
vt 0.5114 0.7015 0.0000
vt 0.5599 0.7015 0.0000
vt 0.5114 0.7292 0.0000
vt 0.5599 0.7292 0.0000
vt 0.5114 0.7568 0.0000
vt 0.5599 0.7568 0.0000
vt 0.4629 0.7292 0.0000
vt 0.4629 0.7015 0.0000
vt 0.6084 0.7292 0.0000
vt 0.6084 0.7015 0.0000
# 14 texture coords

o Cube_021_Cube_096
g Cube_021_Cube_096
usemtl Material_043
s off
f 41/75/31 42/76/31 43/77/31 
f 43/77/31 44/78/31 41/75/31 
f 45/79/32 46/80/32 42/76/32 
f 42/76/32 41/75/32 45/79/32 
f 47/81/33 48/82/33 46/80/33 
f 46/80/33 45/79/33 47/81/33 
f 44/83/34 43/84/34 48/82/34 
f 48/82/34 47/81/34 44/83/34 
f 44/85/35 47/81/35 45/79/35 
f 45/79/35 41/86/35 44/85/35 
f 48/82/36 43/87/36 42/88/36 
f 42/88/36 46/80/36 48/82/36 
# 12 faces

