# 3ds Max Wavefront OBJ Exporter v0.99 - (c)2007 guruware
# File Created: 22.05.2022 09:32:58

mtllib phineas_body.mtl

#
# object Cube_008
#

v  -0.9553 -2.6363 0.5132
v  -0.9553 -2.6363 -0.8136
v  -0.9553 -4.2095 -0.8136
v  -0.9553 -4.2095 0.5132
v  0.9670 -2.6363 -0.8136
v  0.9670 -4.2095 -0.8136
v  0.9670 -2.6363 0.5132
v  0.9670 -4.2095 0.5132
# 8 vertices

vn -1.0000 0.0000 -0.0000
vn 0.0000 0.0000 -1.0000
vn 1.0000 0.0000 -0.0000
vn 0.0000 0.0000 1.0000
vn 0.0000 -1.0000 -0.0000
vn 0.0000 1.0000 -0.0000
# 6 vertex normals

vt 0.9189 0.7799 0.0000
vt 0.9189 0.9727 0.0000
vt 0.6812 0.9727 0.0000
vt 0.6812 0.7799 0.0000
vt 0.9185 0.7809 0.0000
vt 0.9185 0.9737 0.0000
vt 0.6839 0.9737 0.0000
vt 0.6827 0.7803 0.0000
vt 0.9184 0.7824 0.0000
vt 0.9184 0.9745 0.0000
vt 0.6829 0.9749 0.0000
vt 0.6829 0.7827 0.0000
vt 0.9168 0.7799 0.0000
vt 0.9168 0.9747 0.0000
vt 0.6835 0.9747 0.0000
vt 0.6835 0.7799 0.0000
vt 0.9168 0.7786 0.0000
vt 0.9168 0.9727 0.0000
vt 0.6828 0.9727 0.0000
vt 0.6828 0.7786 0.0000
vt 0.9204 0.7805 0.0000
vt 0.9204 0.9715 0.0000
vt 0.6830 0.9715 0.0000
vt 0.6830 0.7805 0.0000
# 24 texture coords

o Cube_008
g Cube_008
usemtl Material_013
s off
f 1/1/1 2/2/1 3/3/1 
f 3/3/1 4/4/1 1/1/1 
f 2/5/2 5/6/2 6/7/2 
f 6/7/2 3/8/2 2/5/2 
f 5/9/3 7/10/3 8/11/3 
f 8/11/3 6/12/3 5/9/3 
f 7/13/4 1/14/4 4/15/4 
f 4/15/4 8/16/4 7/13/4 
f 6/17/5 8/18/5 4/19/5 
f 4/19/5 3/20/5 6/17/5 
f 2/21/6 1/22/6 7/23/6 
f 7/23/6 5/24/6 2/21/6 
# 12 faces

#
# object Cube_009
#

v  -1.5670 -0.6158 2.1929
v  -1.5670 -0.6158 -2.5541
v  -1.5670 -1.6638 -2.5541
v  -1.5670 -1.6638 2.1929
v  1.1361 -0.6158 -2.5541
v  1.1361 -1.6638 -2.5541
v  1.1361 -0.6158 2.1929
v  1.1361 -1.6638 2.1929
# 8 vertices

vn -1.0000 0.0000 -0.0000
vn 0.0000 0.0000 -1.0000
vn 1.0000 0.0000 -0.0000
vn 0.0000 0.0000 1.0000
vn 0.0000 -1.0000 -0.0000
vn 0.0000 1.0000 -0.0000
# 6 vertex normals

vt 0.2819 0.7503 0.0000
vt 0.2428 0.7494 0.0000
vt 0.2437 0.7104 0.0000
vt 0.2827 0.7112 0.0000
vt 0.2038 0.7486 0.0000
vt 0.2046 0.7095 0.0000
vt 0.1647 0.7477 0.0000
vt 0.1656 0.7087 0.0000
vt 0.1257 0.7469 0.0000
vt 0.1265 0.7078 0.0000
vt 0.1664 0.6696 0.0000
vt 0.2055 0.6705 0.0000
vt 0.2029 0.7876 0.0000
vt 0.1639 0.7868 0.0000
# 14 texture coords

o Cube_009
g Cube_009
usemtl Material_015
s off
f 9/25/7 10/26/7 11/27/7 
f 11/27/7 12/28/7 9/25/7 
f 10/26/8 13/29/8 14/30/8 
f 14/30/8 11/27/8 10/26/8 
f 13/29/9 15/31/9 16/32/9 
f 16/32/9 14/30/9 13/29/9 
f 15/31/10 9/33/10 12/34/10 
f 12/34/10 16/32/10 15/31/10 
f 14/30/11 16/32/11 12/35/11 
f 12/35/11 11/36/11 14/30/11 
f 10/37/12 9/38/12 15/31/12 
f 15/31/12 13/29/12 10/37/12 
# 12 faces

#
# object Cube_033
#

v  -1.6149 5.4262 0.2279
v  -0.2248 5.4262 -1.6375
v  -0.2248 3.1544 -1.6375
v  -1.6149 3.1544 0.2279
v  1.6149 5.4262 -0.2279
v  1.6149 3.1544 -0.2279
v  0.2248 5.4262 1.6375
v  0.2248 3.1544 1.6375
# 8 vertices

vn -0.7978 0.0000 -0.6029
vn 0.6029 0.0000 -0.7978
vn 0.7978 0.0000 0.6029
vn -0.6029 0.0000 0.7978
vn 0.0000 -1.0000 -0.0000
vn 0.0000 1.0000 -0.0000
# 6 vertex normals

vt 0.4464 0.6028 0.0000
vt 0.4462 0.4334 0.0000
vt 0.6164 0.4331 0.0000
vt 0.6167 0.6026 0.0000
vt 0.9929 0.6047 0.0000
vt 0.8253 0.6048 0.0000
vt 0.8278 0.4335 0.0000
vt 0.9954 0.4335 0.0000
vt 0.8119 0.6022 0.0000
vt 0.6410 0.6013 0.0000
vt 0.6400 0.4342 0.0000
vt 0.8124 0.4336 0.0000
vt 0.9931 0.6080 0.0000
vt 0.9931 0.7769 0.0000
vt 0.8212 0.7769 0.0000
vt 0.8212 0.6080 0.0000
vt 0.5971 0.6275 0.0000
vt 0.5971 0.7592 0.0000
vt 0.4654 0.7592 0.0000
vt 0.4654 0.6275 0.0000
vt 0.8074 0.7788 0.0000
vt 0.6443 0.7781 0.0000
vt 0.6451 0.6080 0.0000
vt 0.8101 0.6096 0.0000
# 24 texture coords

o Cube_033
g Cube_033
usemtl Material_048
s off
f 17/39/13 18/40/13 19/41/13 
f 19/41/13 20/42/13 17/39/13 
f 18/43/14 21/44/14 22/45/14 
f 22/45/14 19/46/14 18/43/14 
f 21/47/15 23/48/15 24/49/15 
f 24/49/15 22/50/15 21/47/15 
f 23/51/16 17/52/16 20/53/16 
f 20/53/16 24/54/16 23/51/16 
f 22/55/17 24/56/17 20/57/17 
f 20/57/17 19/58/17 22/55/17 
f 18/59/18 17/60/18 23/61/18 
f 23/61/18 21/62/18 18/59/18 
# 12 faces

#
# object Cube_035
#

v  0.6978 4.8541 0.8165
v  0.6978 4.8541 0.3087
v  0.6978 4.3608 0.3087
v  0.6978 4.3608 0.8165
v  1.1985 4.8541 0.3087
v  1.1985 4.3608 0.3087
v  1.1985 4.8541 0.8165
v  1.1985 4.3608 0.8165
# 8 vertices

vn -1.0000 0.0000 -0.0000
vn 0.0000 0.0000 -1.0000
vn 1.0000 0.0000 -0.0000
vn 0.0000 0.0000 1.0000
vn 0.0000 -1.0000 -0.0000
vn 0.0000 1.0000 -0.0000
# 6 vertex normals

vt 0.7621 0.3898 0.0000
vt 0.7621 0.3760 0.0000
vt 0.7867 0.3760 0.0000
vt 0.7867 0.3898 0.0000
vt 0.7621 0.3622 0.0000
vt 0.7867 0.3622 0.0000
vt 0.7137 0.3177 0.0000
vt 0.7137 0.4051 0.0000
vt 0.6316 0.4051 0.0000
vt 0.6316 0.3177 0.0000
vt 0.7621 0.3484 0.0000
vt 0.7621 0.3346 0.0000
vt 0.7867 0.3346 0.0000
vt 0.7867 0.3484 0.0000
vt 0.8113 0.3484 0.0000
vt 0.8113 0.3622 0.0000
vt 0.7374 0.3622 0.0000
vt 0.7374 0.3484 0.0000
# 18 texture coords

o Cube_035
g Cube_035
usemtl Material_054
s off
f 25/63/19 26/64/19 27/65/19 
f 27/65/19 28/66/19 25/63/19 
f 26/64/20 29/67/20 30/68/20 
f 30/68/20 27/65/20 26/64/20 
f 29/69/21 31/70/21 32/71/21 
f 32/71/21 30/72/21 29/69/21 
f 31/73/22 25/74/22 28/75/22 
f 28/75/22 32/76/22 31/73/22 
f 30/68/23 32/76/23 28/77/23 
f 28/77/23 27/78/23 30/68/23 
f 26/79/24 25/80/24 31/73/24 
f 31/73/24 29/67/24 26/79/24 
# 12 faces

#
# object Cube_036
#

v  -1.2706 7.3093 0.1546
v  -1.2706 7.3093 -0.4042
v  -1.2706 5.5046 -0.4042
v  -1.2706 5.5046 0.1546
v  -0.6901 7.3093 -0.4042
v  -0.6901 5.5046 -0.4042
v  -0.6901 7.3093 0.1546
v  -0.6901 5.5046 0.1546
# 8 vertices

vn -1.0000 0.0000 -0.0000
vn 0.0000 0.0000 -1.0000
vn 1.0000 0.0000 -0.0000
vn 0.0000 0.0000 1.0000
vn 0.0000 -1.0000 -0.0000
vn 0.0000 1.0000 -0.0000
# 6 vertex normals

vt 0.2026 0.6265 0.0000
vt 0.2026 0.6111 0.0000
vt 0.1372 0.6111 0.0000
vt 0.1372 0.6265 0.0000
vt 0.2026 0.5957 0.0000
vt 0.1372 0.5957 0.0000
vt 0.2026 0.5803 0.0000
vt 0.1372 0.5803 0.0000
vt 0.2026 0.5649 0.0000
vt 0.1372 0.5649 0.0000
vt 0.0718 0.5803 0.0000
vt 0.0718 0.5957 0.0000
vt 0.2681 0.5957 0.0000
vt 0.2681 0.5803 0.0000
# 14 texture coords

o Cube_036
g Cube_036
usemtl Material_052
s off
f 33/81/25 34/82/25 35/83/25 
f 35/83/25 36/84/25 33/81/25 
f 34/82/26 37/85/26 38/86/26 
f 38/86/26 35/83/26 34/82/26 
f 37/85/27 39/87/27 40/88/27 
f 40/88/27 38/86/27 37/85/27 
f 39/87/28 33/89/28 36/90/28 
f 36/90/28 40/88/28 39/87/28 
f 38/86/29 40/88/29 36/91/29 
f 36/91/29 35/92/29 38/86/29 
f 34/93/30 33/94/30 39/87/30 
f 39/87/30 37/85/30 34/93/30 
# 12 faces

#
# object Cube_039
#

v  -0.8070 6.2658 -0.6853
v  0.1849 6.2658 -1.4416
v  0.1849 5.5432 -1.4416
v  -0.8070 5.5432 -0.6853
v  0.6247 6.2658 -0.8485
v  0.6247 5.5432 -0.8485
v  -0.3671 6.2658 -0.0923
v  -0.3671 5.5432 -0.0923
# 8 vertices

vn -0.6010 0.0000 -0.7992
vn 0.7992 0.0000 -0.6010
vn 0.6010 0.0000 0.7992
vn -0.7992 0.0000 0.6010
vn 0.0000 -1.0000 -0.0000
vn 0.0000 1.0000 -0.0000
# 6 vertex normals

vt 0.2026 0.6265 0.0000
vt 0.2026 0.6111 0.0000
vt 0.1372 0.6111 0.0000
vt 0.1372 0.6265 0.0000
vt 0.2026 0.5957 0.0000
vt 0.1372 0.5957 0.0000
vt 0.2026 0.5803 0.0000
vt 0.1372 0.5803 0.0000
vt 0.2026 0.5649 0.0000
vt 0.1372 0.5649 0.0000
vt 0.0718 0.5803 0.0000
vt 0.0718 0.5957 0.0000
vt 0.2681 0.5957 0.0000
vt 0.2681 0.5803 0.0000
# 14 texture coords

o Cube_039
g Cube_039
usemtl Material_050
s off
f 41/95/31 42/96/31 43/97/31 
f 43/97/31 44/98/31 41/95/31 
f 42/96/32 45/99/32 46/100/32 
f 46/100/32 43/97/32 42/96/32 
f 45/99/33 47/101/33 48/102/33 
f 48/102/33 46/100/33 45/99/33 
f 47/101/34 41/103/34 44/104/34 
f 44/104/34 48/102/34 47/101/34 
f 46/100/35 48/102/35 44/105/35 
f 44/105/35 43/106/35 46/100/35 
f 42/107/36 41/108/36 47/101/36 
f 47/101/36 45/99/36 42/107/36 
# 12 faces

#
# object Cube_038
#

v  -2.4231 6.2658 0.5979
v  -1.4313 6.2658 -0.1584
v  -1.4313 5.5432 -0.1584
v  -2.4231 5.5432 0.5979
v  -0.9915 6.2658 0.4347
v  -0.9915 5.5432 0.4347
v  -1.9833 6.2658 1.1909
v  -1.9833 5.5432 1.1909
# 8 vertices

vn -0.6010 0.0000 -0.7992
vn 0.7992 0.0000 -0.6010
vn 0.6010 0.0000 0.7992
vn -0.7992 0.0000 0.6010
vn 0.0000 -1.0000 -0.0000
vn 0.0000 1.0000 -0.0000
# 6 vertex normals

vt 0.2026 0.6265 0.0000
vt 0.2026 0.6111 0.0000
vt 0.1372 0.6111 0.0000
vt 0.1372 0.6265 0.0000
vt 0.2026 0.5957 0.0000
vt 0.1372 0.5957 0.0000
vt 0.2026 0.5803 0.0000
vt 0.1372 0.5803 0.0000
vt 0.2026 0.5649 0.0000
vt 0.1372 0.5649 0.0000
vt 0.0718 0.5803 0.0000
vt 0.0718 0.5957 0.0000
vt 0.2681 0.5957 0.0000
vt 0.2681 0.5803 0.0000
# 14 texture coords

o Cube_038
g Cube_038
usemtl Material_051
s off
f 49/109/37 50/110/37 51/111/37 
f 51/111/37 52/112/37 49/109/37 
f 50/110/38 53/113/38 54/114/38 
f 54/114/38 51/111/38 50/110/38 
f 53/113/39 55/115/39 56/116/39 
f 56/116/39 54/114/39 53/113/39 
f 55/115/40 49/117/40 52/118/40 
f 52/118/40 56/116/40 55/115/40 
f 54/114/41 56/116/41 52/119/41 
f 52/119/41 51/120/41 54/114/41 
f 50/121/42 49/122/42 55/115/42 
f 55/115/42 53/113/42 50/121/42 
# 12 faces

#
# object Cube_041
#

v  -1.4048 6.2658 -0.3113
v  -2.1607 6.2658 -1.3092
v  -2.1607 5.5432 -1.3092
v  -1.4048 5.5432 -0.3113
v  -1.5803 6.2658 -1.7612
v  -1.5803 5.5432 -1.7612
v  -0.8244 6.2658 -0.7633
v  -0.8244 5.5432 -0.7633
# 8 vertices

vn -0.7931 0.0000 0.6091
vn -0.6091 0.0000 -0.7931
vn 0.7931 0.0000 -0.6091
vn 0.6091 0.0000 0.7931
vn 0.0000 -1.0000 -0.0000
vn 0.0000 1.0000 -0.0000
# 6 vertex normals

vt 0.2026 0.6265 0.0000
vt 0.2026 0.6111 0.0000
vt 0.1372 0.6111 0.0000
vt 0.1372 0.6265 0.0000
vt 0.2026 0.5957 0.0000
vt 0.1372 0.5957 0.0000
vt 0.2026 0.5803 0.0000
vt 0.1372 0.5803 0.0000
vt 0.2026 0.5649 0.0000
vt 0.1372 0.5649 0.0000
vt 0.0718 0.5803 0.0000
vt 0.0718 0.5957 0.0000
vt 0.2681 0.5957 0.0000
vt 0.2681 0.5803 0.0000
# 14 texture coords

o Cube_041
g Cube_041
usemtl Material_049
s off
f 57/123/43 58/124/43 59/125/43 
f 59/125/43 60/126/43 57/123/43 
f 58/124/44 61/127/44 62/128/44 
f 62/128/44 59/125/44 58/124/44 
f 61/127/45 63/129/45 64/130/45 
f 64/130/45 62/128/45 61/127/45 
f 63/129/46 57/131/46 60/132/46 
f 60/132/46 64/130/46 63/129/46 
f 62/128/47 64/130/47 60/133/47 
f 60/133/47 59/134/47 62/128/47 
f 58/135/48 57/136/48 63/129/48 
f 63/129/48 61/127/48 58/135/48 
# 12 faces

#
# object Cube_040
#

v  -0.2685 6.2658 -0.0735
v  0.4684 6.2658 0.9389
v  0.4684 5.5432 0.9389
v  -0.2685 5.5432 -0.0735
v  -0.1204 6.2658 1.3795
v  -0.1204 5.5432 1.3795
v  -0.8573 6.2658 0.3671
v  -0.8573 5.5432 0.3671
# 8 vertices

vn 0.8046 0.0000 -0.5938
vn 0.5938 0.0000 0.8046
vn -0.8046 0.0000 0.5938
vn -0.5938 0.0000 -0.8046
vn 0.0000 -1.0000 -0.0000
vn 0.0000 1.0000 -0.0000
# 6 vertex normals

vt 0.2026 0.6265 0.0000
vt 0.2026 0.6111 0.0000
vt 0.1372 0.6111 0.0000
vt 0.1372 0.6265 0.0000
vt 0.2026 0.5957 0.0000
vt 0.1372 0.5957 0.0000
vt 0.2026 0.5803 0.0000
vt 0.1372 0.5803 0.0000
vt 0.2026 0.5649 0.0000
vt 0.1372 0.5649 0.0000
vt 0.0718 0.5803 0.0000
vt 0.0718 0.5957 0.0000
vt 0.2681 0.5957 0.0000
vt 0.2681 0.5803 0.0000
# 14 texture coords

o Cube_040
g Cube_040
usemtl Material_053
s off
f 65/137/49 66/138/49 67/139/49 
f 67/139/49 68/140/49 65/137/49 
f 66/138/50 69/141/50 70/142/50 
f 70/142/50 67/139/50 66/138/50 
f 69/141/51 71/143/51 72/144/51 
f 72/144/51 70/142/51 69/141/51 
f 71/143/52 65/145/52 68/146/52 
f 68/146/52 72/144/52 71/143/52 
f 70/142/53 72/144/53 68/147/53 
f 68/147/53 67/148/53 70/142/53 
f 66/149/54 65/150/54 71/143/54 
f 71/143/54 69/141/54 66/149/54 
# 12 faces

#
# object Cube_010_Cube_044
#

v  -1.4422 0.4292 2.1831
v  -1.4422 0.4292 -2.5443
v  -1.4422 -0.6187 -2.5443
v  -1.4422 -0.6187 2.1831
v  1.0113 0.4292 -2.5443
v  1.0113 -0.6187 -2.5443
v  1.0113 0.4292 2.1831
v  1.0113 -0.6187 2.1831
# 8 vertices

vn -1.0000 0.0000 -0.0000
vn 0.0000 0.0000 -1.0000
vn 1.0000 0.0000 -0.0000
vn 0.0000 0.0000 1.0000
vn 0.0000 -1.0000 -0.0000
vn 0.0000 1.0000 -0.0000
# 6 vertex normals

vt 0.2648 0.9156 0.0000
vt 0.2250 0.9149 0.0000
vt 0.2257 0.8751 0.0000
vt 0.2656 0.8758 0.0000
vt 0.1852 0.9142 0.0000
vt 0.1859 0.8744 0.0000
vt 0.1454 0.9135 0.0000
vt 0.1461 0.8736 0.0000
vt 0.1055 0.9128 0.0000
vt 0.1063 0.8729 0.0000
vt 0.1468 0.8338 0.0000
vt 0.1866 0.8345 0.0000
vt 0.1845 0.9540 0.0000
vt 0.1446 0.9533 0.0000
# 14 texture coords

o Cube_010_Cube_044
g Cube_010_Cube_044
usemtl Material_016
s off
f 73/151/55 74/152/55 75/153/55 
f 75/153/55 76/154/55 73/151/55 
f 74/152/56 77/155/56 78/156/56 
f 78/156/56 75/153/56 74/152/56 
f 77/155/57 79/157/57 80/158/57 
f 80/158/57 78/156/57 77/155/57 
f 79/157/58 73/159/58 76/160/58 
f 76/160/58 80/158/58 79/157/58 
f 78/156/59 80/158/59 76/161/59 
f 76/161/59 75/162/59 78/156/59 
f 74/163/60 73/164/60 79/157/60 
f 79/157/60 77/155/60 74/163/60 
# 12 faces

#
# object Cube_037_Cube_045
#

v  -1.6701 -1.6663 2.1522
v  -1.6701 -1.6663 -2.5134
v  -1.6701 -2.7143 -2.5134
v  -1.6701 -2.7143 2.1522
v  1.2392 -1.6663 -2.5134
v  1.2392 -2.7143 -2.5134
v  1.2392 -1.6663 2.1522
v  1.2392 -2.7143 2.1522
# 8 vertices

vn -1.0000 0.0000 -0.0000
vn 0.0000 0.0000 -1.0000
vn 1.0000 0.0000 -0.0000
vn 0.0000 0.0000 1.0000
vn 0.0000 -1.0000 -0.0000
vn 0.0000 1.0000 -0.0000
# 6 vertex normals

vt 0.2364 0.8414 0.0000
vt 0.2364 0.8956 0.0000
vt 0.1823 0.8956 0.0000
vt 0.1823 0.8414 0.0000
vt 0.2459 0.8442 0.0000
vt 0.2459 0.9179 0.0000
vt 0.1722 0.9179 0.0000
vt 0.1722 0.8442 0.0000
vt 0.2380 0.8522 0.0000
vt 0.2380 0.9063 0.0000
vt 0.1839 0.9063 0.0000
vt 0.1839 0.8522 0.0000
vt 0.2380 0.9605 0.0000
vt 0.1839 0.9605 0.0000
vt 0.1297 0.9063 0.0000
vt 0.1297 0.8522 0.0000
vt 0.2922 0.8522 0.0000
vt 0.2922 0.9063 0.0000
# 18 texture coords

o Cube_037_Cube_045
g Cube_037_Cube_045
usemtl Material_014
s off
f 81/165/61 82/166/61 83/167/61 
f 83/167/61 84/168/61 81/165/61 
f 82/169/62 85/170/62 86/171/62 
f 86/171/62 83/172/62 82/169/62 
f 85/173/63 87/174/63 88/175/63 
f 88/175/63 86/176/63 85/173/63 
f 87/174/64 81/177/64 84/178/64 
f 84/178/64 88/175/64 87/174/64 
f 86/176/65 88/175/65 84/179/65 
f 84/179/65 83/180/65 86/176/65 
f 82/181/66 81/182/66 87/174/66 
f 87/174/66 85/173/66 82/181/66 
# 12 faces

#
# object Cube_044_Cube_048
#

v  -1.0902 2.0879 2.2394
v  -1.0902 2.0879 -2.6006
v  -1.0902 1.3000 -2.6006
v  -1.0902 1.3000 2.2394
v  0.6593 2.0879 -2.6006
v  0.6593 1.3000 -2.6006
v  0.6593 2.0879 2.2394
v  0.6593 1.3000 2.2394
# 8 vertices

vn -1.0000 0.0000 -0.0000
vn 0.0000 0.0000 -1.0000
vn 1.0000 0.0000 -0.0000
vn 0.0000 0.0000 1.0000
vn 0.0000 -1.0000 -0.0000
vn 0.0000 1.0000 -0.0000
# 6 vertex normals

vt 0.2906 0.8978 0.0000
vt 0.2508 0.9017 0.0000
vt 0.2469 0.8619 0.0000
vt 0.2867 0.8580 0.0000
vt 0.2109 0.9056 0.0000
vt 0.2070 0.8658 0.0000
vt 0.1711 0.9095 0.0000
vt 0.1672 0.8697 0.0000
vt 0.1312 0.9134 0.0000
vt 0.1273 0.8736 0.0000
vt 0.1633 0.8298 0.0000
vt 0.2031 0.8259 0.0000
vt 0.2148 0.9455 0.0000
vt 0.1750 0.9494 0.0000
# 14 texture coords

o Cube_044_Cube_048
g Cube_044_Cube_048
usemtl Material_018
s off
f 89/183/67 90/184/67 91/185/67 
f 91/185/67 92/186/67 89/183/67 
f 90/184/68 93/187/68 94/188/68 
f 94/188/68 91/185/68 90/184/68 
f 93/187/69 95/189/69 96/190/69 
f 96/190/69 94/188/69 93/187/69 
f 95/189/70 89/191/70 92/192/70 
f 92/192/70 96/190/70 95/189/70 
f 94/188/71 96/190/71 92/193/71 
f 92/193/71 91/194/71 94/188/71 
f 90/195/72 89/196/72 95/189/72 
f 95/189/72 93/187/72 90/195/72 
# 12 faces

#
# object Cube_043_Cube_047
#

v  0.6391 2.6816 0.7028
v  0.6391 2.0687 0.7028
v  0.6391 2.0687 -1.0640
v  0.6391 2.6816 -1.0640
v  -1.0701 2.6816 0.7028
v  -1.0701 2.0687 0.7028
v  -1.0701 2.6816 -1.0640
v  -1.0701 2.0687 -1.0640
# 8 vertices

vn 1.0000 0.0000 -0.0000
vn 0.0000 0.0000 1.0000
vn -1.0000 0.0000 -0.0000
vn 0.0000 0.0000 -1.0000
vn 0.0000 1.0000 -0.0000
vn 0.0000 -1.0000 -0.0000
# 6 vertex normals

vt 0.2754 0.7116 0.0000
vt 0.2772 0.7536 0.0000
vt 0.3192 0.7518 0.0000
vt 0.3174 0.7098 0.0000
vt 0.2335 0.7134 0.0000
vt 0.2353 0.7553 0.0000
vt 0.1915 0.7152 0.0000
vt 0.1933 0.7571 0.0000
vt 0.1496 0.7170 0.0000
vt 0.1514 0.7589 0.0000
vt 0.1898 0.6732 0.0000
vt 0.2317 0.6715 0.0000
vt 0.1951 0.7991 0.0000
vt 0.2370 0.7973 0.0000
# 14 texture coords

o Cube_043_Cube_047
g Cube_043_Cube_047
usemtl Material_019
s off
f 97/197/73 98/198/73 99/199/73 
f 99/199/73 100/200/73 97/197/73 
f 101/201/74 102/202/74 98/198/74 
f 98/198/74 97/197/74 101/201/74 
f 103/203/75 104/204/75 102/202/75 
f 102/202/75 101/201/75 103/203/75 
f 100/205/76 99/206/76 104/204/76 
f 104/204/76 103/203/76 100/205/76 
f 100/207/77 103/203/77 101/201/77 
f 101/201/77 97/208/77 100/207/77 
f 104/204/78 99/209/78 98/210/78 
f 98/210/78 102/202/78 104/204/78 
# 12 faces

#
# object Cube_042_Cube_046
#

v  -1.1193 1.3010 2.2015
v  -1.1193 1.3010 -2.5627
v  -1.1193 0.3889 -2.5627
v  -1.1193 0.3889 2.2015
v  0.6884 1.3010 -2.5627
v  0.6884 0.3889 -2.5627
v  0.6884 1.3010 2.2015
v  0.6884 0.3889 2.2015
# 8 vertices

vn -1.0000 0.0000 -0.0000
vn 0.0000 0.0000 -1.0000
vn 1.0000 0.0000 -0.0000
vn 0.0000 0.0000 1.0000
vn 0.0000 -1.0000 -0.0000
vn 0.0000 1.0000 -0.0000
# 6 vertex normals

vt 0.1556 0.7243 0.0000
vt 0.1862 0.7263 0.0000
vt 0.1842 0.7569 0.0000
vt 0.1536 0.7549 0.0000
vt 0.2168 0.7283 0.0000
vt 0.2148 0.7589 0.0000
vt 0.2474 0.7303 0.0000
vt 0.2454 0.7609 0.0000
vt 0.2780 0.7323 0.0000
vt 0.2760 0.7629 0.0000
vt 0.2434 0.7915 0.0000
vt 0.2128 0.7895 0.0000
vt 0.2188 0.6977 0.0000
vt 0.2494 0.6997 0.0000
# 14 texture coords

o Cube_042_Cube_046
g Cube_042_Cube_046
usemtl Material_017
s off
f 105/211/79 106/212/79 107/213/79 
f 107/213/79 108/214/79 105/211/79 
f 106/212/80 109/215/80 110/216/80 
f 110/216/80 107/213/80 106/212/80 
f 109/215/81 111/217/81 112/218/81 
f 112/218/81 110/216/81 109/215/81 
f 111/217/82 105/219/82 108/220/82 
f 108/220/82 112/218/82 111/217/82 
f 110/216/83 112/218/83 108/221/83 
f 108/221/83 107/222/83 110/216/83 
f 106/223/84 105/224/84 111/217/84 
f 111/217/84 109/215/84 106/223/84 
# 12 faces

#
# object Cube_045_Cube_049
#

v  0.5839 3.2189 0.6665
v  0.5839 2.6751 0.6665
v  0.5839 2.6751 -1.0277
v  0.5839 3.2189 -1.0277
v  -1.0149 3.2189 0.6665
v  -1.0149 2.6751 0.6665
v  -1.0149 3.2189 -1.0277
v  -1.0149 2.6751 -1.0277
# 8 vertices

vn 1.0000 0.0000 -0.0000
vn 0.0000 0.0000 1.0000
vn -1.0000 0.0000 -0.0000
vn 0.0000 0.0000 -1.0000
vn 0.0000 1.0000 -0.0000
vn 0.0000 -1.0000 -0.0000
# 6 vertex normals

vt 0.2459 0.8731 0.0000
vt 0.2484 0.9133 0.0000
vt 0.2885 0.9107 0.0000
vt 0.2860 0.8706 0.0000
vt 0.2058 0.8756 0.0000
vt 0.2083 0.9158 0.0000
vt 0.1657 0.8782 0.0000
vt 0.1682 0.9183 0.0000
vt 0.1256 0.8807 0.0000
vt 0.1281 0.9208 0.0000
vt 0.1632 0.8380 0.0000
vt 0.2033 0.8355 0.0000
vt 0.1707 0.9584 0.0000
vt 0.2108 0.9559 0.0000
# 14 texture coords

o Cube_045_Cube_049
g Cube_045_Cube_049
usemtl Material_020
s off
f 113/225/85 114/226/85 115/227/85 
f 115/227/85 116/228/85 113/225/85 
f 117/229/86 118/230/86 114/226/86 
f 114/226/86 113/225/86 117/229/86 
f 119/231/87 120/232/87 118/230/87 
f 118/230/87 117/229/87 119/231/87 
f 116/233/88 115/234/88 120/232/88 
f 120/232/88 119/231/88 116/233/88 
f 116/235/89 119/231/89 117/229/89 
f 117/229/89 113/236/89 116/235/89 
f 120/232/90 115/237/90 114/238/90 
f 114/238/90 118/230/90 120/232/90 
# 12 faces

#
# object Cube_034_Cube_104
#

v  0.6978 4.8541 -0.5870
v  0.6978 4.8541 -1.0947
v  0.6978 4.3608 -1.0947
v  0.6978 4.3608 -0.5870
v  1.1985 4.8541 -1.0947
v  1.1985 4.3608 -1.0947
v  1.1985 4.8541 -0.5870
v  1.1985 4.3608 -0.5870
# 8 vertices

vn -1.0000 0.0000 -0.0000
vn 0.0000 0.0000 -1.0000
vn 1.0000 0.0000 -0.0000
vn 0.0000 0.0000 1.0000
vn 0.0000 -1.0000 -0.0000
vn 0.0000 1.0000 -0.0000
# 6 vertex normals

vt 0.7621 0.3898 0.0000
vt 0.7621 0.3760 0.0000
vt 0.7867 0.3760 0.0000
vt 0.7867 0.3898 0.0000
vt 0.7621 0.3622 0.0000
vt 0.7867 0.3622 0.0000
vt 0.7137 0.3177 0.0000
vt 0.7137 0.4051 0.0000
vt 0.6316 0.4051 0.0000
vt 0.6316 0.3177 0.0000
vt 0.7621 0.3484 0.0000
vt 0.7621 0.3346 0.0000
vt 0.7867 0.3346 0.0000
vt 0.7867 0.3484 0.0000
vt 0.8113 0.3484 0.0000
vt 0.8113 0.3622 0.0000
vt 0.7374 0.3622 0.0000
vt 0.7374 0.3484 0.0000
# 18 texture coords

o Cube_034_Cube_104
g Cube_034_Cube_104
usemtl Material_055
s off
f 121/239/91 122/240/91 123/241/91 
f 123/241/91 124/242/91 121/239/91 
f 122/240/92 125/243/92 126/244/92 
f 126/244/92 123/241/92 122/240/92 
f 125/245/93 127/246/93 128/247/93 
f 128/247/93 126/248/93 125/245/93 
f 127/249/94 121/250/94 124/251/94 
f 124/251/94 128/252/94 127/249/94 
f 126/244/95 128/252/95 124/253/95 
f 124/253/95 123/254/95 126/244/95 
f 122/255/96 121/256/96 127/249/96 
f 127/249/96 125/243/96 122/255/96 
# 12 faces

