# MagicaVoxel @ Ephtracy

# group
o 

# material
mtllib scourge_brazo.mtl
usemtl palette

# normals
vn -1 0 0
vn 1 0 0
vn 0 0 1
vn 0 0 -1
vn 0 -1 0
vn 0 1 0

# texcoords
vt 0.0917969 0.5
vt 0.748047 0.5
vt 0.841797 0.5
vt 0.935547 0.5
vt 0.958984 0.5
vt 0.966797 0.5
vt 0.994141 0.5

# verts
v -0.7 -4.3 -0.5
v -0.7 -4.3 -0.9
v -0.7 -4.3 -1.6
v -0.7 -4.3 -1.9
v -0.7 -3.9 -0.5
v -0.7 -3.9 -0.9
v -0.7 -3.9 -1.6
v -0.7 -3.9 -1.9
v -0.7 -2.9 -0.5
v -0.7 -2.9 -1.9
v -0.5 -2.9 -0.7
v -0.5 -2.9 -1.7
v -0.5 -2.3 -0.7
v -0.5 -2.3 -1.7
v -0.3 -2.3 -0.9
v -0.3 -2.3 -1.5
v -0.3 -0.6 -1.1
v -0.3 -0.6 -1.4
v -0.3 -0.4 -1
v -0.3 -0.4 -1.1
v -0.3 -0.4 -1.3
v -0.3 -0.4 -1.4
v -0.3 -0.4 -1.5
v -0.3 0.3 -1
v -0.3 0.3 -1.1
v -0.3 0.3 -1.3
v -0.3 0.3 -1.5
v -0.3 0.4 -0.9
v -0.3 0.4 -1.5
v 0.3 -2.3 -0.9
v 0.3 -2.3 -1.5
v 0.3 0.3 -0.9
v 0.3 0.3 -1.5
v 0.4 0.3 -0.9
v 0.4 0.3 -1.5
v 0.4 0.4 -0.9
v 0.4 0.4 -1.5
v 0.5 -2.9 -0.7
v 0.5 -2.9 -1.7
v 0.5 -2.3 -0.7
v 0.5 -2.3 -1.7
v 0.7 -4.3 -0.5
v 0.7 -4.3 -0.9
v 0.7 -4.3 -1.6
v 0.7 -4.3 -1.9
v 0.7 -4.2 -0.6
v 0.7 -4.2 -0.9
v 0.7 -4.2 -1.6
v 0.7 -4.2 -1.9
v 0.7 -3.9 -0.5
v 0.7 -3.9 -0.6
v 0.7 -2.9 -0.5
v 0.7 -2.9 -1.9
v -0.7 -4.3 -0.5
v -0.7 -3.9 -0.5
v -0.7 -2.9 -0.5
v -0.3 -4.3 -0.5
v -0.3 -3.9 -0.5
v 0.4 -4.3 -0.5
v 0.4 -3.9 -0.5
v 0.7 -4.3 -0.5
v 0.7 -3.9 -0.5
v 0.7 -2.9 -0.5
v -0.5 -2.9 -0.7
v -0.5 -2.3 -0.7
v 0.5 -2.9 -0.7
v 0.5 -2.3 -0.7
v -0.3 -2.3 -0.9
v -0.3 0.4 -0.9
v -0.1 -2.3 -0.9
v -0.1 -2.1 -0.9
v 0.1 -2.3 -0.9
v 0.1 -2.1 -0.9
v 0.3 -2.3 -0.9
v 0.3 0.3 -0.9
v 0.4 0.3 -0.9
v 0.4 0.4 -0.9
v -0.3 -2.3 -1.5
v -0.3 -0.4 -1.5
v -0.3 0.3 -1.5
v -0.3 0.4 -1.5
v -0.2 -0.4 -1.5
v -0.2 0.3 -1.5
v 0.3 -2.3 -1.5
v 0.3 0.3 -1.5
v 0.4 0.3 -1.5
v 0.4 0.4 -1.5
v -0.5 -2.9 -1.7
v -0.5 -2.3 -1.7
v 0.5 -2.9 -1.7
v 0.5 -2.3 -1.7
v -0.7 -4.3 -1.9
v -0.7 -3.9 -1.9
v -0.7 -2.9 -1.9
v -0.6 -4.2 -1.9
v -0.6 -3.9 -1.9
v -0.3 -4.3 -1.9
v -0.3 -4.2 -1.9
v 0.4 -4.3 -1.9
v 0.4 -4.2 -1.9
v 0.7 -4.3 -1.9
v 0.7 -4.2 -1.9
v 0.7 -2.9 -1.9
v -0.7 -4.3 -0.5
v -0.3 -4.3 -0.5
v 0.4 -4.3 -0.5
v 0.7 -4.3 -0.5
v -0.7 -4.3 -0.9
v -0.3 -4.3 -0.9
v 0.4 -4.3 -0.9
v 0.7 -4.3 -0.9
v -0.7 -4.3 -1.6
v -0.3 -4.3 -1.6
v 0.4 -4.3 -1.6
v 0.7 -4.3 -1.6
v -0.7 -4.3 -1.9
v -0.3 -4.3 -1.9
v 0.4 -4.3 -1.9
v 0.7 -4.3 -1.9
v 0.3 0.3 -0.9
v 0.4 0.3 -0.9
v 0.3 0.3 -1.5
v 0.4 0.3 -1.5
v -0.7 -2.9 -0.5
v 0.7 -2.9 -0.5
v -0.5 -2.9 -0.7
v 0.5 -2.9 -0.7
v -0.5 -2.9 -1.7
v 0.5 -2.9 -1.7
v -0.7 -2.9 -1.9
v 0.7 -2.9 -1.9
v -0.5 -2.3 -0.7
v 0.5 -2.3 -0.7
v -0.3 -2.3 -0.9
v -0.1 -2.3 -0.9
v 0.1 -2.3 -0.9
v 0.3 -2.3 -0.9
v -0.3 -2.3 -1.5
v 0.3 -2.3 -1.5
v -0.5 -2.3 -1.7
v 0.5 -2.3 -1.7
v -0.3 0.4 -0.9
v 0.4 0.4 -0.9
v -0.3 0.4 -1.5
v 0.4 0.4 -1.5

# faces
f 5/6/1 2/6/1 1/6/1
f 6/5/1 3/5/1 2/5/1
f 6/6/1 2/6/1 5/6/1
f 7/6/1 4/6/1 3/6/1
f 7/5/1 3/5/1 6/5/1
f 8/6/1 4/6/1 7/6/1
f 9/5/1 6/5/1 5/5/1
f 9/5/1 7/5/1 6/5/1
f 9/5/1 8/5/1 7/5/1
f 10/5/1 8/5/1 9/5/1
f 13/5/1 12/5/1 11/5/1
f 14/5/1 12/5/1 13/5/1
f 17/7/1 16/7/1 15/7/1
f 18/7/1 16/7/1 17/7/1
f 19/7/1 17/7/1 15/7/1
f 20/1/1 18/1/1 17/1/1
f 20/7/1 17/7/1 19/7/1
f 21/1/1 18/1/1 20/1/1
f 22/7/1 16/7/1 18/7/1
f 22/1/1 18/1/1 21/1/1
f 23/7/1 16/7/1 22/7/1
f 24/7/1 19/7/1 15/7/1
f 24/1/1 20/1/1 19/1/1
f 25/3/1 21/3/1 20/3/1
f 25/1/1 20/1/1 24/1/1
f 26/1/1 23/1/1 22/1/1
f 26/3/1 21/3/1 25/3/1
f 26/1/1 22/1/1 21/1/1
f 27/1/1 23/1/1 26/1/1
f 28/7/1 24/7/1 15/7/1
f 28/7/1 25/7/1 24/7/1
f 28/7/1 27/7/1 26/7/1
f 28/7/1 26/7/1 25/7/1
f 29/7/1 27/7/1 28/7/1
f 30/7/2 31/7/2 32/7/2
f 32/7/2 31/7/2 33/7/2
f 34/7/2 35/7/2 36/7/2
f 36/7/2 35/7/2 37/7/2
f 38/5/2 39/5/2 40/5/2
f 40/5/2 39/5/2 41/5/2
f 42/6/2 43/6/2 46/6/2
f 43/5/2 44/5/2 47/5/2
f 46/6/2 43/6/2 47/6/2
f 44/6/2 45/6/2 48/6/2
f 47/5/2 44/5/2 48/5/2
f 48/6/2 45/6/2 49/6/2
f 42/6/2 46/6/2 50/6/2
f 46/5/2 47/5/2 51/5/2
f 50/6/2 46/6/2 51/6/2
f 47/5/2 48/5/2 51/5/2
f 48/5/2 49/5/2 51/5/2
f 50/5/2 51/5/2 52/5/2
f 51/5/2 49/5/2 53/5/2
f 52/5/2 51/5/2 53/5/2
f 57/6/3 55/6/3 54/6/3
f 58/5/3 56/5/3 55/5/3
f 58/6/3 55/6/3 57/6/3
f 59/5/3 58/5/3 57/5/3
f 60/5/3 56/5/3 58/5/3
f 60/5/3 58/5/3 59/5/3
f 61/6/3 60/6/3 59/6/3
f 62/5/3 56/5/3 60/5/3
f 62/6/3 60/6/3 61/6/3
f 63/5/3 56/5/3 62/5/3
f 66/5/3 65/5/3 64/5/3
f 67/5/3 65/5/3 66/5/3
f 70/7/3 69/7/3 68/7/3
f 71/7/3 69/7/3 70/7/3
f 72/2/3 71/2/3 70/2/3
f 73/7/3 69/7/3 71/7/3
f 73/2/3 71/2/3 72/2/3
f 74/7/3 73/7/3 72/7/3
f 75/7/3 69/7/3 73/7/3
f 75/7/3 73/7/3 74/7/3
f 76/7/3 69/7/3 75/7/3
f 77/7/3 69/7/3 76/7/3
f 78/7/4 79/7/4 82/7/4
f 79/1/4 80/1/4 82/1/4
f 80/7/4 81/7/4 83/7/4
f 82/1/4 80/1/4 83/1/4
f 78/7/4 82/7/4 84/7/4
f 82/7/4 83/7/4 84/7/4
f 83/7/4 81/7/4 85/7/4
f 84/7/4 83/7/4 85/7/4
f 85/7/4 81/7/4 86/7/4
f 86/7/4 81/7/4 87/7/4
f 88/5/4 89/5/4 90/5/4
f 90/5/4 89/5/4 91/5/4
f 92/6/4 93/6/4 95/6/4
f 93/5/4 94/5/4 96/5/4
f 95/6/4 93/6/4 96/6/4
f 92/6/4 95/6/4 97/6/4
f 95/5/4 96/5/4 98/5/4
f 97/6/4 95/6/4 98/6/4
f 97/5/4 98/5/4 99/5/4
f 98/5/4 96/5/4 100/5/4
f 99/5/4 98/5/4 100/5/4
f 99/6/4 100/6/4 101/6/4
f 100/5/4 96/5/4 102/5/4
f 101/6/4 100/6/4 102/6/4
f 96/5/4 94/5/4 103/5/4
f 102/5/4 96/5/4 103/5/4
f 108/6/5 105/6/5 104/6/5
f 109/5/5 106/5/5 105/5/5
f 109/6/5 105/6/5 108/6/5
f 110/6/5 107/6/5 106/6/5
f 110/5/5 106/5/5 109/5/5
f 111/6/5 107/6/5 110/6/5
f 112/5/5 109/5/5 108/5/5
f 112/5/5 110/5/5 109/5/5
f 112/5/5 111/5/5 110/5/5
f 113/5/5 111/5/5 112/5/5
f 114/5/5 111/5/5 113/5/5
f 115/5/5 111/5/5 114/5/5
f 116/6/5 113/6/5 112/6/5
f 117/5/5 114/5/5 113/5/5
f 117/6/5 113/6/5 116/6/5
f 118/6/5 115/6/5 114/6/5
f 118/5/5 114/5/5 117/5/5
f 119/6/5 115/6/5 118/6/5
f 122/7/5 121/7/5 120/7/5
f 123/7/5 121/7/5 122/7/5
f 124/5/6 125/5/6 126/5/6
f 126/5/6 125/5/6 127/5/6
f 124/5/6 126/5/6 128/5/6
f 127/5/6 125/5/6 129/5/6
f 124/5/6 128/5/6 130/5/6
f 128/5/6 129/5/6 130/5/6
f 129/5/6 125/5/6 131/5/6
f 130/5/6 129/5/6 131/5/6
f 132/5/6 133/5/6 134/5/6
f 134/5/6 133/5/6 135/5/6
f 135/5/6 133/5/6 136/5/6
f 136/5/6 133/5/6 137/5/6
f 132/5/6 134/5/6 138/5/6
f 137/5/6 133/5/6 139/5/6
f 132/5/6 138/5/6 140/5/6
f 138/5/6 139/5/6 140/5/6
f 139/5/6 133/5/6 141/5/6
f 140/5/6 139/5/6 141/5/6
f 142/7/6 143/7/6 144/7/6
f 144/7/6 143/7/6 145/7/6
