# MagicaVoxel @ Ephtracy

# group
o 

# material
mtllib scourge_pierna.mtl
usemtl palette

# normals
vn -1 0 0
vn 1 0 0
vn 0 0 1
vn 0 0 -1
vn 0 -1 0
vn 0 1 0

# texcoords
vt 0.748047 0.5
vt 0.912109 0.5
vt 0.935547 0.5
vt 0.966797 0.5
vt 0.994141 0.5

# verts
v -0.5 -3.2 1.8
v -0.5 -3.2 -0.4
v -0.5 -3 1.8
v -0.5 -3 -0.4
v -0.5 -2.9 1.8
v -0.5 -2.9 -0.4
v -0.5 -2.7 1.4
v -0.5 -2.7 0.8
v -0.5 -2.5 1.8
v -0.5 -2.5 1.4
v -0.5 -2.5 0.8
v -0.5 -2.5 -0.4
v -0.5 -2.4 1.4
v -0.5 -2.4 1.2
v -0.5 -2.4 1
v -0.5 -2.4 0.8
v -0.5 -2.2 1.8
v -0.5 -2.2 1.4
v -0.5 -2.2 1.2
v -0.5 -2.2 1
v -0.5 -2.2 0.8
v -0.5 -2.2 -0.4
v -0.3 -2.2 0.6
v -0.3 -2.2 1.19209e-07
v -0.3 -2 0.6
v -0.3 -2 0.4
v -0.3 -1.9 0.6
v -0.3 -1.9 0.4
v -0.3 -1.7 0.6
v -0.3 -1.7 1.19209e-07
v -0.3 0.4 0.6
v -0.3 0.4 1.19209e-07
v 0.3 -2.2 0.6
v 0.3 -2.2 0.5
v 0.3 -2.2 1.19209e-07
v 0.3 -2 0.6
v 0.3 -2 0.5
v 0.3 -1.9 0.6
v 0.3 -1.9 0.5
v 0.3 -1.7 0.6
v 0.3 -1.7 0.5
v 0.3 0.4 0.6
v 0.3 0.4 1.19209e-07
v 0.5 -3.2 1.8
v 0.5 -3.2 -0.4
v 0.5 -3.1 0.6
v 0.5 -3.1 -0.4
v 0.5 -3 1.8
v 0.5 -3 0.6
v 0.5 -2.9 1.8
v 0.5 -2.9 1.7
v 0.5 -2.5 1.8
v 0.5 -2.5 1.7
v 0.5 -2.4 1.4
v 0.5 -2.4 1.2
v 0.5 -2.4 1
v 0.5 -2.4 0.8
v 0.5 -2.2 1.8
v 0.5 -2.2 1.4
v 0.5 -2.2 1.2
v 0.5 -2.2 1
v 0.5 -2.2 0.8
v 0.5 -2.2 -0.4
v -0.5 -3.2 1.8
v -0.5 -3 1.8
v -0.5 -2.9 1.8
v -0.5 -2.5 1.8
v -0.5 -2.2 1.8
v 0.5 -3.2 1.8
v 0.5 -3 1.8
v 0.5 -2.9 1.8
v 0.5 -2.5 1.8
v 0.5 -2.2 1.8
v -0.3 -2.2 0.6
v -0.3 -2 0.6
v -0.3 -1.9 0.6
v -0.3 -1.7 0.6
v -0.3 0.4 0.6
v -0.1 -2.2 0.6
v -0.1 -2 0.6
v -0.1 -1.9 0.6
v -0.1 -1.7 0.6
v 0.1 -2.2 0.6
v 0.1 -1.7 0.6
v 0.2 -2 0.6
v 0.2 -1.9 0.6
v 0.3 -2.2 0.6
v 0.3 -2 0.6
v 0.3 -1.9 0.6
v 0.3 -1.7 0.6
v 0.3 0.4 0.6
v -0.3 -2.2 1.19209e-07
v -0.3 -1.7 1.19209e-07
v -0.3 0.4 1.19209e-07
v -0.2 -2.2 1.19209e-07
v -0.2 -1.7 1.19209e-07
v 0.3 -2.2 1.19209e-07
v 0.3 0.4 1.19209e-07
v -0.5 -3.2 -0.4
v -0.5 -3 -0.4
v -0.5 -2.9 -0.4
v -0.5 -2.5 -0.4
v -0.5 -2.2 -0.4
v -0.4 -2.9 -0.4
v -0.4 -2.5 -0.4
v -0.3 -3.1 -0.4
v -0.3 -3 -0.4
v 0.5 -3.2 -0.4
v 0.5 -3.1 -0.4
v 0.5 -2.2 -0.4
v -0.5 -3.2 1.8
v 0.5 -3.2 1.8
v -0.5 -3.2 -0.4
v 0.5 -3.2 -0.4
v -0.5 -2.2 1.8
v 0.5 -2.2 1.8
v -0.5 -2.2 1.4
v 0.5 -2.2 1.4
v -0.5 -2.2 1.2
v 0.5 -2.2 1.2
v -0.5 -2.2 1
v 0.5 -2.2 1
v -0.5 -2.2 0.8
v 0.5 -2.2 0.8
v -0.3 -2.2 0.6
v -0.1 -2.2 0.6
v 0.1 -2.2 0.6
v 0.3 -2.2 0.6
v 0.3 -2.2 0.5
v -0.3 -2.2 1.19209e-07
v -0.2 -2.2 1.19209e-07
v 0.3 -2.2 1.19209e-07
v -0.5 -2.2 -0.4
v 0.5 -2.2 -0.4
v -0.3 0.4 0.6
v 0.3 0.4 0.6
v -0.3 0.4 1.19209e-07
v 0.3 0.4 1.19209e-07

# faces
f 3/5/1 2/5/1 1/5/1
f 4/5/1 2/5/1 3/5/1
f 5/2/1 4/2/1 3/2/1
f 6/2/1 4/2/1 5/2/1
f 7/5/1 6/5/1 5/5/1
f 8/5/1 6/5/1 7/5/1
f 9/5/1 7/5/1 5/5/1
f 10/4/1 8/4/1 7/4/1
f 10/5/1 7/5/1 9/5/1
f 11/5/1 6/5/1 8/5/1
f 11/4/1 8/4/1 10/4/1
f 12/5/1 6/5/1 11/5/1
f 13/2/1 10/2/1 9/2/1
f 13/4/1 11/4/1 10/4/1
f 14/4/1 11/4/1 13/4/1
f 15/4/1 11/4/1 14/4/1
f 16/2/1 12/2/1 11/2/1
f 16/4/1 11/4/1 15/4/1
f 17/2/1 13/2/1 9/2/1
f 18/5/1 14/5/1 13/5/1
f 18/2/1 13/2/1 17/2/1
f 19/2/1 15/2/1 14/2/1
f 19/5/1 14/5/1 18/5/1
f 20/5/1 16/5/1 15/5/1
f 20/2/1 15/2/1 19/2/1
f 21/2/1 12/2/1 16/2/1
f 21/5/1 16/5/1 20/5/1
f 22/2/1 12/2/1 21/2/1
f 25/2/1 24/2/1 23/2/1
f 26/2/1 24/2/1 25/2/1
f 27/4/1 26/4/1 25/4/1
f 28/2/1 24/2/1 26/2/1
f 28/4/1 26/4/1 27/4/1
f 29/2/1 28/2/1 27/2/1
f 30/2/1 24/2/1 28/2/1
f 30/2/1 28/2/1 29/2/1
f 31/1/1 30/1/1 29/1/1
f 32/1/1 30/1/1 31/1/1
f 33/2/2 34/2/2 36/2/2
f 34/1/2 35/1/2 37/1/2
f 36/2/2 34/2/2 37/2/2
f 36/4/2 37/4/2 38/4/2
f 37/1/2 35/1/2 39/1/2
f 38/4/2 37/4/2 39/4/2
f 38/2/2 39/2/2 40/2/2
f 39/1/2 35/1/2 41/1/2
f 40/2/2 39/2/2 41/2/2
f 40/1/2 41/1/2 42/1/2
f 41/1/2 35/1/2 43/1/2
f 42/1/2 41/1/2 43/1/2
f 44/5/2 45/5/2 46/5/2
f 46/5/2 45/5/2 47/5/2
f 44/5/2 46/5/2 48/5/2
f 46/2/2 47/2/2 49/2/2
f 48/5/2 46/5/2 49/5/2
f 48/2/2 49/2/2 50/2/2
f 50/2/2 49/2/2 51/2/2
f 50/5/2 51/5/2 52/5/2
f 51/2/2 49/2/2 53/2/2
f 52/5/2 51/5/2 53/5/2
f 52/2/2 53/2/2 54/2/2
f 53/2/2 49/2/2 54/2/2
f 54/2/2 49/2/2 55/2/2
f 55/2/2 49/2/2 56/2/2
f 56/2/2 49/2/2 57/2/2
f 52/2/2 54/2/2 58/2/2
f 54/5/2 55/5/2 59/5/2
f 58/2/2 54/2/2 59/2/2
f 55/2/2 56/2/2 60/2/2
f 59/5/2 55/5/2 60/5/2
f 56/5/2 57/5/2 61/5/2
f 60/2/2 56/2/2 61/2/2
f 57/2/2 49/2/2 62/2/2
f 61/5/2 57/5/2 62/5/2
f 49/2/2 47/2/2 63/2/2
f 62/2/2 49/2/2 63/2/2
f 69/5/3 65/5/3 64/5/3
f 70/2/3 66/2/3 65/2/3
f 70/5/3 65/5/3 69/5/3
f 71/5/3 67/5/3 66/5/3
f 71/2/3 66/2/3 70/2/3
f 72/2/3 68/2/3 67/2/3
f 72/5/3 67/5/3 71/5/3
f 73/2/3 68/2/3 72/2/3
f 79/2/3 75/2/3 74/2/3
f 80/4/3 76/4/3 75/4/3
f 80/2/3 75/2/3 79/2/3
f 81/2/3 77/2/3 76/2/3
f 81/4/3 76/4/3 80/4/3
f 82/1/3 78/1/3 77/1/3
f 82/2/3 77/2/3 81/2/3
f 83/5/3 81/5/3 80/5/3
f 83/5/3 80/5/3 79/5/3
f 83/5/3 82/5/3 81/5/3
f 84/1/3 78/1/3 82/1/3
f 84/5/3 82/5/3 83/5/3
f 85/2/3 84/2/3 83/2/3
f 86/2/3 84/2/3 85/2/3
f 87/2/3 85/2/3 83/2/3
f 88/4/3 86/4/3 85/4/3
f 88/2/3 85/2/3 87/2/3
f 89/2/3 84/2/3 86/2/3
f 89/4/3 86/4/3 88/4/3
f 90/1/3 78/1/3 84/1/3
f 90/2/3 84/2/3 89/2/3
f 91/1/3 78/1/3 90/1/3
f 92/2/4 93/2/4 95/2/4
f 93/1/4 94/1/4 96/1/4
f 95/2/4 93/2/4 96/2/4
f 95/1/4 96/1/4 97/1/4
f 96/1/4 94/1/4 98/1/4
f 97/1/4 96/1/4 98/1/4
f 100/2/4 101/2/4 104/2/4
f 101/5/4 102/5/4 104/5/4
f 102/2/4 103/2/4 105/2/4
f 104/5/4 102/5/4 105/5/4
f 99/5/4 100/5/4 106/5/4
f 100/2/4 104/2/4 107/2/4
f 106/5/4 100/5/4 107/5/4
f 104/2/4 105/2/4 107/2/4
f 99/5/4 106/5/4 108/5/4
f 106/2/4 107/2/4 109/2/4
f 108/5/4 106/5/4 109/5/4
f 105/2/4 103/2/4 110/2/4
f 109/2/4 107/2/4 110/2/4
f 107/2/4 105/2/4 110/2/4
f 113/5/5 112/5/5 111/5/5
f 114/5/5 112/5/5 113/5/5
f 115/2/6 116/2/6 117/2/6
f 117/2/6 116/2/6 118/2/6
f 117/5/6 118/5/6 119/5/6
f 119/5/6 118/5/6 120/5/6
f 119/2/6 120/2/6 121/2/6
f 121/2/6 120/2/6 122/2/6
f 121/5/6 122/5/6 123/5/6
f 123/5/6 122/5/6 124/5/6
f 123/2/6 124/2/6 125/2/6
f 125/2/6 124/2/6 126/2/6
f 126/2/6 124/2/6 127/2/6
f 127/2/6 124/2/6 128/2/6
f 128/2/6 124/2/6 129/2/6
f 123/2/6 125/2/6 130/2/6
f 129/2/6 124/2/6 132/2/6
f 130/2/6 131/2/6 133/2/6
f 131/2/6 132/2/6 133/2/6
f 123/2/6 130/2/6 133/2/6
f 132/2/6 124/2/6 134/2/6
f 133/2/6 132/2/6 134/2/6
f 135/1/6 136/1/6 137/1/6
f 137/1/6 136/1/6 138/1/6
