# Blender v3.0.1 OBJ File: ''
# www.blender.org
mtllib lamp.mtl
o Cube
v 1.313186 22.010815 -1.313186
v 1.313186 0.085792 -1.313186
v 1.313186 22.010815 1.313186
v 1.313186 0.085792 1.313186
v -1.313186 22.010815 -1.313186
v -1.313186 0.085792 -1.313186
v -1.313186 22.010815 1.313186
v -1.313186 0.085792 1.313186
vt 0.245290 0.814980
vt 0.319075 0.814980
vt 0.319075 0.878173
vt 0.245290 0.878173
vt 0.171505 0.878173
vt 0.245290 0.941365
vt 0.171505 0.941365
vt 0.171505 0.688595
vt 0.245290 0.688595
vt 0.245290 0.751788
vt 0.171505 0.751788
vt 0.097720 0.814980
vt 0.171505 0.814980
vt 0.097720 0.878173
vn 0.0000 1.0000 0.0000
vn 0.0000 0.0000 1.0000
vn -1.0000 0.0000 0.0000
vn 0.0000 -1.0000 0.0000
vn 1.0000 0.0000 0.0000
vn 0.0000 0.0000 -1.0000
usemtl Material
s off
f 1/1/1 5/2/1 7/3/1 3/4/1
f 4/5/2 3/4/2 7/6/2 8/7/2
f 8/8/3 7/9/3 5/10/3 6/11/3
f 6/12/4 2/13/4 4/5/4 8/14/4
f 2/13/5 1/1/5 3/4/5 4/5/5
f 6/11/6 5/10/6 1/1/6 2/13/6
o Cube.2_Cube.001
v 3.694555 9.547871 -13.083473
v 3.694555 9.473278 13.172901
v 3.694555 24.655640 -13.040552
v 3.694555 24.581047 13.215822
v 0.584199 9.547871 -13.083473
v 0.584199 9.473278 13.172901
v 0.584199 24.655640 -13.040552
v 0.584199 24.581047 13.215822
vt 0.223220 0.505859
vt 0.271224 0.505859
vt 0.271224 0.553863
vt 0.223220 0.553863
vt 0.175217 0.553863
vt 0.223220 0.601866
vt 0.175217 0.601866
vt 0.175217 0.409853
vt 0.223220 0.409853
vt 0.223220 0.457856
vt 0.175217 0.457856
vt 0.127214 0.505859
vt 0.175217 0.505859
vt 0.127214 0.553863
vn 0.0000 0.0028 -1.0000
vn 0.0000 1.0000 0.0028
vn -1.0000 0.0000 0.0000
vn 0.0000 -0.0028 1.0000
vn 1.0000 0.0000 0.0000
vn 0.0000 -1.0000 -0.0028
usemtl Material.001
s off
f 9/15/7 13/16/7 15/17/7 11/18/7
f 12/19/8 11/18/8 15/20/8 16/21/8
f 16/22/9 15/23/9 13/24/9 14/25/9
f 14/26/10 10/27/10 12/19/10 16/28/10
f 10/27/11 9/15/11 11/18/11 12/19/11
f 14/25/12 13/24/12 9/15/12 10/27/12
o Cube.001_Cube.015
v 4.899151 10.991587 11.715059
v 4.899151 16.396954 11.715059
v 4.899151 10.991587 4.987883
v 4.899151 16.396954 4.987883
v 2.596552 10.991587 11.715059
v 2.596552 16.396954 11.715059
v 2.596552 10.991587 4.987883
v 2.596552 16.396954 4.987883
vt 0.180954 0.085091
vt 0.180954 0.139977
vt 0.235840 0.139977
vt 0.235840 0.085091
vt 0.180954 0.194863
vt 0.235840 0.194863
vt 0.180954 0.249749
vt 0.235840 0.249749
vt 0.180954 0.304635
vt 0.235840 0.304635
vt 0.126068 0.194863
vt 0.126068 0.249749
vt 0.290726 0.249749
vt 0.290726 0.194863
vn 1.0000 0.0000 0.0000
vn 0.0000 0.0000 -1.0000
vn -1.0000 0.0000 0.0000
vn 0.0000 0.0000 1.0000
vn 0.0000 -1.0000 0.0000
vn 0.0000 1.0000 0.0000
usemtl Material.015
s off
f 17/29/13 19/30/13 20/31/13 18/32/13
f 19/30/14 23/33/14 24/34/14 20/31/14
f 23/33/15 21/35/15 22/36/15 24/34/15
f 21/35/16 17/37/16 18/38/16 22/36/16
f 19/39/17 17/40/17 21/35/17 23/33/17
f 24/34/18 22/36/18 18/41/18 20/42/18
o Cube.003_Cube.016
v 4.899151 17.335728 2.888636
v 4.899151 22.741096 2.888636
v 4.899151 17.335728 -3.838540
v 4.899151 22.741096 -3.838540
v 2.596552 17.335728 2.888636
v 2.596552 22.741096 2.888636
v 2.596552 17.335728 -3.838540
v 2.596552 22.741096 -3.838540
vt 0.180954 0.085091
vt 0.180954 0.139977
vt 0.235840 0.139977
vt 0.235840 0.085091
vt 0.180954 0.194863
vt 0.235840 0.194863
vt 0.180954 0.249749
vt 0.235840 0.249749
vt 0.180954 0.304635
vt 0.235840 0.304635
vt 0.126068 0.194863
vt 0.126068 0.249749
vt 0.290726 0.249749
vt 0.290726 0.194863
vn 1.0000 0.0000 0.0000
vn 0.0000 0.0000 -1.0000
vn -1.0000 0.0000 0.0000
vn 0.0000 0.0000 1.0000
vn 0.0000 -1.0000 0.0000
vn 0.0000 1.0000 0.0000
usemtl Material.016
s off
f 25/43/19 27/44/19 28/45/19 26/46/19
f 27/44/20 31/47/20 32/48/20 28/45/20
f 31/47/21 29/49/21 30/50/21 32/48/21
f 29/49/22 25/51/22 26/52/22 30/50/22
f 27/53/23 25/54/23 29/49/23 31/47/23
f 32/48/24 30/50/24 26/55/24 28/56/24
o Cube.004_Cube.017
v 4.899151 17.335728 -5.163183
v 4.899151 22.741096 -5.163183
v 4.899151 17.335728 -11.890360
v 4.899151 22.741096 -11.890360
v 2.596552 17.335728 -5.163183
v 2.596552 22.741096 -5.163183
v 2.596552 17.335728 -11.890360
v 2.596552 22.741096 -11.890360
vt 0.180954 0.085091
vt 0.180954 0.139977
vt 0.235840 0.139977
vt 0.235840 0.085091
vt 0.180954 0.194863
vt 0.235840 0.194863
vt 0.180954 0.249749
vt 0.235840 0.249749
vt 0.180954 0.304635
vt 0.235840 0.304635
vt 0.126068 0.194863
vt 0.126068 0.249749
vt 0.290726 0.249749
vt 0.290726 0.194863
vn 1.0000 0.0000 0.0000
vn 0.0000 0.0000 -1.0000
vn -1.0000 0.0000 0.0000
vn 0.0000 0.0000 1.0000
vn 0.0000 -1.0000 0.0000
vn 0.0000 1.0000 0.0000
usemtl Material.017
s off
f 33/57/25 35/58/25 36/59/25 34/60/25
f 35/58/26 39/61/26 40/62/26 36/59/26
f 39/61/27 37/63/27 38/64/27 40/62/27
f 37/63/28 33/65/28 34/66/28 38/64/28
f 35/67/29 33/68/29 37/63/29 39/61/29
f 40/62/30 38/64/30 34/69/30 36/70/30
o Cube.005_Cube.018
v 4.899151 10.975267 2.858877
v 4.899151 16.380636 2.858877
v 4.899151 10.975267 -3.868299
v 4.899151 16.380636 -3.868299
v 2.596552 10.975267 2.858877
v 2.596552 16.380636 2.858877
v 2.596552 10.975267 -3.868299
v 2.596552 16.380636 -3.868299
vt 0.180954 0.085091
vt 0.180954 0.139977
vt 0.235840 0.139977
vt 0.235840 0.085091
vt 0.180954 0.194863
vt 0.235840 0.194863
vt 0.180954 0.249749
vt 0.235840 0.249749
vt 0.180954 0.304635
vt 0.235840 0.304635
vt 0.126068 0.194863
vt 0.126068 0.249749
vt 0.290726 0.249749
vt 0.290726 0.194863
vn 1.0000 0.0000 0.0000
vn 0.0000 0.0000 -1.0000
vn -1.0000 0.0000 0.0000
vn 0.0000 0.0000 1.0000
vn 0.0000 -1.0000 0.0000
vn 0.0000 1.0000 0.0000
usemtl Material.018
s off
f 41/71/31 43/72/31 44/73/31 42/74/31
f 43/72/32 47/75/32 48/76/32 44/73/32
f 47/75/33 45/77/33 46/78/33 48/76/33
f 45/77/34 41/79/34 42/80/34 46/78/34
f 43/81/35 41/82/35 45/77/35 47/75/35
f 48/76/36 46/78/36 42/83/36 44/84/36
o Cube.006_Cube.019
v 4.899151 11.069706 -5.388462
v 4.899151 16.475075 -5.388462
v 4.899151 11.069706 -12.115639
v 4.899151 16.475075 -12.115639
v 2.596552 11.069706 -5.388462
v 2.596552 16.475075 -5.388462
v 2.596552 11.069706 -12.115639
v 2.596552 16.475075 -12.115639
vt 0.180954 0.085091
vt 0.180954 0.139977
vt 0.235840 0.139977
vt 0.235840 0.085091
vt 0.180954 0.194863
vt 0.235840 0.194863
vt 0.180954 0.249749
vt 0.235840 0.249749
vt 0.180954 0.304635
vt 0.235840 0.304635
vt 0.126068 0.194863
vt 0.126068 0.249749
vt 0.290726 0.249749
vt 0.290726 0.194863
vn 1.0000 0.0000 0.0000
vn 0.0000 0.0000 -1.0000
vn -1.0000 0.0000 0.0000
vn 0.0000 0.0000 1.0000
vn 0.0000 -1.0000 0.0000
vn 0.0000 1.0000 0.0000
usemtl Material.019
s off
f 49/85/37 51/86/37 52/87/37 50/88/37
f 51/86/38 55/89/38 56/90/38 52/87/38
f 55/89/39 53/91/39 54/92/39 56/90/39
f 53/91/40 49/93/40 50/94/40 54/92/40
f 51/95/41 49/96/41 53/91/41 55/89/41
f 56/90/42 54/92/42 50/97/42 52/98/42
o Cube.007_Cube.020
v 4.899151 17.335728 11.715059
v 4.899151 22.741096 11.715059
v 4.899151 17.335728 4.987883
v 4.899151 22.741096 4.987883
v 2.596552 17.335728 11.715059
v 2.596552 22.741096 11.715059
v 2.596552 17.335728 4.987883
v 2.596552 22.741096 4.987883
vt 0.180954 0.085091
vt 0.180954 0.139977
vt 0.235840 0.139977
vt 0.235840 0.085091
vt 0.180954 0.194863
vt 0.235840 0.194863
vt 0.180954 0.249749
vt 0.235840 0.249749
vt 0.180954 0.304635
vt 0.235840 0.304635
vt 0.126068 0.194863
vt 0.126068 0.249749
vt 0.290726 0.249749
vt 0.290726 0.194863
vn 1.0000 0.0000 0.0000
vn 0.0000 0.0000 -1.0000
vn -1.0000 0.0000 0.0000
vn 0.0000 0.0000 1.0000
vn 0.0000 -1.0000 0.0000
vn 0.0000 1.0000 0.0000
usemtl Material.020
s off
f 57/99/43 59/100/43 60/101/43 58/102/43
f 59/100/44 63/103/44 64/104/44 60/101/44
f 63/103/45 61/105/45 62/106/45 64/104/45
f 61/105/46 57/107/46 58/108/46 62/106/46
f 59/109/47 57/110/47 61/105/47 63/103/47
f 64/104/48 62/106/48 58/111/48 60/112/48
o Cube.008_Cube.021
v 3.683568 18.330658 -6.422996
v 3.683568 22.002129 -6.422996
v 3.683568 18.330658 -10.696700
v 3.683568 22.002129 -10.696700
v 6.019667 18.330658 -6.422996
v 6.019667 22.002129 -6.422996
v 6.019667 18.330658 -10.696700
v 6.019667 22.002129 -10.696700
vt 0.614584 0.718055
vt 0.667552 0.718055
vt 0.667552 0.771023
vt 0.614584 0.771023
vt 0.667552 0.823991
vt 0.614584 0.823991
vt 0.667552 0.876959
vt 0.614584 0.876959
vt 0.667552 0.929927
vt 0.614584 0.929927
vt 0.561616 0.823991
vt 0.561616 0.876959
vt 0.720520 0.823991
vt 0.720520 0.876959
vn -1.0000 0.0000 0.0000
vn 0.0000 0.0000 -1.0000
vn 1.0000 0.0000 0.0000
vn 0.0000 0.0000 1.0000
vn 0.0000 -1.0000 0.0000
vn 0.0000 1.0000 0.0000
usemtl Material.021
s off
f 65/113/49 66/114/49 68/115/49 67/116/49
f 67/116/50 68/115/50 72/117/50 71/118/50
f 71/118/51 72/117/51 70/119/51 69/120/51
f 69/120/52 70/119/52 66/121/52 65/122/52
f 67/123/53 71/118/53 69/120/53 65/124/53
f 72/117/54 68/125/54 66/126/54 70/119/54
o Cube.009_Cube.022
v 3.683568 18.330658 1.781061
v 3.683568 22.002129 1.781061
v 3.683568 18.330658 -2.492644
v 3.683568 22.002129 -2.492644
v 6.019667 18.330658 1.781061
v 6.019667 22.002129 1.781061
v 6.019667 18.330658 -2.492644
v 6.019667 22.002129 -2.492644
vt 0.614584 0.718055
vt 0.667552 0.718055
vt 0.667552 0.771023
vt 0.614584 0.771023
vt 0.667552 0.823991
vt 0.614584 0.823991
vt 0.667552 0.876959
vt 0.614584 0.876959
vt 0.667552 0.929927
vt 0.614584 0.929927
vt 0.561616 0.823991
vt 0.561616 0.876959
vt 0.720520 0.823991
vt 0.720520 0.876959
vn -1.0000 0.0000 0.0000
vn 0.0000 0.0000 -1.0000
vn 1.0000 0.0000 0.0000
vn 0.0000 0.0000 1.0000
vn 0.0000 -1.0000 0.0000
vn 0.0000 1.0000 0.0000
usemtl Material.022
s off
f 73/127/55 74/128/55 76/129/55 75/130/55
f 75/130/56 76/129/56 80/131/56 79/132/56
f 79/132/57 80/131/57 78/133/57 77/134/57
f 77/134/58 78/133/58 74/135/58 73/136/58
f 75/137/59 79/132/59 77/134/59 73/138/59
f 80/131/60 76/139/60 74/140/60 78/133/60
o Cube.010_Cube.023
v 3.683568 11.938333 10.282876
v 3.683568 15.609803 10.282876
v 3.683568 11.938333 6.009171
v 3.683568 15.609803 6.009171
v 6.019667 11.938333 10.282876
v 6.019667 15.609803 10.282876
v 6.019667 11.938333 6.009171
v 6.019667 15.609803 6.009171
vt 0.614584 0.718055
vt 0.667552 0.718055
vt 0.667552 0.771023
vt 0.614584 0.771023
vt 0.667552 0.823991
vt 0.614584 0.823991
vt 0.667552 0.876959
vt 0.614584 0.876959
vt 0.667552 0.929927
vt 0.614584 0.929927
vt 0.561616 0.823991
vt 0.561616 0.876959
vt 0.720520 0.823991
vt 0.720520 0.876959
vn -1.0000 0.0000 0.0000
vn 0.0000 0.0000 -1.0000
vn 1.0000 0.0000 0.0000
vn 0.0000 0.0000 1.0000
vn 0.0000 -1.0000 0.0000
vn 0.0000 1.0000 0.0000
usemtl Material.023
s off
f 81/141/61 82/142/61 84/143/61 83/144/61
f 83/144/62 84/143/62 88/145/62 87/146/62
f 87/146/63 88/145/63 86/147/63 85/148/63
f 85/148/64 86/147/64 82/149/64 81/150/64
f 83/151/65 87/146/65 85/148/65 81/152/65
f 88/145/66 84/153/66 82/154/66 86/147/66
o Cube.011_Cube.024
v 3.683568 11.715095 1.681755
v 3.683568 15.386565 1.681755
v 3.683568 11.715095 -2.591950
v 3.683568 15.386565 -2.591950
v 6.019667 11.715095 1.681755
v 6.019667 15.386565 1.681755
v 6.019667 11.715095 -2.591950
v 6.019667 15.386565 -2.591950
vt 0.614584 0.718055
vt 0.667552 0.718055
vt 0.667552 0.771023
vt 0.614584 0.771023
vt 0.667552 0.823991
vt 0.614584 0.823991
vt 0.667552 0.876959
vt 0.614584 0.876959
vt 0.667552 0.929927
vt 0.614584 0.929927
vt 0.561616 0.823991
vt 0.561616 0.876959
vt 0.720520 0.823991
vt 0.720520 0.876959
vn -1.0000 0.0000 0.0000
vn 0.0000 0.0000 -1.0000
vn 1.0000 0.0000 0.0000
vn 0.0000 0.0000 1.0000
vn 0.0000 -1.0000 0.0000
vn 0.0000 1.0000 0.0000
usemtl Material.024
s off
f 89/155/67 90/156/67 92/157/67 91/158/67
f 91/158/68 92/157/68 96/159/68 95/160/68
f 95/160/69 96/159/69 94/161/69 93/162/69
f 93/162/70 94/161/70 90/163/70 89/164/70
f 91/165/71 95/160/71 93/162/71 89/166/71
f 96/159/72 92/167/72 90/168/72 94/161/72
o Cube.012_Cube.025
v 5.146969 11.889965 -6.305280
v 5.146969 15.561436 -6.305280
v 5.146969 11.889965 -10.578984
v 5.146969 15.561436 -10.578984
v 7.483068 11.889965 -6.305280
v 7.483068 15.561436 -6.305280
v 7.483068 11.889965 -10.578984
v 7.483068 15.561436 -10.578984
vt 0.614584 0.718055
vt 0.667552 0.718055
vt 0.667552 0.771023
vt 0.614584 0.771023
vt 0.667552 0.823991
vt 0.614584 0.823991
vt 0.667552 0.876959
vt 0.614584 0.876959
vt 0.667552 0.929927
vt 0.614584 0.929927
vt 0.561616 0.823991
vt 0.561616 0.876959
vt 0.720520 0.823991
vt 0.720520 0.876959
vn -1.0000 0.0000 0.0000
vn 0.0000 0.0000 -1.0000
vn 1.0000 0.0000 0.0000
vn 0.0000 0.0000 1.0000
vn 0.0000 -1.0000 0.0000
vn 0.0000 1.0000 0.0000
usemtl Material.025
s off
f 97/169/73 98/170/73 100/171/73 99/172/73
f 99/172/74 100/171/74 104/173/74 103/174/74
f 103/174/75 104/173/75 102/175/75 101/176/75
f 101/176/76 102/175/76 98/177/76 97/178/76
f 99/179/77 103/174/77 101/176/77 97/180/77
f 104/173/78 100/181/78 98/182/78 102/175/78
o Cube.013_Cube.026
v 3.683568 18.330658 10.282876
v 3.683568 22.002129 10.282876
v 3.683568 18.330658 6.009171
v 3.683568 22.002129 6.009171
v 6.019667 18.330658 10.282876
v 6.019667 22.002129 10.282876
v 6.019667 18.330658 6.009171
v 6.019667 22.002129 6.009171
vt 0.614584 0.718055
vt 0.667552 0.718055
vt 0.667552 0.771023
vt 0.614584 0.771023
vt 0.667552 0.823991
vt 0.614584 0.823991
vt 0.667552 0.876959
vt 0.614584 0.876959
vt 0.667552 0.929927
vt 0.614584 0.929927
vt 0.561616 0.823991
vt 0.561616 0.876959
vt 0.720520 0.823991
vt 0.720520 0.876959
vn -1.0000 0.0000 0.0000
vn 0.0000 0.0000 -1.0000
vn 1.0000 0.0000 0.0000
vn 0.0000 0.0000 1.0000
vn 0.0000 -1.0000 0.0000
vn 0.0000 1.0000 0.0000
usemtl Material.026
s off
f 105/183/79 106/184/79 108/185/79 107/186/79
f 107/186/80 108/185/80 112/187/80 111/188/80
f 111/188/81 112/187/81 110/189/81 109/190/81
f 109/190/82 110/189/82 106/191/82 105/192/82
f 107/193/83 111/188/83 109/190/83 105/194/83
f 112/187/84 108/195/84 106/196/84 110/189/84
